<svg xmlns="http://www.w3.org/2000/svg" viewBox="0 0 750 500"><g id="freepik--Character--inject-59"><path d="M185.52,197.9a5.67,5.67,0,0,1,3-.5c.09,0,.8.09.34,0a8.2,8.2,0,0,1,.86.18q.44.12.84.27c.66.23-.27-.2.33.15a6.45,6.45,0,0,1,2.16,1.72,6,6,0,0,1,1.14,2.45c.06.24.11.48.15.73-.08-.48,0,.46,0,.56s0,.49,0,.73-.09.75,0,.31a7.14,7.14,0,0,1-.46,1.64c.18-.43-.1.19-.15.27-.15.29-.33.55-.49.82s.17-.14-.2.26c-.16.18-.31.36-.48.53a8.67,8.67,0,0,1-.72.64c.35-.28-.25.17-.27.18q-.35.22-.72.42c-.09.05-.81.35-.38.2a10.18,10.18,0,0,1-1.62.43,2.5,2.5,0,1,0,1.33,4.82,11.26,11.26,0,0,0,2.06-21.54,11.23,11.23,0,0,0-8.09-.11,2.58,2.58,0,0,0-1.75,3.08,2.52,2.52,0,0,0,3.08,1.74Z" style="fill:#263238"></path><path d="M188.49,382.51l22.85,22.69,4,23.13A9.14,9.14,0,0,0,225.87,435a4.18,4.18,0,0,0,1.07-.35h0c1-.53,2.84-3.62,3-4.72,1.92-12.38,5-28.77,1.83-32.65-1.81-2.2-20.47-29.82-20.47-29.82Z" style="fill:#e0e0e0"></path><path d="M213.7,389a2,2,0,0,1,.4.31c.24.21.6.52,1.05.94.89.84,2.2,2.05,3.66,3.69a25,25,0,0,1,4.29,6.44,16.38,16.38,0,0,1,1.24,4.42,37.72,37.72,0,0,1,.25,4.91c-.07,3.34.43,6.48.36,9.42a11.6,11.6,0,0,1-2.36,7.32,6.65,6.65,0,0,1-4.6,2.36,4.8,4.8,0,0,1-1.42-.14c-.31-.09-.47-.16-.46-.18a7.77,7.77,0,0,0,1.87.12,6.56,6.56,0,0,0,4.33-2.4,11.32,11.32,0,0,0,2.16-7.09c.05-2.86-.47-6-.4-9.41a40.06,40.06,0,0,0-.23-4.84,16.31,16.31,0,0,0-1.18-4.3,24.94,24.94,0,0,0-4.13-6.38c-1.41-1.67-2.67-2.92-3.52-3.79A15.32,15.32,0,0,1,213.7,389Z" style="fill:#263238"></path><path d="M220.09,402.22c0,.16-2.1.41-4.57,1.22s-4.32,1.84-4.4,1.7a14.66,14.66,0,0,1,9-2.92Z" style="fill:#263238"></path><path d="M219.88,409.8c0,.16-1.85,0-4.06.43s-3.9,1.08-4,.94a11.07,11.07,0,0,1,8-1.37Z" style="fill:#263238"></path><path d="M222,417.06c0,.15-1.84-.28-4.08-.27s-4,.41-4.08.26a11,11,0,0,1,8.16,0Z" style="fill:#263238"></path><path d="M218.71,433.09a8.9,8.9,0,0,0,1.65,0,6.76,6.76,0,0,0,3.89-2,12.72,12.72,0,0,0,2.95-5.85c.62-2.45,1.18-5.18,1.65-8.07a98.83,98.83,0,0,0,1.23-14.9c0-1.91,0-3.46,0-4.54a9,9,0,0,1,0-1.67,12.27,12.27,0,0,1,.2,1.66c.08,1.08.19,2.63.21,4.55a87.16,87.16,0,0,1-1.08,15c-.48,2.9-1.05,5.63-1.71,8.1a12.73,12.73,0,0,1-3.15,6,6.73,6.73,0,0,1-4.14,1.92,4.74,4.74,0,0,1-1.25-.09A1.23,1.23,0,0,1,218.71,433.09Z" style="fill:#263238"></path><path d="M229.78,399.39a15.85,15.85,0,0,1-1.44-2.05c-.86-1.29-2.07-3-3.5-4.92s-2.81-3.49-3.83-4.66a14.28,14.28,0,0,1-1.61-1.93,10.72,10.72,0,0,1,1.88,1.68,51.31,51.31,0,0,1,4,4.6,49.49,49.49,0,0,1,3.39,5A10.53,10.53,0,0,1,229.78,399.39Z" style="fill:#263238"></path><path d="M262.78,333.76l6.86,31.62,17.41,15.9a9.18,9.18,0,0,1-.07,12.5,3.76,3.76,0,0,1-.87.71h0c-1,.54-4.6.45-5.63,0-11.52-5.07-27.06-11.32-28.62-16.1-.89-2.73-14.18-33.46-14.18-33.46Z" style="fill:#e0e0e0"></path><path d="M254.67,358.64a1.71,1.71,0,0,1,.15.48l.32,1.38c.29,1.19.66,2.93,1.31,5a25.64,25.64,0,0,0,3.16,7,16.7,16.7,0,0,0,3,3.32,40,40,0,0,0,4,2.81c2.89,1.76,5.31,3.92,7.75,5.43a11.43,11.43,0,0,0,7.18,2,6.63,6.63,0,0,0,4.37-2.38,8,8,0,0,0,.91-1.64,1.44,1.44,0,0,1-.1.49,5.07,5.07,0,0,1-.65,1.27,6.63,6.63,0,0,1-4.48,2.62,11.63,11.63,0,0,1-7.48-2c-2.52-1.53-4.91-3.66-7.78-5.4a37.44,37.44,0,0,1-4-2.86,16,16,0,0,1-3.08-3.45,25,25,0,0,1-3.13-7.11c-.6-2.12-.92-3.88-1.15-5.09-.1-.61-.18-1.08-.23-1.4A1.89,1.89,0,0,1,254.67,358.64Z" style="fill:#263238"></path><path d="M262.38,371.18a11.19,11.19,0,0,1,3.17-3.61,11.31,11.31,0,0,1,4.16-2.41c.07.14-1.82,1.14-3.83,2.81S262.51,371.27,262.38,371.18Z" style="fill:#263238"></path><path d="M268.91,375.09a11.07,11.07,0,0,1,5.5-6c.09.13-1.44,1.18-2.94,2.85S269.05,375.17,268.91,375.09Z" style="fill:#263238"></path><path d="M273.94,380.78a11,11,0,0,1,4.4-6.91c.1.12-1.23,1.41-2.43,3.31S274.09,380.83,273.94,380.78Z" style="fill:#263238"></path><path d="M289.26,386.7s0,.15-.1.43a4.91,4.91,0,0,1-.61,1.1,6.69,6.69,0,0,1-3.85,2.46,12.68,12.68,0,0,1-6.78-.56c-2.44-.78-5.07-1.78-7.78-2.94A86.72,86.72,0,0,1,256.87,380c-1.62-1.06-2.88-2-3.74-2.63a11.14,11.14,0,0,1-1.3-1.07,9.7,9.7,0,0,1,1.42.9c.89.6,2.18,1.48,3.82,2.49a100.24,100.24,0,0,0,13.28,7c2.69,1.16,5.3,2.17,7.71,3a12.62,12.62,0,0,0,6.55.66,6.72,6.72,0,0,0,3.78-2.22A8.74,8.74,0,0,0,289.26,386.7Z" style="fill:#263238"></path><path d="M254.75,377.85a10.31,10.31,0,0,1-1.3-2.17,50.09,50.09,0,0,1-2.42-5.6,48.27,48.27,0,0,1-1.74-5.85,9.89,9.89,0,0,1-.41-2.5,15.66,15.66,0,0,1,.76,2.41c.44,1.49,1.07,3.54,1.88,5.76s1.64,4.2,2.27,5.62A16.86,16.86,0,0,1,254.75,377.85Z" style="fill:#263238"></path><path d="M113.76,241.13a14.07,14.07,0,0,0-8.77,9.05c-1.55,4.67-.78,10,1.22,14.42a11.53,11.53,0,0,0,10.56,7.14c4.84.06,9.64-2,14.17-3.45l17.6-5.61c3.05-1,1.75-5.81-1.33-4.83l-13.32,4.26c-4.17,1.33-8.32,2.82-12.55,3.94-3.17.85-6.94,1.38-9.31-1.42s-3.06-6.92-2.8-10.34,2.37-7.17,5.85-8.34c3-1,1.74-5.85-1.32-4.82Z" style="fill:#263238"></path><path d="M88.37,145.57c-4.24.86-6.81,5-7,9.12-.19,4.53,2.27,8.51,4.7,12.12a2.56,2.56,0,0,0,3.42.9,2.53,2.53,0,0,0,.9-3.42c-1.77-2.63-3.86-5.62-4-8.69a6.07,6.07,0,0,1,.16-2c0-.15.32-.93.19-.64a9.33,9.33,0,0,1,.48-.88c.06-.1.22-.32.06-.11a3.9,3.9,0,0,1,.33-.38c.14-.15.29-.29.44-.44s-.24.16.09-.07l.41-.26s.45-.24.26-.15.23-.08.28-.09l.6-.15a2.52,2.52,0,0,0,1.75-3.07,2.55,2.55,0,0,0-3.08-1.75Z" style="fill:#455a64"></path><rect x="79.67" y="151.34" width="91.86" height="95.68" rx="14.35" transform="translate(-58 51.74) rotate(-19)" style="fill:#A460ED"></rect><g style="opacity:0.30000000000000004"><rect x="79.67" y="151.34" width="91.86" height="95.68" rx="14.35" transform="translate(-58 51.74) rotate(-19)"></rect></g><rect x="91.94" y="147.11" width="91.86" height="95.68" rx="14.35" transform="translate(-55.96 55.51) rotate(-19)" style="fill:#A460ED"></rect><path d="M91.1,172.14S82,179.59,79.76,187.48s-9.39,32.44-9.39,32.44a132.53,132.53,0,0,0-5.66,13c-1,3.26-9.19,21.37-7.37,27.12.18.54-4,10.11-4,10.11L73,276.77l4.08-10.3,1.67-1a8.08,8.08,0,0,0,3.48-4.14L93,232.63l8.49-23.32Z" style="fill:#e0e0e0"></path><path d="M87.51,175.58a8.82,8.82,0,0,1,1.15,1.07c.36.36.79.8,1.26,1.36s1,1.15,1.56,1.88a43.79,43.79,0,0,1,3.53,5.3,47.64,47.64,0,0,1,3.24,7.09,48.55,48.55,0,0,1,2,7.55,44.07,44.07,0,0,1,.6,6.34c.05.91,0,1.73,0,2.45s-.07,1.34-.12,1.84a8.89,8.89,0,0,1-.22,1.56,10,10,0,0,1,0-1.57c0-.51,0-1.12,0-1.84s0-1.53-.06-2.42a47.73,47.73,0,0,0-.71-6.27,50.91,50.91,0,0,0-2-7.46,51.81,51.81,0,0,0-3.17-7,47,47,0,0,0-3.41-5.31c-.51-.74-1-1.35-1.49-1.92s-.84-1-1.18-1.4A9.49,9.49,0,0,1,87.51,175.58Z" style="fill:#263238"></path><path d="M81.46,183.15a7.38,7.38,0,0,1,1.13.8c.72.54,1.7,1.38,2.87,2.47a52.56,52.56,0,0,1,3.87,4.07,56.55,56.55,0,0,1,4.1,5.54,56.78,56.78,0,0,1,3.32,6,49.2,49.2,0,0,1,2.09,5.22c.5,1.51.86,2.76,1,3.63a7.65,7.65,0,0,1,.26,1.37,6.43,6.43,0,0,1-.46-1.31c-.25-.86-.65-2.08-1.2-3.57s-1.27-3.24-2.17-5.14A63.29,63.29,0,0,0,93,196.31a60.14,60.14,0,0,0-4-5.51,54.24,54.24,0,0,0-3.76-4.11c-1.12-1.12-2.07-2-2.74-2.58A7.43,7.43,0,0,1,81.46,183.15Z" style="fill:#263238"></path><path d="M68.45,223.94c6.64,6,15.62,9.92,24.48,8.89L94.37,229a28,28,0,0,1-24.14-8.92Z" style="fill:#A460ED"></path><path d="M95.13,226.81a3.85,3.85,0,0,1-1,.13,20,20,0,0,1-2.84,0,28,28,0,0,1-9.06-2.21,39,39,0,0,1-8.07-4.69c-1-.71-1.71-1.32-2.21-1.76a4.87,4.87,0,0,1-.75-.72c0-.07,1.22.84,3.17,2.18a44.79,44.79,0,0,0,8.06,4.51,30.9,30.9,0,0,0,8.89,2.32C93.65,226.81,95.12,226.71,95.13,226.81Z" style="fill:#263238"></path><path d="M91.18,236.06a3.75,3.75,0,0,1-1,.13,19.89,19.89,0,0,1-2.83,0A28.08,28.08,0,0,1,78.25,234a39,39,0,0,1-8.07-4.69c-1-.71-1.71-1.32-2.21-1.76a4,4,0,0,1-.74-.72c0-.07,1.21.84,3.16,2.18a45.5,45.5,0,0,0,8.06,4.51,31,31,0,0,0,8.9,2.32C89.7,236.06,91.18,236,91.18,236.06Z" style="fill:#263238"></path><path d="M82.4,196a7,7,0,0,0-2.21-1.69,2.37,2.37,0,0,0-2.6.41,3.56,3.56,0,0,0-.65,1.44L74.15,206.3a4.47,4.47,0,0,0-.23,1.73A2.73,2.73,0,0,0,75.37,210a4.51,4.51,0,0,0,5-.9,9.78,9.78,0,0,0,2.57-4.63C83.75,201.6,84.29,198,82.4,196Z" style="fill:#A460ED"></path><path d="M74.7,269.29a3.49,3.49,0,0,1-.87-.22l-2.34-.77c-2-.67-4.74-1.63-7.86-2.75l-.24-.09.09-.24.71-2c.1-.26.19-.52.28-.76l.09-.24.24.08c3.45,1.1,6.54,2.1,8.75,2.85,1.11.38,2,.69,2.62.92l.7.27c.07,0,.15,0,.14.1s.08,0,.09,0,0,0,0,0-.14,0-.22,0l-.73-.18c-.63-.16-1.54-.42-2.66-.75-2.25-.67-5.35-1.62-8.81-2.71l.32-.16c-.09.25-.18.51-.28.77-.24.68-.49,1.35-.72,2l-.15-.32c3.11,1.13,5.84,2.16,7.8,2.91l2.29.92A2.89,2.89,0,0,1,74.7,269.29Z" style="fill:#263238"></path><path d="M55.5,265.1c0-.13,4.39,1.32,9.7,3.24s9.58,3.6,9.53,3.73a97.37,97.37,0,0,1-9.7-3.24A97.87,97.87,0,0,1,55.5,265.1Z" style="fill:#263238"></path><path d="M53.5,272.35,71,278.7a1.33,1.33,0,0,0,1.69-.8h0a1.32,1.32,0,0,0-.79-1.69l-17.5-6.34a1.31,1.31,0,0,0-1.69.79h0A1.31,1.31,0,0,0,53.5,272.35Z" style="fill:#263238"></path><path d="M71.37,278s3.27,6.44,3.43,10.67.14,7.39-1.73,8.73-3.72,1.06-3.91-1.05.58-3.41-.53-5.91-1.91-2.85-1.91-2.85-3.23,6.88-2.41,8.92,5.38,6.78,2.4,8.17-6-1.62-6-1.62-2.85,2.76-6-.64a7.4,7.4,0,0,1-5.88-5.93s-3.92-.57-3.65-4.07a46,46,0,0,1,3.58-13.31,40.61,40.61,0,0,1,2.75-4.54c0-.19,1.9-3.21,1.9-3.21Z" style="fill:#263238"></path><path d="M57.31,292.08a16.4,16.4,0,0,0,3.39,10.77s-.56-.37-1.22-1.21a11.92,11.92,0,0,1-1.93-3.71,12.12,12.12,0,0,1-.55-4.14A4.33,4.33,0,0,1,57.31,292.08Z" style="fill:#455a64"></path><path d="M52.43,288.77a22.77,22.77,0,0,0-.19,7,23.4,23.4,0,0,0,2.4,6.51,5.65,5.65,0,0,1-1.24-1.67,14.58,14.58,0,0,1-1.67-4.76,14.35,14.35,0,0,1,.06-5A5.42,5.42,0,0,1,52.43,288.77Z" style="fill:#455a64"></path><path d="M49.73,286.6c.15,0-.42,2.27-.64,5.06s0,5.08-.17,5.1a13.28,13.28,0,0,1-.35-5.14A13.12,13.12,0,0,1,49.73,286.6Z" style="fill:#455a64"></path><path d="M47.92,282c0-.07,1.11,1,3.2,2.24a43.83,43.83,0,0,0,8.94,3.93l-.32.15a37.13,37.13,0,0,1,1.57-3.72,35.76,35.76,0,0,1,2.23-3.89l.12.38a63.73,63.73,0,0,1-8.68-4c-1-.57-1.85-1.06-2.4-1.41a4.44,4.44,0,0,1-.82-.59,4.2,4.2,0,0,1,.91.44l2.46,1.28a78.81,78.81,0,0,0,8.7,3.8l.3.11L64,281a37.52,37.52,0,0,0-3.75,7.51l-.08.23-.24-.08a39.26,39.26,0,0,1-9-4.14,18.61,18.61,0,0,1-2.3-1.76A4.39,4.39,0,0,1,47.92,282Z" style="fill:#455a64"></path><path d="M69.35,295.19s.12-.34.57-.64a2.83,2.83,0,0,1,2-.38,2.79,2.79,0,0,1,1.75,1.11c.32.44.36.77.3.8s-.23-.24-.57-.56a3,3,0,0,0-3.34-.64C69.65,295.06,69.4,295.25,69.35,295.19Z" style="fill:#455a64"></path><path d="M63.24,304.71c-.06,0-.25-.32-.33-.93a4.21,4.21,0,0,1,.44-2.35A4.13,4.13,0,0,1,65,299.71c.54-.29.93-.33,1-.27a7.73,7.73,0,0,0-2.16,2.23A7.6,7.6,0,0,0,63.24,304.71Z" style="fill:#455a64"></path><path d="M71.84,278.85a18.08,18.08,0,0,1-2.84-.94l-6.77-2.45-6.75-2.52a19.49,19.49,0,0,1-2.76-1.16,15.35,15.35,0,0,1,2.88.82c1.76.57,4.17,1.4,6.81,2.37s5,1.89,6.72,2.6A14.37,14.37,0,0,1,71.84,278.85Z" style="fill:#455a64"></path><path d="M101.3,213c.21.34,17.7,34.23,17.7,34.23s7.2,23.14,12.24,30.07l68.9-41.45-12.4-24.27-21.32-67.26-10.15,2s-48.91,17.55-55.37,20a28.67,28.67,0,0,0-9.8,5.88S93.4,200.46,101.3,213Z" style="fill:#e0e0e0"></path><g style="opacity:0.30000000000000004"><rect x="120.43" y="187.73" width="50.32" height="42.56" rx="6.77" transform="translate(-63.58 63.65) rotate(-20.34)"></rect></g><path d="M95.81,168.74c12.14,3.7,18.41,15.94,23.79,26.42,1.46,2.86,5.78.33,4.31-2.53-6-11.78-13.23-24.59-26.77-28.71-3.08-.94-4.4,3.88-1.33,4.82Z" style="fill:#455a64"></path><rect x="121.16" y="185.88" width="50.32" height="42.56" rx="6.77" transform="translate(-62.89 63.78) rotate(-20.34)" style="fill:#fafafa"></rect><path d="M171,220.72a11.44,11.44,0,0,0,1.53-.87,6.7,6.7,0,0,0,2.64-4.12,6.45,6.45,0,0,0-.25-3.55l-1.53-4.08-3.73-10-4.51-12.06a9.29,9.29,0,0,0-1.54-3.08,6.55,6.55,0,0,0-6.42-2.22,12,12,0,0,0-1.78.59l-1.82.67-31.76,11.8a6.53,6.53,0,0,0-4.22,6.75,7.06,7.06,0,0,0,.53,2l.75,2,1.49,4c2,5.32,3.86,10.44,5.66,15.33.46,1.22.9,2.43,1.34,3.62a13.45,13.45,0,0,0,1.5,3.35,6.55,6.55,0,0,0,6.06,2.67,14.47,14.47,0,0,0,3.21-1l3.08-1.14,5.8-2.13L164.5,223l4.78-1.71,1.24-.44.43-.13a4.22,4.22,0,0,1-.41.18l-1.23.48-4.74,1.81-17.46,6.57-5.79,2.16-3.08,1.15a14.78,14.78,0,0,1-3.3,1,7,7,0,0,1-6.48-2.83,7.23,7.23,0,0,1-.91-1.69l-.66-1.77c-.44-1.19-.89-2.39-1.35-3.61-1.81-4.89-3.72-10-5.69-15.32l-1.49-4-.76-2a7.86,7.86,0,0,1-.55-2.17,6.9,6.9,0,0,1,1-4.39,7.05,7.05,0,0,1,3.53-2.9l31.77-11.76,1.82-.67a12.25,12.25,0,0,1,1.86-.6,7,7,0,0,1,6.86,2.4,9.76,9.76,0,0,1,1.6,3.21L170,198l3.66,10c.53,1.47,1,2.84,1.49,4.1a6.76,6.76,0,0,1,.21,3.67,6.66,6.66,0,0,1-2.78,4.16A5.49,5.49,0,0,1,171,220.72Z" style="fill:#263238"></path><path d="M145.47,212.18,131,217.53a2,2,0,0,1-2.61-1.2h0a2,2,0,0,1,1.2-2.61l14.44-5.35a2,2,0,0,1,2.61,1.19h0A2,2,0,0,1,145.47,212.18Z" style="fill:#e0e0e0"></path><path d="M133.65,221.14a1.7,1.7,0,1,1-2.18-1A1.7,1.7,0,0,1,133.65,221.14Z" style="fill:#e0e0e0"></path><path d="M139.08,219.13a1.7,1.7,0,1,1-2.18-1A1.7,1.7,0,0,1,139.08,219.13Z" style="fill:#e0e0e0"></path><path d="M144.33,217.18a1.7,1.7,0,1,1-2.18-1A1.7,1.7,0,0,1,144.33,217.18Z" style="fill:#e0e0e0"></path><path d="M149.58,215.24a1.69,1.69,0,1,1-2.18-1A1.68,1.68,0,0,1,149.58,215.24Z" style="fill:#e0e0e0"></path><path d="M140.69,199.57l-14.44,5.35a2,2,0,0,1-2.61-1.2h0a2,2,0,0,1,1.2-2.61l14.44-5.35a2,2,0,0,1,2.61,1.2h0A2,2,0,0,1,140.69,199.57Z" style="fill:#e0e0e0"></path><path d="M128.86,208.53a1.69,1.69,0,1,1-2.17-1A1.69,1.69,0,0,1,128.86,208.53Z" style="fill:#455a64"></path><path d="M134.3,206.52a1.7,1.7,0,1,1-2.18-1A1.7,1.7,0,0,1,134.3,206.52Z" style="fill:#A460ED"></path><path d="M139.55,204.57a1.7,1.7,0,1,1-2.18-1A1.7,1.7,0,0,1,139.55,204.57Z" style="fill:#455a64"></path><path d="M144.8,202.63a1.69,1.69,0,1,1-2.18-1A1.69,1.69,0,0,1,144.8,202.63Z" style="fill:#A460ED"></path><path d="M120.15,250.44s22.14-3.09,43.34-13.49,27.71-18.59,27.71-18.59l3.89,7.6S174.4,248,122.53,258.34C122.53,258.34,119.59,252.69,120.15,250.44Z" style="fill:#A460ED"></path><path d="M145.13,184.9a3.14,3.14,0,0,1,.29.63c.18.47.42,1.07.72,1.83l2.55,6.75c2.12,5.78,5,13.66,8.23,22.36.25.68.49,1.36.72,2l.09.24-.24.09-21.1,7.58-6.34,2.21-1.73.58a2.7,2.7,0,0,1-.61.17,2.3,2.3,0,0,1,.57-.26l1.7-.67,6.29-2.37,21-7.73-.16.33c-.23-.62-.47-1.3-.72-2l-8.09-22.41c-1-2.83-1.81-5.15-2.39-6.81l-.63-1.86A4.2,4.2,0,0,1,145.13,184.9Z" style="fill:#263238"></path><g style="opacity:0.30000000000000004"><polygon points="157.4 218.55 156.91 219.88 128.22 230.72 127.71 229.33 157.4 218.55"></polygon></g><rect x="151.5" y="187.8" width="12.06" height="12.06" rx="1.66" transform="translate(-57.56 66.85) rotate(-20.34)" style="fill:#263238"></rect><path d="M166.62,203l-9.32,3.21a1.55,1.55,0,0,1-2-1h0a1.54,1.54,0,0,1,1-2l9.32-3.21a1.55,1.55,0,0,1,2,1h0A1.55,1.55,0,0,1,166.62,203Z" style="fill:#263238"></path><path d="M172.8,207.15a79.71,79.71,0,0,1-8.55,3.38,83.16,83.16,0,0,1-8.72,2.89,78.67,78.67,0,0,1,8.55-3.38A82.3,82.3,0,0,1,172.8,207.15Z" style="fill:#263238"></path><path d="M164.08,217.05a1.64,1.64,0,1,1-1.34-1.89A1.64,1.64,0,0,1,164.08,217.05Z" style="fill:#A460ED"></path><path d="M169.87,215.15a1.64,1.64,0,1,1-3.24-.55,1.64,1.64,0,0,1,3.24.55Z" style="fill:#455a64"></path><polygon points="129.22 248.53 132.32 257.08 137.66 255.63 134.46 246.07 129.22 248.53" style="fill:#e0e0e0"></polygon><polygon points="179.8 226.93 185.28 234.19 189.95 231.23 184.09 223.03 179.8 226.93" style="fill:#e0e0e0"></polygon><path d="M189,214.84a5,5,0,0,1-.59.52c-.43.36-1,.83-1.75,1.42s-1.7,1.37-2.82,2.19-2.38,1.8-3.82,2.79-3,2.11-4.75,3.22-3.6,2.28-5.58,3.49c-4,2.36-8.47,4.81-13.29,7.14s-9.55,4.25-13.89,5.88c-2.19.79-4.25,1.55-6.22,2.16s-3.8,1.2-5.49,1.68-3.22.88-4.57,1.24-2.51.62-3.47.83l-2.21.47a4.4,4.4,0,0,1-.77.13,3.5,3.5,0,0,1,.75-.23l2.18-.57c1-.23,2.11-.53,3.45-.91s2.87-.78,4.54-1.31,3.51-1.06,5.45-1.74,4-1.4,6.19-2.19c4.32-1.66,9-3.62,13.83-5.91s9.28-4.75,13.27-7.08c2-1.2,3.88-2.31,5.59-3.45s3.33-2.17,4.78-3.16,2.72-1.91,3.86-2.71,2.09-1.52,2.87-2.12l1.81-1.34A3.55,3.55,0,0,1,189,214.84Z" style="fill:#263238"></path><path d="M125.47,246c-.12.07-5.57-9.15-12.17-20.6s-11.85-20.78-11.72-20.85,5.57,9.14,12.17,20.59S125.6,245.91,125.47,246Z" style="fill:#263238"></path><path d="M173.46,175a10.91,10.91,0,0,1,.4,1.74c.24,1.21.56,2.82.95,4.76.81,4,2,9.55,3.61,15.6s3.26,11.46,4.53,15.36c.62,1.89,1.13,3.44,1.52,4.61a10.05,10.05,0,0,1,.5,1.71,12.48,12.48,0,0,1-.7-1.64c-.42-1.07-1-2.63-1.67-4.56-1.36-3.88-3.08-9.29-4.68-15.35s-2.75-11.62-3.48-15.66c-.36-2-.63-3.66-.78-4.79A11.37,11.37,0,0,1,173.46,175Z" style="fill:#263238"></path><rect x="143.91" y="243.73" width="7.42" height="8.47" transform="translate(-65.99 53.93) rotate(-16.98)" style="fill:#263238"></rect><path d="M150.62,134.51c-3.4,20-21.94,30.85-41.94,27.45s-33.91-19.77-30.51-39.78a36.75,36.75,0,0,1,72.45,12.33Z" style="fill:#e0e0e0"></path><path d="M150.62,134.51s0-.2,0-.59.1-1,.17-1.71c0-.38.09-.8.14-1.26s0-1,0-1.53a28.18,28.18,0,0,0-.1-3.81c-.07-.71-.12-1.47-.22-2.26s-.3-1.6-.46-2.45a19.36,19.36,0,0,0-.68-2.64,20.4,20.4,0,0,0-.93-2.8,36.3,36.3,0,0,0-7.19-11.69,35.8,35.8,0,0,0-22.67-11.63,35.72,35.72,0,0,0-9.84.13l-2.51.46c-.83.17-1.65.46-2.48.68l-1.25.36-1.22.48c-.81.34-1.64.62-2.44,1a38,38,0,0,0-9,5.95l-2,1.91c-.6.7-1.22,1.4-1.83,2.1a24.92,24.92,0,0,0-1.69,2.25l-.82,1.15c-.25.4-.47.82-.71,1.23-.44.84-1,1.62-1.36,2.51L80.45,115a39.6,39.6,0,0,0-1.65,5.57,33,33,0,0,0,2.56,22.13,35,35,0,0,0,14.75,14.75A41.69,41.69,0,0,0,105.3,161l2.33.5,1.16.25,1.16.14,2.29.3c.76.06,1.52.07,2.27.11a42.37,42.37,0,0,0,8.67-.58l2-.47a15.22,15.22,0,0,0,2-.52,31.49,31.49,0,0,0,3.69-1.33,33.08,33.08,0,0,0,11.27-7.8,30.67,30.67,0,0,0,5.79-8.62,19.12,19.12,0,0,0,.81-1.86c.21-.6.4-1.16.58-1.69s.36-1,.48-1.45.2-.86.29-1.23c.17-.72.3-1.28.4-1.67s.15-.57.15-.57,0,.2-.1.58-.2,1-.35,1.68c-.08.38-.17.79-.26,1.25s-.3.93-.46,1.46-.36,1.1-.56,1.7a18.22,18.22,0,0,1-.8,1.88,30.47,30.47,0,0,1-5.75,8.74A33.29,33.29,0,0,1,131,159.73a32.77,32.77,0,0,1-3.72,1.37,14.81,14.81,0,0,1-2,.53l-2,.48a41.82,41.82,0,0,1-8.76.62c-.76,0-1.53,0-2.3-.1l-2.32-.29-1.17-.15-1.17-.24-2.35-.51a41.61,41.61,0,0,1-9.3-3.59,35.32,35.32,0,0,1-15-14.94,33.49,33.49,0,0,1-2.61-22.47A40.3,40.3,0,0,1,80,114.79c.4-.89.8-1.77,1.19-2.66a28.49,28.49,0,0,1,1.39-2.54c.24-.42.46-.84.72-1.25l.83-1.17a24.05,24.05,0,0,1,1.71-2.27l1.86-2.14,2-1.93a38.38,38.38,0,0,1,9.11-6c.81-.4,1.66-.68,2.47-1l1.24-.48,1.27-.37c.84-.22,1.67-.52,2.52-.68l2.54-.47a36.58,36.58,0,0,1,10-.11,36.25,36.25,0,0,1,22.89,11.84,36.47,36.47,0,0,1,7.2,11.84,20.05,20.05,0,0,1,.91,2.82,20.23,20.23,0,0,1,.66,2.66c.16.87.31,1.69.45,2.48s.13,1.56.19,2.28a26.37,26.37,0,0,1,.06,3.83c0,.55,0,1.06-.06,1.53s-.11.88-.16,1.26c-.1.74-.18,1.31-.23,1.71S150.62,134.51,150.62,134.51Z" style="fill:#263238"></path><g style="opacity:0.30000000000000004"><path d="M125.73,93.37s-41.32-1.93-34.38,42.89h0a26.39,26.39,0,0,0,13.79,12.22c11.76,4.49,31.52,8,44.68-11.28l.55-1.2S157.38,105.25,125.73,93.37Z"></path></g><path d="M109.1,143.56a73.68,73.68,0,0,1-8.16-9.92,26,26,0,0,1-4.39-11.93c0-.65,0-5.16.59-5.38.44-.15,1,3.81,1.34,4.07A22,22,0,0,1,106.13,131a58.56,58.56,0,0,1,3,12.54" style="fill:#263238"></path><path d="M133.87,150.12s8.93-2.94,10.37-6.85a11.31,11.31,0,0,0-.28-8.14c-1.79-4.64-6.25-13.92-10.39-22.26a19.2,19.2,0,0,0-24.33-9.3l-.92.36c-9.73,4.56-11.29,15.37-6.47,25l11,21.81s6.87,1.74,11.38,1.26A76.53,76.53,0,0,0,133.87,150.12Z" style="fill:#ffbf9d"></path><path d="M134.76,123.07A1.46,1.46,0,0,1,134,125a1.41,1.41,0,0,1-1.9-.67,1.47,1.47,0,0,1,.77-1.9A1.39,1.39,0,0,1,134.76,123.07Z" style="fill:#263238"></path><path d="M133.22,117.91c-.09.25-1.44-.11-2.91.48s-2.25,1.76-2.48,1.65-.07-.44.27-1a4,4,0,0,1,1.9-1.54,3.86,3.86,0,0,1,2.4-.16C133,117.54,133.28,117.8,133.22,117.91Z" style="fill:#263238"></path><path d="M121.7,128.86a1.48,1.48,0,0,1-.77,1.91,1.41,1.41,0,0,1-1.9-.67,1.48,1.48,0,0,1,.77-1.91A1.41,1.41,0,0,1,121.7,128.86Z" style="fill:#263238"></path><path d="M118.94,124c-.1.24-1.44-.11-2.91.48s-2.26,1.76-2.49,1.64-.07-.44.27-1a4.06,4.06,0,0,1,1.9-1.53,3.88,3.88,0,0,1,2.41-.16C118.71,123.63,119,123.89,118.94,124Z" style="fill:#263238"></path><path d="M128.73,133.21a10.37,10.37,0,0,1,2.21-1.39c.37-.19.69-.4.65-.68s-.34-.65-.69-1l-2.26-2.42c-3.16-3.45-5.62-6.36-5.48-6.48s2.82,2.57,6,6c.78.85,1.51,1.67,2.22,2.45a2.34,2.34,0,0,1,.78,1.4,1,1,0,0,1-.4.79,3,3,0,0,1-.6.35A10.7,10.7,0,0,1,128.73,133.21Z" style="fill:#263238"></path><path d="M117.58,119.22c0,.45-1.64.63-3.39,1.28s-3.1,1.51-3.43,1.19c-.15-.16,0-.61.5-1.16a6.29,6.29,0,0,1,5.19-1.88C117.18,118.75,117.59,119,117.58,119.22Z" style="fill:#263238"></path><path d="M131.57,113.56c-.17.46-1.51.61-2.94,1.19s-2.56,1.32-3,1.09c-.19-.12-.14-.53.26-1.06a5.06,5.06,0,0,1,2.15-1.54,4.87,4.87,0,0,1,2.61-.3C131.32,113.07,131.63,113.34,131.57,113.56Z" style="fill:#263238"></path><path d="M105.46,135.68c-.19,0-7.35.68-4.53,7.14s9.14,2,9.07,1.81S105.46,135.68,105.46,135.68Z" style="fill:#ffbf9d"></path><path d="M106.54,143.34s-.08.13-.23.3a1.25,1.25,0,0,1-.83.38,3,3,0,0,1-2.38-1.93,3.92,3.92,0,0,1-.39-1.75,1.42,1.42,0,0,1,.47-1.24.63.63,0,0,1,.8,0c.16.14.18.29.22.29s.09-.17-.08-.42a.8.8,0,0,0-.43-.29.91.91,0,0,0-.69.11,1.68,1.68,0,0,0-.74,1.51,4.2,4.2,0,0,0,.39,2c.61,1.28,1.81,2.21,2.86,2.07a1.32,1.32,0,0,0,1-.62C106.6,143.5,106.57,143.34,106.54,143.34Z" style="fill:#ff9a6c"></path><path d="M124.64,104.07c.78-1-3.85-3-6.93-3-4.65,0-11,1.54-14.16,4.15-3.75,3.14-6.37,6.87-6.77,11.74a27.72,27.72,0,0,0,2.93,14.2,8.47,8.47,0,0,0,2.67,3.53c1.53,1,3.66,1.14,4.46,3.14a3,3,0,0,0,1.55,1.67c1.74.72,2.65-1.1,2.79-2.57.29-3.16-.9-6.24-2.07-9.18a20.49,20.49,0,0,0-3.14-5.94c-.8-.94-1.76-1.72-2.5-2.7a4.24,4.24,0,0,1-1-3.42,4.11,4.11,0,0,1,.28-.76,7.35,7.35,0,0,1,6.1-4.24c4.2-.34,11.24-1.19,12.31-3.15a11.06,11.06,0,0,0,1.58-4.21Z" style="fill:#263238"></path><g style="opacity:0.30000000000000004"><path d="M150.09,149.65,108,167.48a23,23,0,0,0,12.17,1.46,63.18,63.18,0,0,0,12-3.1,50.05,50.05,0,0,0,9.32-3.87,17.71,17.71,0,0,0,7.07-7A15.44,15.44,0,0,0,150.09,149.65Z"></path></g><path d="M102.91,163.3l-.61-1.43,1.07-1.21s7.78,2.53,23.55-2.28c16.57-5,19.55-12.71,19.55-12.71l1.8-.53L150,149s-3.36,11.28-23,16.42c-9.58,2.5-15.29,2.63-18.62,2.1A7,7,0,0,1,102.91,163.3Z" style="fill:#e0e0e0"></path><path d="M102.91,163.3s.16.35.56,1a7.11,7.11,0,0,0,2.25,2.2,7.22,7.22,0,0,0,2.11.85,18.23,18.23,0,0,0,2.73.3,38.39,38.39,0,0,0,6.69-.4,79.21,79.21,0,0,0,8-1.58,60.67,60.67,0,0,0,8.88-2.9,35.66,35.66,0,0,0,8.87-5.21,27.37,27.37,0,0,0,3.87-3.82,17.24,17.24,0,0,0,2.83-4.76v.18l-.35-.81L148,145.24l.31.14-1.8.54.17-.15a13.36,13.36,0,0,1-2.49,3.44,23.79,23.79,0,0,1-3.1,2.7,37.54,37.54,0,0,1-6.77,3.92,67.67,67.67,0,0,1-13.15,4.28c-8.14,1.8-14.63,1.58-17.86.63l.09,0-1.08,1.19v-.06l.43,1.09a2.37,2.37,0,0,1,.12.36,2,2,0,0,1-.18-.34c-.12-.26-.28-.61-.48-1.07l0,0,0,0,1-1.22,0,0,0,0c3.2.84,9.65,1,17.72-.88a68.42,68.42,0,0,0,13-4.31,38.25,38.25,0,0,0,6.66-3.89,23.67,23.67,0,0,0,3-2.65,13,13,0,0,0,2.39-3.28l.05-.12.11,0,1.8-.53.22-.07.1.21c.43,1,.88,2,1.33,3.08l.35.8,0,.1,0,.08a22,22,0,0,1-6.88,8.83,35.8,35.8,0,0,1-9,5.25,60.66,60.66,0,0,1-9,2.88,76.74,76.74,0,0,1-8,1.52,38.59,38.59,0,0,1-6.76.33,17.31,17.31,0,0,1-2.76-.35,7,7,0,0,1-4.4-3.23A4.7,4.7,0,0,1,102.91,163.3Z" style="fill:#263238"></path><path d="M125.73,93.37s1.31.43,3.65,1.47l1.94.91L133.57,97c.8.48,1.63,1,2.52,1.61s1.8,1.25,2.68,2.05a33.4,33.4,0,0,1,9.93,13.73,37.79,37.79,0,0,1,2.4,10.16,40.28,40.28,0,0,1-.5,11.52v0l-.55,1.2v0l0,0a34.72,34.72,0,0,1-14.09,12.22,35.4,35.4,0,0,1-20.13,2.11,54.64,54.64,0,0,1-9.37-2.46A26.56,26.56,0,0,1,92.07,138c-.2-.31-.4-.63-.57-.95l-.27-.49-.07-.12,0,0s-.06-.17,0-.11v-.07l0-.28c-.09-.72-.17-1.45-.25-2.17-.2-1.44-.25-2.87-.33-4.29s0-2.82,0-4.2.18-2.74.29-4.08c.11-.66.21-1.32.31-2l.16-1,.22-1q.23-1,.45-1.89c.2-.61.4-1.22.59-1.82.11-.3.19-.6.3-.89l.37-.87c.25-.56.46-1.14.74-1.69A28.54,28.54,0,0,1,95.67,107a31,31,0,0,1,2-2.77,30.4,30.4,0,0,1,2.31-2.36,29.45,29.45,0,0,1,2.42-2c.85-.57,1.66-1.16,2.51-1.62a33.12,33.12,0,0,1,4.92-2.35,40,40,0,0,1,8.44-2.16,41.13,41.13,0,0,1,5.49-.44c.63,0,1.11,0,1.43,0l.49,0h-.49l-1.43,0a46.85,46.85,0,0,0-5.46.54A40.39,40.39,0,0,0,110,96.18a33.74,33.74,0,0,0-4.86,2.36c-.84.46-1.63,1.06-2.47,1.62a27.27,27.27,0,0,0-2.38,2A29.68,29.68,0,0,0,98,104.49a30.15,30.15,0,0,0-2,2.74,29.47,29.47,0,0,0-1.75,3.07c-.26.54-.47,1.12-.72,1.68l-.36.85c-.1.29-.19.59-.29.88-.19.6-.38,1.19-.58,1.8s-.29,1.24-.43,1.87l-.22.94-.15,1-.3,2c-.11,1.32-.25,2.67-.28,4s-.09,2.76,0,4.16.13,2.83.33,4.26c.09.71.17,1.43.25,2.16l0,.27v.07c0,.08,0-.08,0-.05v0l.07.12.27.47c.17.32.37.63.56.94a26.15,26.15,0,0,0,14.1,11,54.07,54.07,0,0,0,9.28,2.43,34.88,34.88,0,0,0,19.84-2.06,34.21,34.21,0,0,0,13.91-12l0,0c.2-.42.39-.84.55-1.2v0a39.55,39.55,0,0,0,.52-11.37,37.22,37.22,0,0,0-2.32-10.06,33.41,33.41,0,0,0-9.75-13.65c-.87-.8-1.82-1.41-2.64-2.07s-1.71-1.13-2.49-1.62l-2.23-1.26-1.91-1c-1.14-.58-2.07-.9-2.67-1.18l-.69-.3Z" style="fill:#263238"></path><path d="M94.52,135.71c.9,3-.48,6.12-3.09,6.89s-5.47-1-6.37-4.07.49-6.11,3.1-6.89S93.62,132.69,94.52,135.71Z" style="fill:#e0e0e0"></path><path d="M94.52,135.71s-.18-.44-.59-1.16a5.89,5.89,0,0,0-2.48-2.39,4.68,4.68,0,0,0-2.3-.47,4.14,4.14,0,0,0-2.44,1,5.86,5.86,0,0,0,2.91,9.78,4.25,4.25,0,0,0,2.61-.47,4.77,4.77,0,0,0,1.66-1.65,6.09,6.09,0,0,0,.78-3.37c-.06-.83-.2-1.28-.15-1.3s.07.11.14.32a5.69,5.69,0,0,1,.21,1,5.9,5.9,0,0,1-.66,3.56,4.92,4.92,0,0,1-1.77,1.84,4.57,4.57,0,0,1-2.88.57,6.29,6.29,0,0,1-3.17-10.61,4.55,4.55,0,0,1,2.73-1.1,5,5,0,0,1,2.49.57,5.84,5.84,0,0,1,2.5,2.62,5.21,5.21,0,0,1,.35.93C94.52,135.59,94.54,135.71,94.52,135.71Z" style="fill:#263238"></path><path d="M143.19,112.31c-2.54-8-9.45-14.71-17.73-16.09a1.94,1.94,0,0,0-1.42.19,1.71,1.71,0,0,0-.83,1.59c.37,3,7.59,3.31,10.39,6.4s4.68,6.56,6.8,10.15c.32.55.71,1.15,1.33,1.28a1.58,1.58,0,0,0,1.7-1.24A4.17,4.17,0,0,0,143.19,112.31Z" style="fill:#fff"></path><path d="M148.32,145.44a2.72,2.72,0,0,1-.18.5c-.14.32-.35.78-.67,1.36a19.88,19.88,0,0,1-3.37,4.46,19.21,19.21,0,0,1-3,2.41,40.8,40.8,0,0,1-3.81,2.27,53,53,0,0,1-9.36,3.9,77.4,77.4,0,0,1-9.89,2.24,46.34,46.34,0,0,1-8.25.77,20.42,20.42,0,0,1-5.54-.74,13.17,13.17,0,0,1-1.43-.51,1.89,1.89,0,0,1-.48-.23c0-.05.7.23,2,.55a22.62,22.62,0,0,0,5.48.57,49.87,49.87,0,0,0,8.17-.88,83.23,83.23,0,0,0,9.81-2.27A54.47,54.47,0,0,0,137,156q2.06-1.08,3.8-2.21a19.18,19.18,0,0,0,3-2.31,21.37,21.37,0,0,0,3.45-4.3C148,146.08,148.27,145.42,148.32,145.44Z" style="fill:#263238"></path><path d="M130.27,136.74a1.45,1.45,0,0,0-1.6,0,1.53,1.53,0,0,0-.64,1.47,1.63,1.63,0,0,0,1,1.26,1.51,1.51,0,0,0,1.75-.44A1.86,1.86,0,0,0,130.27,136.74Z" style="fill:#ff9a6c"></path><path d="M130.86,138.92s-.07.44-.65.8a1.48,1.48,0,0,1-1.2.15,2.08,2.08,0,0,1-1-1,2.22,2.22,0,0,1-.22-1.43,1.74,1.74,0,0,1,.72-1,1.32,1.32,0,0,1,.77-.16c.17,0,.27,0,.27.08s-.42.09-.83.39a1.56,1.56,0,0,0-.46.76,2.07,2.07,0,0,0,.22,1.09,1.74,1.74,0,0,0,.76.8,1.13,1.13,0,0,0,.85,0C130.56,139.18,130.79,138.87,130.86,138.92Z" style="fill:#263238"></path><path d="M156.27,146.27c.35-.29,13.27-4.49,23.33-.32,6.31,2.61,20.11,10.31,29.63,19.65s25.93,28.6,26.42,31.11a8.75,8.75,0,0,1-.37,4.56l4.95,9-13.44,10.92-6.39-6.45s-3.53,0-8.08-4.69-14-20.62-19.81-24.64-24.79-11.68-26.46-12.06S156.27,146.27,156.27,146.27Z" style="fill:#e0e0e0"></path><path d="M221.82,216.14a20.9,20.9,0,0,1,2.35-2.12c1.5-1.28,3.61-3,6-5l0,.36-1.26-1.55-.48-.59.36,0c-2.74,2-5.21,3.84-7,5.12-.9.64-1.63,1.15-2.14,1.49l-.59.39c-.08,0-.1.09-.2.07s0,0,0,0,0,0,.08,0,0-.07.09-.14l.54-.45c.47-.4,1.16-1,2-1.62,1.74-1.36,4.17-3.21,6.9-5.25l.2-.15.16.19.48.6c.43.53.85,1.05,1.26,1.54l.16.2-.2.16c-2.43,2-4.58,3.67-6.14,4.88A19.88,19.88,0,0,1,221.82,216.14Z" style="fill:#263238"></path><path d="M238.13,206.06a82,82,0,0,1-7.08,6.09,83.69,83.69,0,0,1-7.42,5.69,83.42,83.42,0,0,1,7.09-6.09A85.14,85.14,0,0,1,238.13,206.06Z" style="fill:#263238"></path><path d="M204.26,161.11a18,18,0,0,1-1.74,2.35c-1.11,1.42-2.64,3.38-4.25,5.6-1.16,1.59-2.21,3.1-3.08,4.36l-.11.16-.16-.08c-1.26-.6-2.3-1.11-3-1.48a5.53,5.53,0,0,1-1.1-.64,4.86,4.86,0,0,1,1.21.41c.75.3,1.82.75,3.09,1.31l-.27.08c.82-1.3,1.85-2.83,3-4.43,1.62-2.23,3.2-4.16,4.39-5.53A14.8,14.8,0,0,1,204.26,161.11Z" style="fill:#263238"></path><path d="M199.15,157.53a12.27,12.27,0,0,1-1.32,2c-.84,1.19-2,2.85-3.21,4.72s-2.23,3.62-3,4.89a13.12,13.12,0,0,1-1.26,2,9.93,9.93,0,0,1,.93-2.2,56.48,56.48,0,0,1,6.21-9.66A9.74,9.74,0,0,1,199.15,157.53Z" style="fill:#263238"></path><path d="M198,156.13a4.7,4.7,0,0,1-.61,1c-.43.6-1,1.48-1.76,2.57a84.26,84.26,0,0,0-5.19,8.83,85.64,85.64,0,0,0-4.06,9.41c-.45,1.24-.79,2.24-1,2.94a4.15,4.15,0,0,1-.42,1.07,5.34,5.34,0,0,1,.23-1.13c.17-.72.47-1.74.87-3a68.13,68.13,0,0,1,4-9.52,67.1,67.1,0,0,1,5.34-8.81c.78-1.07,1.43-1.92,1.91-2.48A4.85,4.85,0,0,1,198,156.13Z" style="fill:#263238"></path><path d="M192.58,154.62c.07,0-1,1.27-2.44,3.34A66.14,66.14,0,0,0,181,175.59c-.82,2.41-1.23,3.94-1.32,3.92a5.37,5.37,0,0,1,.19-1.1c.15-.7.41-1.71.78-2.94a55.74,55.74,0,0,1,9.18-17.73c.79-1,1.46-1.81,1.95-2.34S192.55,154.59,192.58,154.62Z" style="fill:#263238"></path><g style="opacity:0.30000000000000004"><path d="M189.05,150.78c-2.41,5.06-4.15,8.06-6.56,13.12a1.09,1.09,0,0,1-1.79.59l-5.58-2.55a3,3,0,0,1-1.23-.83,2.88,2.88,0,0,1-.33-2.05,31.82,31.82,0,0,1,5-13.5s2,.72,5.19,2.29A58.53,58.53,0,0,1,189.05,150.78Z"></path></g><path d="M241.61,212.33l-13.59,11a1.23,1.23,0,0,1-1.75-.18h0a1.24,1.24,0,0,1,.18-1.75l13.6-11a1.24,1.24,0,0,1,1.75.19h0A1.24,1.24,0,0,1,241.61,212.33Z" style="fill:#263238"></path><path d="M227.75,222.92s-.32,6.25,1,9.66,2.49,5.89,4.45,6.3,3.31-.47,2.72-2.21-1.66-2.5-1.66-4.87.51-2.93.51-2.93,5,4.31,5.05,6.22-1.88,7.26,1,7.31S245,239,245,239s3.23,1.17,4.52-2.62a6.42,6.42,0,0,0,2.57-6.77s2.9-1.84,1.46-4.51a40.07,40.07,0,0,0-7.53-9.28,36.6,36.6,0,0,0-3.78-2.63c-.11-.13-1.15-1.51-1.15-1.51Z" style="fill:#263238"></path><path d="M243.83,229.1a9.46,9.46,0,0,1,1.11,9.72,14.67,14.67,0,0,0-1.11-9.72Z" style="fill:#455a64"></path><path d="M246.54,224.76s.57.41,1.22,1.33a12.39,12.39,0,0,1,2.18,8.34,4.36,4.36,0,0,1-.42,1.77,20.75,20.75,0,0,0-.43-6A21.37,21.37,0,0,0,246.54,224.76Z" style="fill:#455a64"></path><path d="M247.91,222.09a10.5,10.5,0,0,1,2.71,3.55,10.69,10.69,0,0,1,1.51,4.21c-.15,0-.8-1.83-2-4S247.79,222.19,247.91,222.09Z" style="fill:#455a64"></path><path d="M247.73,217.83a2.75,2.75,0,0,1-.29.86,17.19,17.19,0,0,1-1.19,2.21,34.38,34.38,0,0,1-5.63,6.45l-.19.16-.17-.17a32,32,0,0,0-2.53-2.35,33.26,33.26,0,0,0-3.07-2.28l-.27-.17.23-.22a68.81,68.81,0,0,0,5.56-6.07c1.3-1.59,2-2.57,2.08-2.53a3.73,3.73,0,0,1-.44.75c-.3.48-.77,1.15-1.39,2a55.11,55.11,0,0,1-5.46,6.23l0-.39a30.9,30.9,0,0,1,3.14,2.3,35,35,0,0,1,2.56,2.39h-.36a38.1,38.1,0,0,0,5.7-6.25C247.18,219,247.66,217.8,247.73,217.83Z" style="fill:#455a64"></path><path d="M235.4,235.8c0,.14-1.14-.19-2.15.51s-1.09,1.86-1.23,1.83-.16-.28-.07-.74a2.46,2.46,0,0,1,1-1.52,2.49,2.49,0,0,1,1.77-.41C235.19,235.56,235.42,235.74,235.4,235.8Z" style="fill:#455a64"></path><path d="M243.59,241.19c-.15,0-.39-1.26-1.55-2.18a7.34,7.34,0,0,0-2.47-1c0-.07.32-.18.85-.15a3.57,3.57,0,0,1,3.12,2.5C243.69,240.84,243.65,241.18,243.59,241.19Z" style="fill:#455a64"></path><path d="M242.05,212.14a81.18,81.18,0,0,1-7,5.85,80.2,80.2,0,0,1-7.33,5.44,81.18,81.18,0,0,1,7-5.85A79.54,79.54,0,0,1,242.05,212.14Z" style="fill:#455a64"></path><path d="M198.43,191.74c8.35-3.15,16-9.31,19.16-17.65l-2.73-3a28,28,0,0,1-19,17.33Z" style="fill:#A460ED"></path><path d="M213.25,169.37a4.52,4.52,0,0,1-.36,1,19.94,19.94,0,0,1-1.3,2.51,27.92,27.92,0,0,1-6.13,7,39.11,39.11,0,0,1-7.87,5c-1.07.52-2,.91-2.58,1.15a4.28,4.28,0,0,1-1,.33c0-.08,1.31-.69,3.4-1.81a45.31,45.31,0,0,0,7.71-5.08,31.12,31.12,0,0,0,6.15-6.83C212.56,170.68,213.16,169.33,213.25,169.37Z" style="fill:#263238"></path><path d="M219.65,177.13a4.37,4.37,0,0,1-.36,1,20.63,20.63,0,0,1-1.3,2.52,27.92,27.92,0,0,1-6.13,7,39.39,39.39,0,0,1-7.87,5c-1.08.52-2,.91-2.58,1.15a4.64,4.64,0,0,1-1,.33c0-.08,1.31-.69,3.4-1.81a46.57,46.57,0,0,0,7.71-5.08,31.34,31.34,0,0,0,6.15-6.83C219,178.44,219.56,177.09,219.65,177.13Z" style="fill:#263238"></path><path d="M159.41,145.38a8.42,8.42,0,0,1,.25,1.5c.11,1,.33,2.35.67,4.05a46.36,46.36,0,0,0,1.58,5.86,45.62,45.62,0,0,0,3,6.8,46.09,46.09,0,0,0,4.13,6.18,44.46,44.46,0,0,0,4.12,4.46c1.26,1.18,2.32,2.1,3.09,2.7a9.35,9.35,0,0,1,1.14,1,8.06,8.06,0,0,1-1.27-.82,34.61,34.61,0,0,1-3.21-2.59,40.81,40.81,0,0,1-4.25-4.43,44.2,44.2,0,0,1-4.21-6.23,43.49,43.49,0,0,1-3-6.9A41.48,41.48,0,0,1,160,151a33.74,33.74,0,0,1-.51-4.1A8.74,8.74,0,0,1,159.41,145.38Z" style="fill:#263238"></path><path d="M168,144.13a8.94,8.94,0,0,1,.06,1.41c0,.9,0,2.21.15,3.81s.32,3.52.65,5.62a65.61,65.61,0,0,0,1.53,6.74,67.11,67.11,0,0,0,2.32,6.52c.85,2,1.68,3.68,2.46,5.09s1.43,2.54,1.92,3.3a7,7,0,0,1,.69,1.23,9,9,0,0,1-.86-1.11c-.54-.73-1.25-1.84-2.07-3.24a50.47,50.47,0,0,1-2.58-5.08,57.78,57.78,0,0,1-2.38-6.56,58.83,58.83,0,0,1-1.5-6.82,51.18,51.18,0,0,1-.55-5.67,35.86,35.86,0,0,1,0-3.83A6.47,6.47,0,0,1,168,144.13Z" style="fill:#263238"></path><path d="M206.2,241.32s5-2.81,8-1.21,15.61,10.64,15,12.26-1.47,5.28-1.47,5.28Z" style="fill:#455a64"></path><path d="M207.12,354.05c-.14-.49-12.05-16-12.05-16l-9.62-21-5-14.34s2.79-3.15-1.8-6L177,288.86l-54.27-30.48s-.86,20.14,7.56,28.53c2.53,2.53,6.26,20.76,12,31.14s19.21,28.06,20.93,31.46S180,371.65,186,377.58c7.15,7,20.16,22.15,20.16,22.15l19.29-15S207.27,354.54,207.12,354.05Z" style="fill:#e0e0e0"></path><path d="M207.79,241.92c1.08,0,30.53,21.31,35.76,28.11s11.37,26.84,12.33,30.64,11.73,52.16,12,53.51-10.66,12.44-22.5,10.28L236.78,348s-9.57-17.66-11.5-22.95l-1.94-5.29-7.67-18-8.45-8.9a4.64,4.64,0,0,1-3-3.19l-5.36-5.65-11.34-2.84s-4.82-7.81-2.47-22,14.42-24.71,14.42-24.71Z" style="fill:#e0e0e0"></path><path d="M153.2,335a4.47,4.47,0,0,1,.92-1.17,24.09,24.09,0,0,1,3-2.7,49.13,49.13,0,0,1,11.75-6.37c1.23-.44,2.41-.92,3.6-1.27a33,33,0,0,1,3.47-.85,41.32,41.32,0,0,1,6-.66A38,38,0,0,1,186,322a5.61,5.61,0,0,1,1.48.19s-.53,0-1.49,0-2.33,0-4,.11a45,45,0,0,0-5.91.76,39.85,39.85,0,0,0-7,2.14,53.8,53.8,0,0,0-11.72,6.17,33.34,33.34,0,0,0-3.12,2.55C153.57,334.58,153.23,335,153.2,335Z" style="fill:#263238"></path><path d="M156.05,339a46.33,46.33,0,0,1,16.22-10.19,67,67,0,0,1,16.88-3.6l1.26,2.74s-11.54,2.27-16.29,4c-5.92,2.2-16.23,9.65-16.23,9.65Z" style="fill:#A460ED"></path><path d="M204,289.82a9.87,9.87,0,0,1,.18-1.68,15.92,15.92,0,0,1,.35-1.94c.18-.75.34-1.62.64-2.55a30.63,30.63,0,0,1,1-3c.37-1.08.91-2.19,1.45-3.36a44.59,44.59,0,0,1,4.42-7.1,45.47,45.47,0,0,1,5.77-6.06c1-.81,1.93-1.61,2.88-2.24a29.29,29.29,0,0,1,2.67-1.74,25,25,0,0,1,2.3-1.26,16.41,16.41,0,0,1,1.79-.83,11.1,11.1,0,0,1,1.58-.6,9.93,9.93,0,0,1-1.49.78c-.49.23-1.09.52-1.75.91s-1.45.77-2.24,1.31-1.71,1.08-2.61,1.78-1.84,1.44-2.82,2.25a47.87,47.87,0,0,0-5.67,6,47.27,47.27,0,0,0-4.4,7c-.55,1.15-1.09,2.23-1.48,3.3s-.77,2-1.07,3-.5,1.76-.7,2.5a16.09,16.09,0,0,0-.44,1.92A13.45,13.45,0,0,1,204,289.82Z" style="fill:#263238"></path><path d="M207.55,293a9.78,9.78,0,0,1,.18-1.68,16.18,16.18,0,0,1,.36-1.94,24.34,24.34,0,0,1,.64-2.55,30.42,30.42,0,0,1,1-3c.38-1.09.92-2.19,1.45-3.36a45.42,45.42,0,0,1,4.43-7.1,44.21,44.21,0,0,1,5.76-6.06c1-.81,1.93-1.61,2.89-2.24a26.08,26.08,0,0,1,2.66-1.74c.82-.53,1.62-.9,2.3-1.26a15.64,15.64,0,0,1,1.8-.83,10.79,10.79,0,0,1,1.57-.6,10.46,10.46,0,0,1-1.49.78c-.49.23-1.08.52-1.74.91s-1.45.77-2.25,1.31a31.2,31.2,0,0,0-2.6,1.78c-.93.64-1.84,1.44-2.82,2.25a42.86,42.86,0,0,0-10.08,13c-.54,1.15-1.09,2.23-1.47,3.29a31.17,31.17,0,0,0-1.07,3c-.33.91-.51,1.76-.71,2.5s-.34,1.39-.44,1.92A9.93,9.93,0,0,1,207.55,293Z" style="fill:#263238"></path><polyline points="131.29 276.58 127.48 268.82 172.34 246.17 197.59 234.17 200.14 235.85 187.49 281.22 179.89 284.86 177.68 289.69 130.75 278.02" style="fill:#e0e0e0"></polyline><path d="M202.54,238a16.18,16.18,0,0,1-1.44,1.12,39.08,39.08,0,0,0-3.76,3.26,35.86,35.86,0,0,0-10.52,29.84,41.06,41.06,0,0,0,.88,4.9,15.51,15.51,0,0,1,.43,1.78s-.08-.14-.19-.44-.27-.72-.43-1.29a31.38,31.38,0,0,1-1-4.9,34.92,34.92,0,0,1,10.62-30.15A32.34,32.34,0,0,1,201,239c.48-.35.88-.57,1.14-.74S202.53,238,202.54,238Z" style="fill:#263238"></path><path d="M178.89,287a1.88,1.88,0,0,1-.42-.24l-1.15-.76c-.49-.34-1.09-.75-1.83-1.17s-1.53-1-2.49-1.44-2-1.05-3.11-1.54-2.39-1-3.7-1.52a56.87,56.87,0,0,0-8.83-2.36,56,56,0,0,0-9.1-.74c-1.41,0-2.75.05-4,.19s-2.41.25-3.46.41-2,.36-2.83.51-1.54.34-2.11.49l-1.34.33a1.9,1.9,0,0,1-.47.09s.14-.08.44-.19l1.31-.42a20.19,20.19,0,0,1,2.11-.58c.83-.19,1.77-.45,2.83-.6s2.22-.37,3.48-.47,2.6-.19,4-.24a53.75,53.75,0,0,1,9.2.71,54.34,54.34,0,0,1,8.91,2.42c1.32.53,2.58,1,3.71,1.58a34.35,34.35,0,0,1,3.11,1.61c.95.5,1.75,1.06,2.47,1.51a20.35,20.35,0,0,1,1.79,1.25l1.09.85C178.78,286.85,178.9,287,178.89,287Z" style="fill:#263238"></path><path d="M138.76,309.33a12.41,12.41,0,0,1,1.09-1.35,16,16,0,0,1,1.39-1.5c.57-.55,1.19-1.22,2-1.85l1.2-1c.42-.35.9-.67,1.37-1,.93-.73,2-1.37,3.14-2.08a40.61,40.61,0,0,1,16.27-5.42c1.33-.11,2.58-.24,3.76-.22.59,0,1.16,0,1.71,0l1.57.1a25.92,25.92,0,0,1,2.69.3,16.91,16.91,0,0,1,2,.36,12.88,12.88,0,0,1,1.68.43,10.53,10.53,0,0,1-1.72-.23c-.55-.1-1.22-.21-2-.28s-1.67-.21-2.67-.21l-1.56-.06c-.54,0-1.1,0-1.69,0-1.16,0-2.4.15-3.71.27a46.24,46.24,0,0,0-8.32,1.86,45.72,45.72,0,0,0-7.77,3.5c-1.12.68-2.2,1.31-3.13,2-.47.34-.95.65-1.37,1l-1.21,1c-.79.6-1.42,1.25-2,1.78a19.6,19.6,0,0,0-1.44,1.42A9.74,9.74,0,0,1,138.76,309.33Z" style="fill:#263238"></path><path d="M141.42,316.5a9.62,9.62,0,0,1,1.1-1.28l.61-.67.78-.74c.57-.52,1.2-1.14,2-1.73.39-.31.79-.62,1.2-1l1.36-.95c.93-.68,2-1.27,3.11-1.93a48.9,48.9,0,0,1,7.66-3.39,52.52,52.52,0,0,1,8.15-2c1.28-.16,2.49-.35,3.64-.41s2.21-.13,3.18-.14,1.86,0,2.63.06a19.2,19.2,0,0,1,2,.15,10.36,10.36,0,0,1,1.68.25,11.42,11.42,0,0,1-1.69,0c-.54,0-1.2-.07-2-.07s-1.65,0-2.61,0-2,.08-3.16.2-2.33.28-3.59.46a54.93,54.93,0,0,0-8.06,2,52.59,52.59,0,0,0-7.6,3.31c-1.1.66-2.17,1.23-3.1,1.88l-1.36.92-1.21.92c-.78.56-1.43,1.16-2,1.66l-.81.7-.64.63A9,9,0,0,1,141.42,316.5Z" style="fill:#263238"></path><path d="M148.05,325.67a20.09,20.09,0,0,1,1.58-2.83c1-1.72,2.49-4.06,4.12-6.64l3.31-5.13v.22c-.65-1.35-1.17-2.46-1.53-3.25a5.56,5.56,0,0,1-.49-1.27,5.54,5.54,0,0,1,.72,1.15c.42.76,1,1.85,1.69,3.17l.05.11-.07.11-3.23,5.17c-1.63,2.58-3.14,4.89-4.25,6.55A19.54,19.54,0,0,1,148.05,325.67Z" style="fill:#263238"></path><path d="M176,366.76a7.48,7.48,0,0,1,.39-1.29A12.21,12.21,0,0,1,177,364c.26-.56.52-1.22.91-1.9a23.25,23.25,0,0,1,1.3-2.2c.48-.78,1.09-1.56,1.71-2.38a33.69,33.69,0,0,1,4.72-4.79,34.08,34.08,0,0,1,5.62-3.67,27.83,27.83,0,0,1,2.68-1.2,21.85,21.85,0,0,1,2.41-.84,20.46,20.46,0,0,1,2-.52,12,12,0,0,1,1.57-.28,6.08,6.08,0,0,1,1.34-.13c0,.11-1.9.33-4.84,1.28a24.53,24.53,0,0,0-2.36.89c-.85.32-1.7.77-2.62,1.22a36.25,36.25,0,0,0-5.51,3.66,35.64,35.64,0,0,0-4.68,4.68c-.62.8-1.23,1.56-1.72,2.32a23.37,23.37,0,0,0-1.33,2.14C176.67,365,176.08,366.8,176,366.76Z" style="fill:#263238"></path><path d="M180,371a5.71,5.71,0,0,1,.4-1.22,13.59,13.59,0,0,1,.59-1.4c.25-.53.52-1.15.89-1.79a33.12,33.12,0,0,1,2.85-4.39,37.45,37.45,0,0,1,4.36-4.69,37.86,37.86,0,0,1,5.16-3.79,31.5,31.5,0,0,1,4.68-2.32c.68-.3,1.33-.49,1.89-.69a13.23,13.23,0,0,1,1.45-.42,5.66,5.66,0,0,1,1.26-.26c0,.1-1.76.54-4.46,1.71a35.88,35.88,0,0,0-4.57,2.39,40.43,40.43,0,0,0-5.07,3.77,38.86,38.86,0,0,0-4.32,4.6,34.49,34.49,0,0,0-2.9,4.27C180.69,369.33,180.05,371.05,180,371Z" style="fill:#263238"></path><path d="M256.23,303.53a7,7,0,0,1-1.44.18c-.46,0-1,.09-1.69.18s-1.4.16-2.22.32a49.77,49.77,0,0,0-5.7,1.27,55.06,55.06,0,0,0-6.7,2.47,52.83,52.83,0,0,0-6.26,3.43,48.8,48.8,0,0,0-4.71,3.45c-.66.51-1.2,1-1.7,1.47s-.91.83-1.24,1.16a6.83,6.83,0,0,1-1.09,1,9.56,9.56,0,0,1,.94-1.11c.31-.35.71-.77,1.19-1.22s1-1,1.66-1.54A42.57,42.57,0,0,1,232,311a48.48,48.48,0,0,1,6.32-3.5,49.35,49.35,0,0,1,6.78-2.46,45,45,0,0,1,5.78-1.18c.82-.13,1.58-.18,2.24-.24s1.24-.08,1.71-.09A8.53,8.53,0,0,1,256.23,303.53Z" style="fill:#263238"></path><path d="M257.45,308.79a7.47,7.47,0,0,1-1.42.3c-.92.14-2.24.4-3.86.77s-3.52.9-5.6,1.59a63.52,63.52,0,0,0-6.6,2.7,65.48,65.48,0,0,0-6.21,3.51,57.84,57.84,0,0,0-4.72,3.41c-1.29,1-2.32,1.92-3,2.55a7.27,7.27,0,0,1-1.11.93,7.53,7.53,0,0,1,1-1.08,38.11,38.11,0,0,1,2.9-2.68,49.8,49.8,0,0,1,4.7-3.53A51.85,51.85,0,0,1,246.41,311a50.24,50.24,0,0,1,5.68-1.5,37.23,37.23,0,0,1,3.91-.61A8.2,8.2,0,0,1,257.45,308.79Z" style="fill:#263238"></path><path d="M246.73,275.43c-7.37-2-15.75.68-21.28,5.95s-8.71,12.62-10.22,20.11l-2.9-3.21c1.51-7.49,5.15-15.44,10.68-20.71s14.16-8.12,21.53-6.11A23.9,23.9,0,0,1,246.73,275.43Z" style="fill:#A460ED"></path><g style="opacity:0.30000000000000004"><path d="M142.61,315.24c.94.89,3.31.63,4.59-.3,1.61-1.18,3.31-3.86,4.62-4.73,7.61-5,15.2-2.33,25.2-6.4.19-.07.44-.06.57-.23a.55.55,0,0,0-.18-.75,1.45,1.45,0,0,0-.82-.23c-12.37-1.09-24.71,4.08-34,12.64"></path></g><g style="opacity:0.30000000000000004"><path d="M208.07,292.42c3.36-5.93,4-13.33,8.39-18.53,3.77-4.47,9.87-6.71,13-11.65a40.54,40.54,0,0,0-22,29.57"></path></g><path d="M245.24,367.52a28.58,28.58,0,0,0,25.55-12.16,2.5,2.5,0,1,0-4.32-2.52,23.57,23.57,0,0,1-21.23,9.68,2.52,2.52,0,0,0-2.5,2.5,2.55,2.55,0,0,0,2.5,2.5Z" style="fill:#263238"></path><path d="M195.56,228.7a3.71,3.71,0,0,1-.59.53l-1.77,1.44c-.77.63-1.72,1.38-2.86,2.2s-2.4,1.82-3.87,2.8-3.06,2.12-4.82,3.22-3.66,2.28-5.67,3.48c-4.06,2.33-8.62,4.74-13.54,7s-9.74,4.1-14.16,5.63c-2.23.73-4.34,1.45-6.35,2s-3.87,1.1-5.59,1.53-3.28.78-4.65,1.09-2.56.54-3.54.71l-2.25.4a4.55,4.55,0,0,1-.78.1,4,4,0,0,1,.77-.21l2.22-.49c1-.2,2.15-.45,3.51-.79s2.93-.68,4.63-1.17,3.58-1,5.56-1.58,4.09-1.3,6.31-2c4.4-1.56,9.19-3.43,14.11-5.65s9.44-4.64,13.51-7c2-1.18,3.93-2.29,5.68-3.42s3.37-2.17,4.84-3.16,2.76-1.92,3.91-2.73,2.12-1.53,2.9-2.13l1.83-1.36C195.33,228.85,195.55,228.69,195.56,228.7Z" style="fill:#263238"></path><path d="M181.87,242.13a7.06,7.06,0,0,1-1,.84c-.69.52-1.72,1.23-3,2.07A92,92,0,0,1,167.31,251a93.26,93.26,0,0,1-11.19,4.5c-1.47.48-2.67.83-3.51,1a6.06,6.06,0,0,1-1.31.29,7.62,7.62,0,0,1,1.25-.48c.82-.27,2-.68,3.45-1.2a116.81,116.81,0,0,0,11.08-4.62,118.29,118.29,0,0,0,10.54-5.75c1.32-.8,2.37-1.46,3.09-1.93A6.66,6.66,0,0,1,181.87,242.13Z" style="fill:#263238"></path><path d="M207.64,402.16Q217,394.3,227,387.3a2.56,2.56,0,0,0,.9-3.42,2.52,2.52,0,0,0-3.42-.9q-10.55,7.36-20.4,15.65a2.5,2.5,0,0,0,0,3.53,2.54,2.54,0,0,0,3.53,0Z" style="fill:#263238"></path><path d="M257.85,314s7.39,4,8.1,6.87,3.4,24.51,3.4,24.51l-2.58,3.84Z" style="fill:#e0e0e0"></path><path d="M266.59,348.91c-.14,0-2.13-8.4-4.45-18.84s-4.08-18.94-3.93-19,2.13,8.41,4.44,18.85S266.73,348.88,266.59,348.91Z" style="fill:#263238"></path><path d="M183.72,380.67a3.17,3.17,0,0,1-.49-3.61c1.7-3.27,5.21-9.21,7.13-8.5s10.87,12.57,14.41,17.39a3.1,3.1,0,0,1-.17,3.9l-4.06,4.64a2.57,2.57,0,0,1-3.82.06Z" style="fill:#e0e0e0"></path><path d="M183.72,380.67s.2.15.54.49l1.46,1.5,5.32,5.55,3.65,3.86,2,2.15a2.38,2.38,0,0,0,2.58.8,2.41,2.41,0,0,0,1.2-.86l1.1-1.25,2.25-2.59a5.41,5.41,0,0,0,1-1.35,2.78,2.78,0,0,0,.22-1.61,3.12,3.12,0,0,0-.71-1.52l-1.1-1.48c-3-4-5.81-7.73-8.53-11A31.17,31.17,0,0,0,190.6,369c-.69-.6-1.55.11-2.15.65a13.77,13.77,0,0,0-1.64,1.9,42.85,42.85,0,0,0-2.38,3.66l-.88,1.56a3.78,3.78,0,0,0-.54,1.36,3.16,3.16,0,0,0,.33,2c.22.42.4.6.38.62a2.11,2.11,0,0,1-.47-.56,3.15,3.15,0,0,1-.44-2.06,4.1,4.1,0,0,1,.52-1.45l.85-1.59a38.87,38.87,0,0,1,2.33-3.73,14.83,14.83,0,0,1,1.66-2,4.68,4.68,0,0,1,1.14-.84,1.65,1.65,0,0,1,.77-.18,1.51,1.51,0,0,1,.76.3A29.9,29.9,0,0,1,195.1,373c2.76,3.31,5.63,7.06,8.59,11l1.1,1.48a3.61,3.61,0,0,1,.8,1.75,3.33,3.33,0,0,1-.26,1.9,3.25,3.25,0,0,1-.51.81l-.58.66L202,393.23l-1.1,1.26a3,3,0,0,1-1.42,1,2.86,2.86,0,0,1-3.06-1l-2-2.16c-1.29-1.4-2.49-2.71-3.6-3.9-2.16-2.37-3.93-4.29-5.19-5.68l-1.4-1.56A5.3,5.3,0,0,1,183.72,380.67Z" style="fill:#263238"></path><path d="M245.5,276.32a11.07,11.07,0,0,1-1.59.34,40.17,40.17,0,0,0-4.3,1.1,35.59,35.59,0,0,0-21.46,18.56,38.4,38.4,0,0,0-1.71,4.09,11.68,11.68,0,0,1-.57,1.53,1.87,1.87,0,0,1,.07-.42c.07-.27.15-.67.31-1.17a29.62,29.62,0,0,1,1.56-4.19,34.34,34.34,0,0,1,21.7-18.75,31.42,31.42,0,0,1,4.36-1c.52-.08.93-.1,1.21-.13A1.9,1.9,0,0,1,245.5,276.32Z" style="fill:#263238"></path><path d="M248.83,281.05a8.46,8.46,0,0,1-1.5.44c-.49.12-1.09.27-1.77.48s-1.47.41-2.31.71a58.81,58.81,0,0,0-5.87,2.29,63.61,63.61,0,0,0-6.77,3.66,61.14,61.14,0,0,0-6.22,4.55,55.35,55.35,0,0,0-4.58,4.31c-.64.63-1.16,1.25-1.64,1.78s-.88,1-1.19,1.39a11.61,11.61,0,0,1-1,1.17,8.6,8.6,0,0,1,.88-1.3c.29-.41.66-.9,1.13-1.45s1-1.19,1.59-1.84a51.08,51.08,0,0,1,4.54-4.43,53.13,53.13,0,0,1,13.11-8.28,52.08,52.08,0,0,1,5.95-2.2c.85-.28,1.65-.46,2.35-.64s1.29-.31,1.79-.4A8.18,8.18,0,0,1,248.83,281.05Z" style="fill:#263238"></path><path d="M160.14,345.19a7.69,7.69,0,0,1,.8-1.16,15,15,0,0,1,1.05-1.29c.44-.49.9-1.06,1.5-1.62a34.8,34.8,0,0,1,4.35-3.75,37,37,0,0,1,12.65-6,36.21,36.21,0,0,1,5.65-1c.81-.11,1.56-.11,2.2-.14a15.11,15.11,0,0,1,1.67,0,6.37,6.37,0,0,1,1.41.11c0,.11-2,0-5.24.39a38.94,38.94,0,0,0-5.57,1.09,39.16,39.16,0,0,0-12.49,5.93,39.61,39.61,0,0,0-4.37,3.63C161.42,343.63,160.22,345.26,160.14,345.19Z" style="fill:#263238"></path><path d="M192.25,331.51a6.1,6.1,0,0,1-1.21.59l-3.35,1.47c-2.82,1.26-6.68,3.09-10.81,5.36s-7.74,4.55-10.31,6.25l-3,2a5.9,5.9,0,0,1-1.15.71,6.73,6.73,0,0,1,1-.87c.68-.54,1.69-1.29,3-2.18a109.87,109.87,0,0,1,21.18-11.65c1.44-.59,2.61-1,3.43-1.32A6.92,6.92,0,0,1,192.25,331.51Z" style="fill:#263238"></path></g></svg>