<svg xmlns="http://www.w3.org/2000/svg" viewBox="0 0 750 500"><g id="freepik--Moon--inject-59"><ellipse cx="399.88" cy="247.2" rx="115.03" ry="116.01" style="fill:#ebebeb"></ellipse><path d="M399.87,131.19l1.87,0,2.3,0c.91,0,2,0,3.17.14l4,.3c1.48.15,3.09.38,4.84.59A120.92,120.92,0,0,1,428,134.61c1.12.25,2.24.62,3.4.94s2.37.63,3.56,1.06l3.7,1.26c1.27.41,2.52,1,3.82,1.47a110.45,110.45,0,0,1,16.24,8,116.71,116.71,0,0,1,32.77,29.46,116.11,116.11,0,0,1,21.58,48.9,119,119,0,0,1-.49,45.53c-.6,2.59-1.15,5.21-1.93,7.79s-1.6,5.16-2.45,7.75a116.87,116.87,0,0,1-15.68,29.45,128.08,128.08,0,0,1-11.2,13.11,124.13,124.13,0,0,1-13.28,11.49,113.71,113.71,0,0,1-15.12,9.48l-2,1c-.67.35-1.34.69-2,1l-4.12,1.88-4.22,1.68-1.06.42-1.08.37-2.16.74-2.16.74-2.2.63c-1.47.4-2.93.89-4.43,1.2l-4.49,1-4.54.82a114,114,0,0,1-37.1,0l-4.55-.82-4.49-1c-1.5-.32-2.95-.81-4.43-1.21l-2.2-.63-2.16-.73-2.16-.74-1.08-.37-1.06-.42L355,354.26l-4.12-1.88c-.69-.3-1.36-.64-2-1l-2-1a113.82,113.82,0,0,1-15.13-9.48,124.13,124.13,0,0,1-13.28-11.49,125.9,125.9,0,0,1-11.2-13.12,122.33,122.33,0,0,1-9-14.32,125,125,0,0,1-6.7-15.13c-.85-2.59-1.78-5.14-2.45-7.75s-1.33-5.2-1.93-7.79a118.83,118.83,0,0,1-.48-45.54,116.3,116.3,0,0,1,21.57-48.89A116.59,116.59,0,0,1,341,147.39a109.48,109.48,0,0,1,16.24-8c1.3-.5,2.55-1.06,3.81-1.47l3.7-1.26c1.2-.43,2.41-.71,3.56-1.06s2.29-.69,3.4-.94a121.06,121.06,0,0,1,11.94-2.32c1.74-.21,3.35-.44,4.83-.59l4-.3c1.2-.11,2.26-.12,3.17-.14l2.3,0,1.86,0-1.86.06-2.3.07c-.91,0-2,.05-3.17.17l-4,.31c-1.47.16-3.08.4-4.83.61-3.48.5-7.47,1.26-11.91,2.36-1.11.25-2.23.62-3.39.94s-2.36.63-3.56,1.07L361.15,138c-1.27.42-2.51,1-3.81,1.48a110.73,110.73,0,0,0-16.2,8.06A116.77,116.77,0,0,0,308.48,177,116,116,0,0,0,287,225.8a118.67,118.67,0,0,0,.51,45.4c.59,2.59,1.14,5.2,1.93,7.77s1.59,5.14,2.45,7.72A116.13,116.13,0,0,0,307.54,316a127.24,127.24,0,0,0,11.16,13.07A123.21,123.21,0,0,0,332,340.55,112,112,0,0,0,347,350l2,1c.66.35,1.33.69,2,1l4.11,1.87,4.2,1.67,1.06.42,1.07.37,2.15.73,2.16.73,2.2.63c1.46.4,2.91.89,4.41,1.2l4.47,1,4.54.82A122.09,122.09,0,0,0,399.89,363a123.4,123.4,0,0,0,18.48-1.51l4.53-.82,4.48-1c1.49-.3,2.94-.8,4.41-1.19l2.19-.63,2.16-.74,2.15-.73,1.07-.37,1.06-.42,4.2-1.67,4.11-1.87c.69-.3,1.36-.64,2-1l2-1a112.9,112.9,0,0,0,15.07-9.44,123.33,123.33,0,0,0,13.24-11.45A125,125,0,0,0,492.21,316a116.3,116.3,0,0,0,15.64-29.34c.86-2.58,1.78-5.12,2.45-7.72s1.34-5.18,1.93-7.76a118.92,118.92,0,0,0,.52-45.4A116.13,116.13,0,0,0,491.28,177a116.35,116.35,0,0,0-32.67-29.44,109.76,109.76,0,0,0-16.19-8.07c-1.3-.5-2.55-1.06-3.81-1.47l-3.69-1.27c-1.19-.44-2.4-.72-3.55-1.07s-2.28-.69-3.4-.94c-4.44-1.1-8.43-1.86-11.91-2.36-1.75-.21-3.35-.45-4.83-.61l-4-.31c-1.2-.12-2.26-.15-3.17-.17l-2.3-.07Z" style="fill:#263238"></path><path d="M443.32,175.46l-3.23-2.5a2.79,2.79,0,0,1-.91-1,4.59,4.59,0,0,1-.27-1.43,3.64,3.64,0,0,0-3.92-2.94c-.69-1.77-.85-3.71-1.48-5.51s-1.91-3.56-3.78-3.89a9.24,9.24,0,0,1-2.17-.31,10.14,10.14,0,0,1-1.89-1.53c-2.17-1.66-5.95-.76-7.32-3.12a18.6,18.6,0,0,0-.83-1.74,4.17,4.17,0,0,0-2-1.23c-2.72-1-5.74-2-8.41-.87a14.22,14.22,0,0,1-2.83,1.2c-1.14.18-2.37-.25-3.42.21-.63.28-1.15.87-1.83.9a2.66,2.66,0,0,1-1.36-.48,14,14,0,0,0-8.76-2,5.21,5.21,0,0,1,1.11-.61c.3-.11.62-.15.93-.24a3.86,3.86,0,0,0,2-1.26l-.19-.35c-.41.28-1,0-1.34-.29a2.1,2.1,0,0,0-1.27-.66,4.62,4.62,0,0,0-.71.18c-1,.23-2-.64-3-.66a3.47,3.47,0,0,0-1,.19,12,12,0,0,0-4,2.24,1.28,1.28,0,0,0-.34.39,1.05,1.05,0,0,0-.08.68,2.54,2.54,0,0,0,1.34,1.89,4.07,4.07,0,0,0,2.54.19,2.1,2.1,0,0,1,.24-.06,5.07,5.07,0,0,0-1.34,1.64,3.62,3.62,0,0,0,.32,3.85c-1,.67-2.09-.9-3.29-1-.88-.08-1.6.64-2.19,1.3l-2.41,2.72-2.85-.8a2.25,2.25,0,0,0-1.4-.09c-.44.17-.73.6-1.1.91a2.47,2.47,0,0,1-3.44-.39,1.79,1.79,0,0,1-.22-.38,1.72,1.72,0,0,0,.87-.95,1,1,0,0,0-1-.62,2.41,2.41,0,0,1,.95-1.5c.69-.47,1.67-.65,2-1.4l1.54-1a1.45,1.45,0,0,0,.48-.44.48.48,0,0,0-.05-.57c.94-1-.21-3.39.81-4.62.66-.8,1.94-.66,2.88-.22a8.72,8.72,0,0,0,2.86,1.2c1.56.12,2.84-1.14,4-2.16s2.69-1.77,4.24-1.17c-.43-.16.81-2.13,1.54-2.07.44,0,.48.73.81.92,2.12,1.16,4.81-.38,7.12-.64a28.75,28.75,0,0,1,8.83.34c.19-.77-.67-1.35-1.39-1.67a41.65,41.65,0,0,0-8-2.88A24.21,24.21,0,0,0,381,141a7.82,7.82,0,0,1-3.53,1c-.61,0-1.2-.24-1.81-.24a4.2,4.2,0,0,0-2.81,1.36,4.76,4.76,0,0,0-2.53.78c-.34.21-.67.43-1,.67.22.29.66.11,1-.06a5.65,5.65,0,0,1,1.79-.6l-.37.42c-.74.86-1.8.64-2.92.77a5.62,5.62,0,0,0-1.15.18,2.6,2.6,0,0,0-1,.7l1.09-1.28a1.35,1.35,0,0,0,.45-1,3.51,3.51,0,0,0,2.81-1.54,1.14,1.14,0,0,1,.37-.41c.32-.17.73.06,1.06-.07s.4-.43.55-.68a4.31,4.31,0,0,1,1.81-1.42l3.41-1.77-1.35-.2a5,5,0,0,0-1,.12h-.1a26.72,26.72,0,0,0-10.77,3,7.63,7.63,0,0,1-.87.41c-.28.1-.58.16-.88.24a26.49,26.49,0,0,0-5.35,2.15l-9.72,4.76c-.35.17-.76.46-.66.84l2,.22a10.79,10.79,0,0,0-4.1,2,3,3,0,0,1-1.24.73c-.28.06-.56,0-.83.08a2.74,2.74,0,0,0-1.05.56l-10.08,7.45a35.49,35.49,0,0,0-5.41,4.59c-1.8,2-4.1,3.74-5.56,6-1.19,1.87-1.94,4-3.25,5.79l2.81-2.23a8.55,8.55,0,0,0,1.22-1.11,12.14,12.14,0,0,0,.78-1.1,25.36,25.36,0,0,1,2.19-2.66,5.89,5.89,0,0,1,1.2-1.09c.29-.18.62-.31.9-.51s.62-.63.95-.92a1.25,1.25,0,0,1,1.19-.35c-.34.61-.71,1.2-1.11,1.78a1.62,1.62,0,0,1-.5.51,2.88,2.88,0,0,1-.73.17c-1.06.24-1.63,1.37-2.05,2.37l1.27-.09a.8.8,0,0,1-.1.68,30.9,30.9,0,0,1-3.7,6.06,8.82,8.82,0,0,0,1.79-4.47,17.15,17.15,0,0,0-3.85,3.76,4.64,4.64,0,0,1-2.85,1.83,2.78,2.78,0,0,1,.46-1.42c-1.18-.05-2,1.17-2.5,2.23l-3.23,6.43-2.06,4.12-1.62,3.21a1.5,1.5,0,0,0-.2,1.3,27.86,27.86,0,0,0,4.12-5.12A7,7,0,0,1,313,189c.28-.29.63-.52.93-.79,1.17-1,1.69-2.76,3-3.64-.08,1.29-1.22,2.2-2.08,3.15a9,9,0,0,0-1.93,3.44,5.13,5.13,0,0,1-.43,1.21c-.22.37-.56.67-.79,1a4.38,4.38,0,0,0-.31,2.71.23.23,0,0,0,0,.14c.08.11.24,0,.36,0l2.45-1.56a5.74,5.74,0,0,0,.28,2.24,2.49,2.49,0,0,1-.27,2.17c-1.34,1.62-2.35,2.54-2.52,4.81-.12,1.55-.23,3.3-1.42,4.27-.26.2-.58.39-.67.71a1.92,1.92,0,0,0,.13.94c.24,1.19-.76,2.21-1.47,3.19a2.3,2.3,0,0,0-.45.93,4.06,4.06,0,0,0,0,.92,4.16,4.16,0,0,1-.42,2.08l1.58.94a2.08,2.08,0,0,1,.69.55,7.52,7.52,0,0,1,.4.92c.24.45.72.77.85,1.26a2.42,2.42,0,0,1,0,.76,6.88,6.88,0,0,0,.85,3.9,4.29,4.29,0,0,1,.54,1.12c.2.92-.39,1.92-.06,2.79-.32,0-.15.6.09.84a1.45,1.45,0,0,0,.92.29,1.16,1.16,0,0,1,.88.36c.36.49-.14,1.14-.32,1.72a1.66,1.66,0,0,0,.42,1.66c.23.23.57.45.53.78s-.51.47-.84.64c-1,.5-.95,1.91-.52,2.91s1.14,1.93,1.13,3a2.34,2.34,0,0,1,2,1.6c.09.28.17.62.44.72s.65-.24.78-.58c.44-1.2,0-2.64.7-3.73a10.34,10.34,0,0,1,1.19-1.29,1.57,1.57,0,0,0,.4-1.62c-.15-.31-.46-.53-.63-.84s-.09-.81.26-.85a2.76,2.76,0,0,1,1,1.49h1.34c0,.71,0,1.42,0,2.13a2.48,2.48,0,0,0-.86,2.67,1.19,1.19,0,0,0,.58.76c.2.1.43.1.64.19,1.13.45.7,2.71,1.9,2.93.49.1,1-.26,1.46-.22s.85.27,1.09,0,.07-.52,0-.77a4.13,4.13,0,0,1,0-2.46,11.07,11.07,0,0,1-.85-3.3l.34-.18a5,5,0,0,1,1.45,1.66c.2.44.26.94.5,1.36a1,1,0,0,0,1.18.58,1.12,1.12,0,0,0,.52-1.15,5.05,5.05,0,0,1-.07-1.34c.18-.88,1.13-1.33,2-1.64.09.31-.29.52-.55.71a2.21,2.21,0,0,0-.51,2,5.79,5.79,0,0,0,1.12,3.12,2.57,2.57,0,0,0,3,.8c1.23-.64,1.43-2.29,1.45-3.68.38-.2.95-.35,1.16,0s0,.6,0,.9c0,.57.72.92.77,1.49a1.49,1.49,0,0,1-.32.89c-.46.75-.75,1.89,0,2.35a2.87,2.87,0,0,0,.64.23,2.72,2.72,0,0,1,1.83,2.48.87.87,0,0,1-.06,1.7c-.17,0-.37,0-.49.14-.27.27.09.83-.2,1.08a1.16,1.16,0,0,1-.34.14c-.62.22-.53,1.1-.47,1.76a4.48,4.48,0,0,1-1.73,3.94,2.47,2.47,0,0,1-2.94.25,8.17,8.17,0,0,1-.94-1.17,1.26,1.26,0,0,0-1.32-.52,1.52,1.52,0,0,0-.51.37,6.78,6.78,0,0,0-2.2,3.24A4.71,4.71,0,0,1,329,261a6.68,6.68,0,0,1-1.09,1.23,2.51,2.51,0,0,0-.56,1.93c.37.45-.18,1.06-.42,1.59s-.63,1-.84,1.55a5.3,5.3,0,0,0,.38,3.57,9.39,9.39,0,0,0,2.34,4.22,11.74,11.74,0,0,0,1,.73,9.77,9.77,0,0,1,3.55,3.47c.84.22,1.82-.52,2.56,0a1.78,1.78,0,0,1,.59.78l1.2,2.41a4.15,4.15,0,0,0,1.26,1.7,1.41,1.41,0,0,0,1.91-.22c.48-.74-.11-1.75.18-2.58.39-1.11,2.14-1.38,2.28-2.55.06-.5-.18-1.1.18-1.44a1.8,1.8,0,0,1,.54-.26,1.46,1.46,0,0,0,.81-1.68c1.44-.12,3.2-.07,3.9,1.2.16.28.45.65.69.44a14.64,14.64,0,0,1-.1-4.76,3.28,3.28,0,0,0,.11-1.32c-.27-1.28-2.11-1.54-2.71-2.7-.71-1.36.58-3.26-.35-4.48-.57-.74-1.77-.86-2.19-1.7a8.88,8.88,0,0,0-.36-.9,2.87,2.87,0,0,0-.78-.59c-1-.74-1.21-2.22-1.09-3.5a9,9,0,0,0,0-3.8,6,6,0,0,1-.46-1.35,1.55,1.55,0,0,1,1.47-1.65,1.44,1.44,0,0,1,1.33,1.7,3.83,3.83,0,0,1-.93,1.38,1.38,1.38,0,0,0-.27,1.55,1.13,1.13,0,0,1,.49,1.93,6.84,6.84,0,0,0-.65.37A1.38,1.38,0,0,0,343,259c.35.55.9.93,1.3,1.45.22.27.4.59.72.72a1.35,1.35,0,0,0,.53.1l1.46.08a1.7,1.7,0,0,0,.55,0,2,2,0,0,0,.72-.52,9.49,9.49,0,0,1,2.7-1.58,2.29,2.29,0,0,1,1.05-.28c.86,0,1.37.93,1.94,1.57a8.58,8.58,0,0,0,3.2,1.94c.55-2,1.09-4.25.3-6.21-.63-1.54-2-2.64-3.05-3.91s-1.87-2.89-1.37-4.43l.81-.42a4.67,4.67,0,0,1,2.53,2.73,28.43,28.43,0,0,1,.53,2.9,7.53,7.53,0,0,0,2.1,3.78c0-1.13-.05-2.26-.07-3.39a1.21,1.21,0,0,1,.25-.92,1.1,1.1,0,0,1,.89-.16,12.18,12.18,0,0,1,2.73.64,1.77,1.77,0,0,1,.73.42,1.86,1.86,0,0,1,.32,1c.16,1.38.18,3.06-1,3.81-.85.54-2.12.39-2.71,1.22-.39.55-.32,1.4-.84,1.84-.29.25-.72.33-.93.65-.32.5.13,1.17,0,1.76-.09.37-.41.72-.28,1.09.07.22.29.34.46.5.82.71.64,2,.4,3.07-.21.87-.41,1.74-.61,2.61a7.44,7.44,0,0,0-1.35-5,5.69,5.69,0,0,1-2.79-.47,2,2,0,0,0-2.81,2.74,6.38,6.38,0,0,1,.57,2.32c-.06,1-.72,2-.2,2.85l1.16.5c.62.27,1.36,1,.91,1.48s-1.49.27-1.41.86a.69.69,0,0,0,.23.38c.87.93,1.87,2.14,1.43,3.34a2.47,2.47,0,0,1,1.95.57,12.06,12.06,0,0,1,3.68,3.94c.29.48.54,1,.83,1.47.65.06.84-.88.76-1.54-.11-1-.23-2-.34-3a14.24,14.24,0,0,0-.39-2.26c-.31-1-.87-2-1.24-3a3.9,3.9,0,0,1,0-3.14,5.25,5.25,0,0,1,2.38,3.65c.08.53.08,1.06.16,1.59.27,1.66,1.35,3.1,1.55,4.77a4.3,4.3,0,0,0,.33,1.68,3.06,3.06,0,0,0,.74.74l3.21,2.49c.27.21.46.66.77.52-.42-1.42-.84-2.83-1.25-4.25l2.62,2.23a2.52,2.52,0,0,1,.39-2,1.55,1.55,0,0,1,1.85-.51,1.17,1.17,0,0,1,.36,1.76,4.21,4.21,0,0,1,4.94-.48,3.15,3.15,0,0,0,1.21.61c.83.1,1.68-.7,2.43-.32s.91,1.8,1.76,1.72c.51,0,.89-.69,1.38-.54l.18,1.23c1.35-.13,3-.56,3.24-1.91a4.32,4.32,0,0,1,.11-.72,1.93,1.93,0,0,1,.68-.77,5.93,5.93,0,0,0,2.26-3.27,3,3,0,0,0-1.57-3.39c-.33-.29,0-.83.33-1.1s.75-.67.57-1.07c-.12-.24-.41-.34-.57-.55-.45-.55.21-1.49-.22-2.06-.2-.25-.55-.32-.82-.48a1.78,1.78,0,0,1-.23-2.51,5.09,5.09,0,0,1,2.39-1.44l2.59-1c.68-.25,1.47-.66,1.49-1.39,0-.52-.37-1.16,0-1.47.23-.18.57-.09.85-.16.69-.16.79-1.09.75-1.8,0-.52-.07-1-.11-1.55a1.87,1.87,0,0,1,.05-.67c.15-.42.58-.64.92-.92s.63-.76.39-1.13l-3.51.15a2.66,2.66,0,0,1-1.51-.22,1,1,0,0,1-.37-1.33l-.85-.29c0-.66,0-1.33.05-2a1.26,1.26,0,0,1,.11-.55,1.11,1.11,0,0,1,.44-.42l1.65-1.1a1.44,1.44,0,0,0,.79,1.52c.51,0,.6-.75.36-1.2s-.64-.94-.43-1.41a4.63,4.63,0,0,1,.31-.46c.43-.83-.83-1.74-.58-2.64l-2.86-.76a8.29,8.29,0,0,0-.74-1,38.21,38.21,0,0,1-8.4.94l-.68,0a8.83,8.83,0,0,0,.14,2.24l1.37-1.15a12,12,0,0,0,.44,4.26,1.31,1.31,0,0,1,0,1.08c-.19.3-.59.39-.83.66-.7.79.66,2.1.18,3-1,0-1.93-1.47-2.87-1-.21.11-.38.33-.62.4-.52.16-1-.5-.92-1.06s.35-1,.42-1.6a7.77,7.77,0,0,0-.52-2.38,17.19,17.19,0,0,0-.36-2.28c-.27-.73-1.13-1.33-1.79-.94a3.15,3.15,0,0,0-.68-1.87A38.12,38.12,0,0,1,358.72,240a2,2,0,0,0-.23.18,3.69,3.69,0,0,0-.59,2.66c0,.93-.28,2.06-1.17,2.32-.77-.6-.63-1.95-1.42-2.53-.37-.27-.87-.31-1.25-.57a2.6,2.6,0,0,1-.77-2c-.1-1.2-.12-2.58.76-3.39a3,3,0,0,1,.5-.35c-6.88-7,27.43-3,27.43-13.68,0-7.37-1.71-11-3.09-12.67,1.67.58,4.73,1.17,9.9,1.17,12.95,0,17.56-34.56,24.54-24.68a3.05,3.05,0,0,1,2.77-.86c3.1.68,3.34,5.4,6,7.08l3.61-.08a3.26,3.26,0,0,0,3.17,1.57,4,4,0,0,0,3.58-3.2,3.38,3.38,0,0,0-2.69-3.79,7.68,7.68,0,0,1-1.6-.15c-.51-.16-1-.71-.78-1.21.89-1.22,2.85-.77,4,.18s2.11,2.3,3.55,2.73c.78-2.1,4-2.64,4.37-4.85a7.18,7.18,0,0,1,.17-1.69c.48-1.14,2.31-1.3,2.6-2.5a4.12,4.12,0,0,0-.15-1.55A2.79,2.79,0,0,1,443.32,175.46Z" style="fill:#e0e0e0"></path><path d="M418.29,193a5.23,5.23,0,0,0-1.58-.8,39,39,0,0,1,2.6,7.24,5.75,5.75,0,0,0,.91-.75C420.14,196.62,419.92,194.27,418.29,193Z" style="fill:#e0e0e0"></path><path d="M351.52,197.82a.42.42,0,0,0,.22.05,1.43,1.43,0,0,0,.22-.08c.27-.09.53.12.75.3s.53.34.76.19a.62.62,0,0,0,.11-.74,2.17,2.17,0,0,1-.27-.76c0-.12,0-.24.06-.37a1.15,1.15,0,0,0-.54-1.12,1.12,1.12,0,0,0-1.24.1,1.5,1.5,0,0,1,.36.71.52.52,0,0,1-.4.59c-.19,0-.36-.13-.55-.18a.63.63,0,0,0-.7.35A2.94,2.94,0,0,0,351.52,197.82Z" style="fill:#e0e0e0"></path><path d="M420.14,151.61a4.47,4.47,0,0,0,5.83,1.57,1.14,1.14,0,0,0,.31-.23c.39-.46,0-1.15-.38-1.61A6.13,6.13,0,0,0,420.14,151.61Z" style="fill:#e0e0e0"></path><path d="M409.26,144l3,.36c.49.06,1.16.45.9.87-.7-.13-1.27.73-1.11,1.43a2.45,2.45,0,0,0,1.45,1.47c4.23,2,9.34-1.34,13.76.11,2.35.77,4.14,2.79,6.47,3.64.95.34,2.21.74,2.26,1.77,0,.26-.07.52-.07.78a1.8,1.8,0,0,0,1.6,1.54,10.66,10.66,0,0,0,2.39-.1,6.74,6.74,0,0,1,4.62,1.52c.36.31-.25.77-.58,1.11-.75.76.09,2.16,1.14,2.35a6.07,6.07,0,0,0,3.07-.73,8.31,8.31,0,0,1,5.79-.15,5.75,5.75,0,0,1,3.68,4.32.82.82,0,0,1-.86,1.12,6.17,6.17,0,0,1-5.86-3.61,1.46,1.46,0,0,0-.48-.72A1.05,1.05,0,0,0,450,161c-1.46-.05-2.19,2-1.47,3.32s2.19,1.88,3.56,2.39a25.87,25.87,0,0,0,5,1.48,26.2,26.2,0,0,0,6.32,0,68.53,68.53,0,0,0,11.43-1.6l-1.73-2.4a11.63,11.63,0,0,0-3.29-3.44c-2.66-1.56-6.33-.84-8.7-2.81a11.19,11.19,0,0,0-2-1.74,5,5,0,0,0-1.89-.37,66.88,66.88,0,0,0-9.39.11,6.06,6.06,0,0,1-3.14-.29c-1.63-.83-2.07-2.94-3.18-4.41a10.71,10.71,0,0,0-3.59-2.67l-2.25-1.23a7.47,7.47,0,0,0-1.5-.67c-1.07-.3-2.22-.09-3.32-.29a9.22,9.22,0,0,1-2.83-1.27L422.71,142a4.46,4.46,0,0,0-1.79-.74c-1.37-.13-2.71,1-4,.62a5.55,5.55,0,0,1-1.3-.73,6.09,6.09,0,0,0-7.42.91,1.34,1.34,0,0,0-.47.94C407.74,143.68,408.59,143.94,409.26,144Z" style="fill:#e0e0e0"></path><path d="M506.27,279.33A7.81,7.81,0,0,0,505,276.9a12,12,0,0,0-2-1.55,12.44,12.44,0,0,1-4.65-6.57,3.56,3.56,0,0,0,1.51-2.54,20.85,20.85,0,0,0-.12-8.49c-.79-3.14-2.62-5.53-6.26-4.54a3.81,3.81,0,0,1-1.25.21c-1.65-.11-3-2.56-4.41-1.73-1.26-.58-.1-2.72-.87-3.88-.35-.53-1.09-.86-1.06-1.49,0-.36.29-.64.42-1a1.65,1.65,0,0,0-1.38-2,3.54,3.54,0,0,0-2.58.88,14,14,0,0,1-2.25,1.67,7.54,7.54,0,0,1,1.85,6.64c-1.6.09-3.35.14-4.62-.85a2.79,2.79,0,0,0-.91-.59,1.66,1.66,0,0,0-.93.12,11.27,11.27,0,0,0-4.29,3.55c-.1.11-.19.23-.28.34a9.31,9.31,0,0,0-3.58-4.05c-1.2.16-1.74,1.67-1.56,2.88s.84,2.31,1,3.52c-.52,1.38-3,.22-4,1.32a1.84,1.84,0,0,0,0,2.1c.39.65,1,1.16,1.33,1.82q-1.41,2.26-2.81,4.55c-.19-.64-.49-1.38-1.13-1.51-.88-.18-1.46.9-1.64,1.78s-.46,2-1.34,2.16c.36,1.12,2.21.46,3.11,1.21.69.56.52,1.64.59,2.53s.95,1.95,1.66,1.41a1.57,1.57,0,0,0,.45-1.08,17.52,17.52,0,0,1,3.58-8.27,3.89,3.89,0,0,0,1.15-2.23c0-.73-.45-1.48-.18-2.16.38-.95,1.67-.86,2.64-1.25a4.73,4.73,0,0,1-.77,1.1,5,5,0,0,0-1.44,1.71c-.27.84.15,1.85-.29,2.61a4.55,4.55,0,0,1-1,.95,6,6,0,0,0-1.39,3.64c-.4,2.73-.78,5.61.27,8.16.55,1.36,1.5,2.58,1.78,4-.75.59-1.84,0-2.52-.7s-1.53-1.49-2.45-1.23c-.72.2-1.34,1-2,.73a4.59,4.59,0,0,0-2.3-5.1,1.14,1.14,0,0,1-.69-1.16c-1,0-1.51,1.27-1.72,2.29s-.8,2.32-1.83,2.15c-.35-.05-.66-.28-1-.27-.78,0-1,1.16-1.7,1.53s-1.29.05-1.85.35-.65.73-1,1c-.93.75-2.28,0-3.25-.65s-2.37-1.35-3.26-.55c-.71.65-.57,1.84-1.13,2.62-.69,1-2.35,1.2-2.51,2.39a1.86,1.86,0,0,0-2.64.18,6.76,6.76,0,0,0,1.23,3.79,7,7,0,0,1-2.61,1.8,17.87,17.87,0,0,0,1.57,3.12c-1,.62-.67,2.29-1.59,3-.54.39-1.28.29-1.93.44s-1.29.91-.88,1.43a1.44,1.44,0,0,1-2.28.75c-.59-.72-.77-1.74-1.47-2.36-1-.9-2.63-.54-3.88-1.08a7.39,7.39,0,0,0-1.15-.52c-1.31-.33-2.49,1.07-2.63,2.42a15.37,15.37,0,0,0,.63,4c.22,1.34,0,2.95-1.12,3.67-.57.36-1.31.45-1.75,1-.88,1.05.25,2.55.49,3.91a5.91,5.91,0,0,1-.4,2.74c-.47,1.49-1.36,3.3-2.92,3.19-1.22-.08-2-1.37-2.38-2.54s-.78-2.51-1.85-3.11c-1.95-1.1-4.42,1.1-6.53.38l.51,1.43c-1,.23-1.22,1.54-1,2.53s.62,2,.25,3c-.44,1.12-1.78,1.53-2.95,1.8a8.55,8.55,0,0,1,.2,4c.44.46-.54,1.64-1.17,1.76a7.62,7.62,0,0,1-1.89-.22A2.86,2.86,0,0,0,395,328l3.92,1.12a2.74,2.74,0,0,0,1.41.16,3.15,3.15,0,0,0,1.25-.8c3-2.58,7.73-3.75,10.95-1.42.65.47,1.31,1.1,2.11,1a2.66,2.66,0,0,0,1.36-.72c1.35-1.09,2.82-2.46,2.75-4.2a4.85,4.85,0,0,1,0-1.37c.24-1,1.47-1.34,2.22-2,1.78-1.65.52-4.6-.82-6.63l5-3.12a2.67,2.67,0,0,1,1.41-.54,3.88,3.88,0,0,1,1.48.53c2.89,1.26,6.08-.87,8.3-3.12a6.6,6.6,0,0,0,7.79,1.89,2.49,2.49,0,0,1,.25,3.41,7.06,7.06,0,0,1-3.12,2.07,7.82,7.82,0,0,1,1.67,3.39,2.68,2.68,0,0,1-1.74,3l.73,1.31a5.19,5.19,0,0,1,3,.19,2.32,2.32,0,0,1,1.44,2.44c-1.67.93-3.73.24-5.58-.25s-4.2-.58-5.26,1a8.7,8.7,0,0,1-3.43,4,3,3,0,0,0-.46-3.61c-1.34-.77-2.9.59-3.79,1.87s-2.18,2.79-3.67,2.35c-.52-.16-1-.56-1.53-.53a2,2,0,0,0-1.37,1c-.87,1-1.77,2.29-1.6,3.64s2.12,2.35,2.92,1.24c-.37-1.34-.56-3.14.66-3.8s2.87,1,2.54,2.47a4.29,4.29,0,0,1-3.2,2.77,28.09,28.09,0,0,0-4.28,1.14c-.55.26-1.08,1.09-.54,1.38a2.38,2.38,0,0,0,1.77.25,3,3,0,0,1-.93,3.3,2.91,2.91,0,0,1-3.41,0c-2.09-1.54-1.3-5-2.84-7.13a3.73,3.73,0,0,0-2.74-1.48c-2.21-.11-4,1.79-5.05,3.78a3.41,3.41,0,0,1-.82,1.21c-.87.69-2.11.29-3.18,0s-2.53-.13-2.81.95a21.63,21.63,0,0,0,8.54,6.23,1.48,1.48,0,0,1,.82.58c.18.34,0,.76,0,1.15A4,4,0,0,0,408.6,351a5.34,5.34,0,0,0,2.55,1.77,1.87,1.87,0,0,0,2.31-1.49c0-1.95-3.63-2.26-3.56-4.21a4.75,4.75,0,0,1,4.34.12,6,6,0,0,0,8.69,1.85c1.15-.94,2-2.36,3.42-2.78,2.26-.66,4.23,1.53,6.37,2.52,2.72,1.27,5.9.53,8.81-.22l7.38-1.91-4.15-.52a21.55,21.55,0,0,0,6.35-3.06,2.6,2.6,0,0,0-2.23-2.3c3.14-.62,4-4.93,6.73-6.6a17.73,17.73,0,0,0,2.69-1.44,5.09,5.09,0,0,0,1.36-4,12.64,12.64,0,0,0-4.27-9,12.51,12.51,0,0,0,6.36,1c0,1.32.93,3.2,2,2.46a1.9,1.9,0,0,0,.61-1l1.86-5a8.57,8.57,0,0,1,1.89-3.39c1.58-1.49,4.17-1.68,5.45-3.44-.19.78.82,1.41,1.57,1.17a3.11,3.11,0,0,0,1.61-1.69c.92-1.76,1.26-4.51-.58-5.22-1.65-.63-4.25.85-4.91-.81a2.29,2.29,0,0,1,0-1.37,16.13,16.13,0,0,1,8.91-10.72c1.47-.66,3.32-1.48,3.33-3.1a2,2,0,0,1,1.54,2.35,4.45,4.45,0,0,0,3.23-.86c-.78-.55-.55-1.84.11-2.53s1.58-1.07,2.29-1.71c2-1.81,2.27-5.67,4.93-6.1,2,.8,1.74,3.76.9,5.77s-1.84,4.55-.35,6.14a5.17,5.17,0,0,1,3.31-2.92,5.83,5.83,0,0,0-.57,6.2,10.66,10.66,0,0,1,5-5.29c-.12-.64-.25-1.27-.37-1.9,1.76.41,3.45-1.29,3.75-3.09A10.26,10.26,0,0,0,506.27,279.33Z" style="fill:#e0e0e0"></path><path d="M346.69,317.79c-.87-.63-1.89-1.2-2.16-2.26-.14-.5-.1-1.11-.47-1.45s-1.14-.33-1.82-.32a10.22,10.22,0,0,1-5.2-1.25,5.13,5.13,0,0,0-1.43-.69,4.26,4.26,0,0,0-1.7,0,10.51,10.51,0,0,0-7.24,6,5.14,5.14,0,0,1-1.23,2.45,5.39,5.39,0,0,0-1,.9,1.14,1.14,0,0,0-.08,1,4.84,4.84,0,0,0,3,3.16c.55.21,1.18.38,1.33.91a7.58,7.58,0,0,1-.09,1.41c.05,1.18,1.53,1.4,2.38,2.07,1.1.88,1.12,2.58,2.11,3.55a6.34,6.34,0,0,0,3.23,1.21l3.26.6c2.36.43,5.42.65,7.84-1.38a6.12,6.12,0,0,0,2.21-4.24,8.22,8.22,0,0,0-.86-3.69,2.69,2.69,0,0,0,1.77-1.72,2.57,2.57,0,0,0-.27-1.87A11.07,11.07,0,0,0,346.69,317.79Z" style="fill:#e0e0e0"></path><path d="M456.22,345.92a4.45,4.45,0,0,0,4.4-1.21,1.21,1.21,0,0,0,.4-.73.54.54,0,0,0-.45-.61c-1.35,1-3.64.45-4.62,1.84a.51.51,0,0,0-.12.43A.55.55,0,0,0,456.22,345.92Z" style="fill:#e0e0e0"></path><path d="M448.74,348.48a2.08,2.08,0,0,0-.72.26c-.93.39-2,.35-2.93.7a7.49,7.49,0,0,0-1.68,1l-3,2.15,6.54-1.39a7.81,7.81,0,0,0,1.65-.48c.87-.41,1.58-1.12,2.42-1.59l-1.66-.52A1.72,1.72,0,0,0,448.74,348.48Z" style="fill:#e0e0e0"></path><path d="M472.3,169.47a1.62,1.62,0,0,0-1.37-1,4.1,4.1,0,0,0-1.76.26,21,21,0,0,0-4.88,2.27,4.22,4.22,0,0,0-1.07.86,5,5,0,0,0-.65,3.48l3.66-.12a5,5,0,0,1,1,0,9.4,9.4,0,0,1,1.86.72,5.87,5.87,0,0,0,2.52.41,1.39,1.39,0,0,0,.05-1.59,4.62,4.62,0,0,1-.67-1.55C470.91,171.86,472.7,170.77,472.3,169.47Z" style="fill:#e0e0e0"></path><path d="M467.61,188.7a24.5,24.5,0,0,1,2.55.38,4,4,0,0,0,2.51-.34,1.91,1.91,0,0,0,.91-2.21,3,3,0,0,0-1.52-1.3l-1.57-.81a1.79,1.79,0,0,1-.88-.72c-.29-.6.14-1.3.58-1.81s.93-1.14.75-1.79a1.79,1.79,0,0,0-.67-.85,12,12,0,0,0-2.85-1.76,3.6,3.6,0,0,0-1.27-.35,4.14,4.14,0,0,0-1.68.4l-2.6,1a2.07,2.07,0,0,0-1.32,1c-.21.53.35,1.28.84,1,.42,1.07-.77,2.06-1.06,3.18a6.27,6.27,0,0,0,2.31,5.14,3.18,3.18,0,0,0,1,.2C465,189.11,466.28,188.66,467.61,188.7Z" style="fill:#e0e0e0"></path><path d="M485.4,172.66a2.15,2.15,0,0,0,.92.48.72.72,0,0,0,.82-.49,1.08,1.08,0,0,0-.24-.72l-1-1.61a4.26,4.26,0,0,0-1.05-1.29,1.54,1.54,0,0,0-1.57-.25,2.58,2.58,0,0,0,.43,2.25A7.57,7.57,0,0,0,485.4,172.66Z" style="fill:#e0e0e0"></path><path d="M492.32,181.71a8.56,8.56,0,0,1,1.5,1,5.27,5.27,0,0,1,.62,1.05,7,7,0,0,0,2.43,2.65,6.11,6.11,0,0,0-.14-2.17,1.83,1.83,0,0,0-.34-.75,2.71,2.71,0,0,0-.85-.55,4.25,4.25,0,0,1-1.63-1.6c-.17-.29-.3-.6-.5-.88-.56-.76-1.54-1.1-2.18-1.8a12.49,12.49,0,0,0-.8-1,1,1,0,0,0-1.15-.24l1.36,2.2A6.58,6.58,0,0,0,492.32,181.71Z" style="fill:#e0e0e0"></path><path d="M485.81,308.66a1.1,1.1,0,0,0-.93-.21.52.52,0,0,0-.27.79,5.3,5.3,0,0,1-1.59.27c-.54.09-1.13.42-1.17,1a2,2,0,0,1,0,.55c-.11.35-.6.49-.66.86a.55.55,0,0,0,.54.55,1.33,1.33,0,0,0,.8-.29,4.26,4.26,0,0,1,1.57-.86c.59-.1,1.32.32,1.26.92a1.9,1.9,0,0,0,1.59-1.43A2.68,2.68,0,0,0,485.81,308.66Z" style="fill:#e0e0e0"></path><path d="M474,219.75a7.33,7.33,0,0,0,.39,2.89c.22.83.44,1.66.67,2.48s.51,1.66,1.26,1.92a11,11,0,0,0,1.3.16c.93.2,1.57,1.2,2.52,1.28s1.88-1.12,2-2.22-.21-2.21,0-3.31a3.11,3.11,0,0,1,2.53-2.69,4,4,0,0,0,1.38-.2,2.23,2.23,0,0,0,.9-1.65,5.73,5.73,0,0,0,.07-3.15c-.35-.94-1.19-1.66-1.41-2.64a1.67,1.67,0,0,0-2,1.07,4.83,4.83,0,0,0-.11,2.48c-.07-.49-1.88.92-2,1-1.42.95-2.34,1.3-3.87.93S474.36,217.27,474,219.75Z" style="fill:#e0e0e0"></path><path d="M463.07,253.17a2.68,2.68,0,0,0,.83-1.62,6.76,6.76,0,0,0-.19-3.86,5.06,5.06,0,0,0-5.55-3,2.49,2.49,0,0,1-1.8,0c-.46-.29-.61-.9-1-1.26-.71-.63-1.83-.24-2.57.35a6.93,6.93,0,0,1-2.27,1.64,1.88,1.88,0,0,0-2.1-1,1.91,1.91,0,0,0-1.42,1.87c0,1.1,1,1.92,1.47,2.91a4.46,4.46,0,0,1-.27,3.94,8.72,8.72,0,0,1-2.83,2.9,2.78,2.78,0,0,0-.83.73,2.53,2.53,0,0,0,0,2c.42,1.62.91,3.21,1.47,4.79.87-.54,1.92.41,2.37,1.34s.9,2.07,1.91,2.25,2.21-.8,3-.15c.26.21.42.55.73.68a1.1,1.1,0,0,0,.85-.07,4.09,4.09,0,0,0,1.42-6.13,7.52,7.52,0,0,1,3.09-3.18,2.71,2.71,0,0,0,.95-.68c.65-.89-.16-2.31.48-3.21C461.29,253.64,462.38,253.71,463.07,253.17Z" style="fill:#e0e0e0"></path><path d="M467.05,211.7c-.91-6-5.67-13.3-13.21-14.56-5.28-1.64-11.44,1.11-14.16,6a14.92,14.92,0,0,0,1.26,15.76,17.58,17.58,0,0,0,14.49,6.75c3.45-.1,7-1.26,9.28-3.9S467.58,215.2,467.05,211.7Z" style="fill:#e0e0e0"></path><path d="M353.72,312.4c-5.41.16-11.28.18-15.64-3-2.59-1.91-4.32-4.74-6.6-7s-5.64-4-8.65-2.88c-3.45,1.28-5.47,5.92-9.14,5.69-2.69-.16-4.42-2.94-6.9-4-2.75-1.15-8.07-.35-10.16,1.76s-4.52,4.83-5.64,7.59c6.13,7.84,16.89,10.1,26.78,11.28,17.81,2.12,22.8,1.48,40.68,0,4.32-.35,20.37-5.22,24.34-6.95s10.78-1.8,12-4.36C381.78,311,366.76,312,353.72,312.4Z" style="fill:#fff"></path><path d="M505.29,172.09c-2-6.14-6.87-11.81-13.25-12.8s-13.55,4.57-12.55,11c-3.52-2.18-7.15-4.41-11.22-5.15s-8.75.33-11.18,3.68c-1.42,2-2.15,4.7-4.39,5.62-3.34,1.37-5-2.56-11.46-.54s-9.67,8.9-9.8,9.61c0,0-17.78.28-23.16,10h0a185.29,185.29,0,0,1,74.16-4c3.92.59,7.88,1.3,11.82.91s7.95-2.09,10.18-5.36C507,181.32,506.7,176.34,505.29,172.09Z" style="fill:#fff"></path><path d="M348.13,207.08c-4.67-1.14-6.11-5.15-13.12-5-2.71.06-8.16,2.78-8.16,2.78L324,198.58a8.29,8.29,0,0,0-15.84,2.86c-.33-2.42-3.36-4.19-5.91-3.68a12.55,12.55,0,0,0-7.56,5.13c-1.61,2.48-2.26,2.73-4.44,7.38L289,213.52q29.7-.32,59.29-3.27c1.41-.14,3.26-.78,3.1-2.19C351.24,207,349.17,207.33,348.13,207.08Z" style="fill:#fff"></path><path d="M480,342.29c-4.68-1.14-6.12-5.15-13.12-5-2.71.06-8.17,2.78-8.17,2.78s-1.87-4.16-2.81-6.28a8.29,8.29,0,0,0-15.85,2.86c-.33-2.43-3.36-4.2-5.91-3.68a12.48,12.48,0,0,0-7.55,5.12c-1.61,2.48-2.27,2.74-4.45,7.38l-1.32,3.25q29.7-.32,59.29-3.27c1.41-.14,3.26-.78,3.11-2.19C483.1,342.21,481,342.54,480,342.29Z" style="fill:#fff"></path><path d="M429,128.76c-4.67-1.14-6.11-5.15-13.12-5-2.71.06-8.16,2.79-8.16,2.79l-2.82-6.29A8.29,8.29,0,0,0,389,123.12c-.32-2.42-3.35-4.19-5.91-3.68a12.55,12.55,0,0,0-7.55,5.13c-1.61,2.48-2.26,2.73-4.45,7.37l-1.31,3.26q29.7-.31,59.29-3.27c1.41-.14,3.25-.78,3.1-2.19C432.09,128.68,430,129,429,128.76Z" style="fill:#fff"></path></g><g id="freepik--Planets--inject-59"><circle cx="625.33" cy="84.29" r="40.96" transform="translate(205.13 555.01) rotate(-55.92)" style="fill:#A460ED"></circle><g style="opacity:0.13"><path d="M663.8,70.21c-.1-.27-.2-.54-.31-.81l0-.12c-.11-.28-.22-.56-.34-.83s-.24-.57-.37-.85-.32-.71-.49-1.07c-.41-.85-.85-1.68-1.31-2.49a105.64,105.64,0,0,0-19,7.76c-12,6.53-15.93,16.13-30.1,22.33s-21.17-.78-18.43-5.27,20.17-13.37,38.8-20.15C645,64.08,654,61.36,658.39,60.09a37.57,37.57,0,0,0-2.38-3l-.62-.69L655,56l-.11-.12c-.31-.33-.64-.66-1-1l-.43-.4-.45-.43a196.79,196.79,0,0,1-37.3,17.78c-14.84,5.27-25.24,8.48-31.37,10.25-.05.92-.07,1.86-.05,2.79,0,.51,0,1,0,1.52l0,.53c0,.11,0,.23,0,.34h0c.06.65.12,1.3.2,2,0,.25.06.49.1.74h0c0,.42.12.83.2,1.26,0,.16.05.31.08.46.07.39.15.77.23,1.16h0c.09.39.17.78.27,1.17s.14.56.22.84c.17.67.37,1.33.59,2,0,.12.07.22.11.34s.15.45.23.67c.13.4.28.79.43,1.17a6.25,6.25,0,0,0,.24.6c.06.16.12.32.19.48.22.52.44,1,.68,1.53s.41.87.63,1.3a41,41,0,0,0,5.12,7.73c9.39-4.77,33.78-17.1,45.49-22.3,8.67-3.86,19.57-6.75,26.68-8.39-.12-1.22-.32-2.44-.55-3.66,0-.14-.06-.28-.1-.42s0-.28-.08-.42-.12-.52-.19-.79-.11-.47-.17-.7-.09-.32-.13-.48c-.1-.36-.2-.7-.3-1s-.17-.57-.27-.86-.22-.67-.34-1ZM589.86,82.33a2,2,0,1,1-1.2,2.52A2,2,0,0,1,589.86,82.33Zm7.09,22a2.59,2.59,0,1,1,1.58-3.31A2.59,2.59,0,0,1,597,104.34Zm42.4-22.88a2,2,0,1,1,1.2-2.52A2,2,0,0,1,639.35,81.46Zm5.49,3.17a1,1,0,1,1,.61-1.26A1,1,0,0,1,644.84,84.63Z" style="fill:#fff"></path></g><g style="opacity:0.25"><path d="M633,103.71a271.94,271.94,0,0,1-36.45,9.84,1.8,1.8,0,0,1,.2.19,3.71,3.71,0,0,0,.29.27l.08.08.32.29c.23.23.49.45.73.67.83.73,1.68,1.41,2.55,2.07l.14.1c.82.6,1.65,1.17,2.5,1.71.15.11.31.2.46.3a43.38,43.38,0,0,0,4.87,2.55,40,40,0,0,0,5.34,1.94h0l.84.25h.07c.58.16,1.17.3,1.76.41a4,4,0,0,0,.47.11h0l.18,0,.34.07,1.26.22c.79.12,1.59.23,2.39.3,8.11-3.44,15.35-6.3,17.57-6.55,2.57-.29-1.95,2.79-7.82,6.34a41.5,41.5,0,0,0,7.8-1.92,40.8,40.8,0,0,0,10-5.13c.25-.18.52-.36.77-.56s.63-.47,1-.72.72-.57,1.08-.87a40.37,40.37,0,0,0,5.2-5.26h0a41.4,41.4,0,0,0,3.4-4.74l.51-.88c-2,.94-4.77,2.25-8.81,4.09-12.18,5.55-33.46,11.43-33.48,9.71s11.49-8.5,27.13-13.49C653,102.82,659,101,663.3,99.71c.27-.67.52-1.34.76-2a42.3,42.3,0,0,0,1.35-4.84c.08-.4.16-.79.24-1.2s.18-1.06.25-1.6c.14-.9.23-1.81.29-2.72a.53.53,0,0,0,0-.13A147.34,147.34,0,0,1,633,103.71Zm-19.67,12.67c-3.62,1.27-6.85,1.46-7.21.44s2.28-2.9,5.9-4.17,6.85-1.47,7.21-.44S616.94,115.11,613.32,116.38Z" style="fill:#fff"></path></g><g style="opacity:0.13"><path d="M643.72,47.68a98,98,0,0,1-26.51,13.61c-12,4-23.22,6.88-30.27,8.54a39.33,39.33,0,0,1,2.5-5.39c7-.8,15.18-2,21.45-4,13.69-4.23,26.24-12.72,23.29-13.46s-12.35,5.06-25.35,8.91a157.08,157.08,0,0,1-16.33,3.81,39.13,39.13,0,0,1,4.87-5.43l.06-.06.11-.1a124.59,124.59,0,0,0,20.44-6c5-1.89,8.78-3.38,11.72-4.54.45,0,.89.1,1.34.16h0c.74.11,1.47.23,2.21.39,0,0,0,0,.07,0q1.93.39,3.84,1h0l.58.18h0l.33.11c.4.13.79.26,1.19.41l.64.24.44.18c1,.39,2,.82,2.92,1.29h0l.36.18Z" style="fill:#fff"></path></g><g style="opacity:0.4"><path d="M663.78,70.15l-.3-.81-.05-.12,0-.08c-.11-.27-.22-.55-.34-.82s-.22-.53-.33-.78l-.53-1.14c-.45-.94-.93-1.86-1.46-2.75-.06-.12-.14-.25-.21-.37l-.21-.35c-.19-.32-.38-.63-.58-.94A41.3,41.3,0,0,0,656,57l-1-1.09c-.49-.5-1-1-1.49-1.48s-.81-.75-1.23-1.12-1-.84-1.49-1.23c-.19-.17-.39-.32-.59-.47h0l-.45-.34-.22-.15c-.3-.23-.61-.44-.91-.65-.1-.08-.21-.14-.32-.22l-.22-.15-.44-.28c-.59-.39-1.21-.77-1.82-1.12l-.09-.06c-.52-.3-1.05-.58-1.58-.85l-.48-.25-.37-.18h0c-1-.47-1.93-.9-2.92-1.29l-.45-.17-.64-.24c-.39-.15-.79-.28-1.19-.42l-.32-.11h0l-.58-.18h0a41.38,41.38,0,0,0-4.8-1.15l.92.25a.07.07,0,0,1,.06,0l1,.28h0l.58.18h0l.32.11c.4.13.8.26,1.19.41l.64.24.45.18c1,.39,2,.82,2.92,1.28h0l.37.18c.69.35,1.38.71,2.06,1.11l.09,0,.23.14c.69.4,1.37.82,2,1.27.07,0,.15.09.22.15l.32.21.63.45.5.36.45.34h0q.45.34.9.72c.39.31.78.63,1.15,1s1,.88,1.47,1.34.84.84,1.26,1.27.68.72,1,1.1l.49.57a39.37,39.37,0,0,1,3.86,5.37l.21.34c.06.1.12.2.17.3.35.59.68,1.18,1,1.79.18.34.35.68.52,1,.3.63.59,1.27.86,1.92.12.27.22.53.33.8v0c.13.33.26.66.38,1l.15.43c0,.12.09.23.12.35s.15.44.22.66c.27.8.5,1.61.7,2.41.12.47.23.93.33,1.39a2.3,2.3,0,0,1,.06.28c.17.78.32,1.56.44,2.34l.09.69a40.81,40.81,0,0,1,0,11.15.17.17,0,0,0,0,.07c-.08.54-.17,1.07-.26,1.6a41.84,41.84,0,0,1-1,4.29,40.29,40.29,0,0,1-1.48,4.16c-.35.83-.72,1.64-1.11,2.45h0a39.91,39.91,0,0,1-2.84,4.85h0a41.19,41.19,0,0,1-5.51,6.52h0c-.64.62-1.31,1.21-2,1.79q-.54.45-1.08.87c-.56.44-1.14.87-1.72,1.28a39.72,39.72,0,0,1-3.9,2.42,41.09,41.09,0,0,1-18.92,5c-.92,0-1.83,0-2.75,0-.73,0-1.46-.08-2.19-.16s-1.45-.17-2.17-.29c-.32,0-.63-.1-.95-.16.52.13,1,.25,1.54.35l.65.14.13,0,.22,0c.41.09.83.16,1.25.22a39.76,39.76,0,0,0,4.36.45c.92.05,1.83.06,2.75,0a41.24,41.24,0,0,0,22.82-7.44l.57-.41c.39-.28.77-.57,1.15-.87s.72-.58,1.08-.88a41,41,0,0,0,8.54-9.91,40.67,40.67,0,0,0,2.9-5.65c.32-.78.63-1.56.9-2.35a39.92,39.92,0,0,0,1.37-4.84c.09-.43.18-.87.26-1.3s.18-1.06.26-1.6c.12-.87.22-1.75.28-2.62h0a40.81,40.81,0,0,0-.66-11c0-.14,0-.28-.08-.43s-.07-.33-.11-.49-.1-.48-.16-.72L665,74l-.12-.48c-.1-.36-.2-.7-.3-1s-.17-.57-.27-.86-.22-.67-.34-1Z" style="fill:#fff"></path></g><path d="M608,48h0a3.88,3.88,0,0,1-.69.41c-.46.23-1.13.61-2,1.11a41.9,41.9,0,0,0-6.72,5,40.25,40.25,0,0,0-12.78,24.44l-.13-.26h0l.14.09,0,.19c-.1,1-.21,1.94-.32,2.94s0,2-.08,3.05A36.3,36.3,0,0,0,586.73,94l.28,1.07.35,1,.71,2,.85,1.94.42,1c.16.3.32.61.49.91a42.83,42.83,0,0,0,8.72,11.5,44.86,44.86,0,0,0,7.86,5.82c1,.58,1.82,1,2.35,1.25s.82.45.82.46a4.45,4.45,0,0,1-.86-.36c-.55-.27-1.39-.61-2.41-1.17a41.7,41.7,0,0,1-16.93-17.27c-.17-.3-.33-.61-.5-.92s-.28-.64-.43-1l-.86-2c-.24-.68-.48-1.37-.73-2.06l-.36-1.06-.29-1.08a36.88,36.88,0,0,1-1.3-9.2c0-1,0-2.09.09-3.1s.22-2,.33-3l.12.27h0L585.3,79l0-.17a40.12,40.12,0,0,1,13.07-24.65,39.34,39.34,0,0,1,6.87-4.89c.87-.47,1.56-.83,2-1A7.71,7.71,0,0,1,608,48h0Z" style="fill:#fff"></path><circle cx="184.46" cy="64.42" r="28.01" style="fill:#455a64"></circle><g style="opacity:0.30000000000000004"><path d="M196.62,78.65a9.37,9.37,0,0,0-1.07,3.71A5.65,5.65,0,0,1,194,85.83c-1,.83-2.76.76-3.27-.43a10.12,10.12,0,0,1-.28-2.08,19.11,19.11,0,0,0-1.2-2.45,6.66,6.66,0,0,1-.28-2.32c-.08-4.27-1.05-8.74-3.87-11.91a2.77,2.77,0,0,0-1.24-.91,1.57,1.57,0,0,0-1.65.56,5.73,5.73,0,0,1-.64,1,1.43,1.43,0,0,1-2.07-.6,4.31,4.31,0,0,1-.26-2.47c.1-1,.2-2.08.29-3.12a2.72,2.72,0,0,1,.47-1.54c.51-.58,1.4-.6,2-1.05.81-.61.93-1.77,1.44-2.64s2.1-1.23,2.32-.24c1.71-3.62,5.34,1.83,7.54,1.45a6,6,0,0,1,1.9-.31c1.13.17,1.7,1.45,2.08,2.55.62,1.83,1.23,3.66,1.85,5.48a2.64,2.64,0,0,0,1.22,1.75c.51.21,1.11.06,1.63.26,1.37.53.9,2.73-.22,3.69s-2.68,1.56-3.22,3c-.41,1-.11,2.28-.55,3.31A11.91,11.91,0,0,1,196.62,78.65Z"></path></g><g style="opacity:0.30000000000000004"><path d="M167.06,86.35h0l.86.67.7.51.71.48.51.32a.91.91,0,0,1-.07-.14c-.6-1.39-.61-3.38.72-4a2.9,2.9,0,0,0,.76-.4c.6-.56.13-1.74.72-2.31.34-.31.86-.28,1.27-.47a2.13,2.13,0,0,0,.95-2.14,12.9,12.9,0,0,1-.2-2.48c.16-1.25,1.13-2.51.59-3.65s-2.4-1.09-3.66-1.67c-1.76-.81-2.28-3-3.42-4.64-1-1.43-3.41-3-5.26-2.6a2.26,2.26,0,0,0-2,2.09l-.17,0c-.49-.06-1.07-.1-1.34-.51s0-1.21-.31-1.69a2.47,2.47,0,0,0-.69-.54c-.24-.17-.44-.5-.29-.76s.43-.27.59-.47a.45.45,0,0,0,0-.56c-.5-.62-1.08.62-1.36.91a2.09,2.09,0,0,1-.23.21h0a.81.81,0,0,0,0,.16c0,.17,0,.34,0,.51s0,.35,0,.52v1a29.66,29.66,0,0,0,1.63,9.19,25.6,25.6,0,0,0,1.63,3.71c.27.53.56,1,.87,1.55s.88,1.31,1.31,1.9.82,1.07,1.27,1.6a27.66,27.66,0,0,0,2,2.08c.61.59,1.27,1.12,1.93,1.66"></path></g><g style="opacity:0.30000000000000004"><path d="M210.77,54.82a7.76,7.76,0,0,1-.28-.9c-1.06-3.1-3.77-4.53-5.46-7-.55-.79-1-1.44-2-1.61-1.46-.24-2.21.6-3.24-.83-.27-.38-.76-.74-1.17-.52.1.3.21.61.31.92a.44.44,0,0,1,0,.2c0,.21-.33.26-.51.14a1.62,1.62,0,0,1-.38-.51,1.42,1.42,0,0,0-2.11-.2.82.82,0,0,0-.46-.68,1,1,0,0,1-1.22.78c-.08-.28.41-.32.58-.55s0-.53-.23-.72a3,3,0,0,0-1.92-.79,2.55,2.55,0,0,1-1.32-.17c-.23-.14-.38-.37-.61-.5a1.7,1.7,0,0,0-1.62.24,3.16,3.16,0,0,0-1.64,1.6c-.25.75.28,1.78,1,1.69a1.34,1.34,0,0,1,.59-.06.73.73,0,0,1,.42.7,2,2,0,0,0,.12.84c.13.26.53.39.69.15a1.57,1.57,0,0,0,.24-1.44,2,2,0,0,1,.12-1.48c.3-.41,1.15-.27,1.08.24,0,.29-.37.51-.36.81s.37.48.68.47a3,3,0,0,1,.9,0c.3.08.53.47.31.69-.37.42-1.32-.32-1.52.21a1.29,1.29,0,0,0,0,.44c0,.44-.59.6-1,.65a2.45,2.45,0,0,1-1.29-.11.85.85,0,0,1-.42-1.11.49.49,0,0,0-.69.25,1.51,1.51,0,0,0-.06.82c-.46-.11-.87.28-1.14.67s-.53.86-1,1-1.07-.06-1.32.35.57,1.24.26,1.78c-.19.3-.61.29-1,.38a1.49,1.49,0,0,0-.62,2.29,1.72,1.72,0,0,0,2.47,0,8.37,8.37,0,0,0,1-1.67c.33-.56.95-1.06,1.56-.87a1.88,1.88,0,0,1,.63.42l.89.77a.83.83,0,0,1,.37.62,2.09,2.09,0,0,1-.24.55c-.2.55.58,1.08,1.07.79a1.12,1.12,0,0,0,.22-1.54c-.45-.65-1.49-1-1.46-1.8.54-.43,1.38,0,1.68.68s.31,1.37.56,2,1,1.23,1.6.92c-.16-.56-.3-1.12-.46-1.68.4-.29.83.58,1.3.44.29-.08.33-.5.21-.78a3.84,3.84,0,0,1-.39-.82.93.93,0,0,1,1.07-.95,1.41,1.41,0,0,1,1,1.18,2.36,2.36,0,0,0,.14.65c.19.44.72.58,1.15.76s.89.64.7,1.08c-.08.2-.29.38-.22.58s.32.26.32.45-.13.21-.25.26c-.29.12-.61.15-.9.29a.82.82,0,0,0-.53.73c0,.45.56.67.8,1.05a5.12,5.12,0,0,1,.34,1.25,4.62,4.62,0,0,0,.66,1,11.29,11.29,0,0,1,1.23,3.57c.16.55.44,1.17,1,1.28A1.73,1.73,0,0,0,202,65a5.39,5.39,0,0,0,2.2-1.3,1.91,1.91,0,0,0,.2-2.38.46.46,0,0,0-.27-.17.81.81,0,0,0-.42.14,1.17,1.17,0,0,1-1.24-.29,3.41,3.41,0,0,1-.72-1.13c-.22-.45-.43-.91-.65-1.36a.75.75,0,0,1,.95.1,4.63,4.63,0,0,1,.64.82,4.13,4.13,0,0,0,2.79,1.37,2.67,2.67,0,0,1,.79.18c.78.38,1,1.56,1.82,1.82.23.08.49.07.71.17a1.33,1.33,0,0,1,.58.91,13.6,13.6,0,0,0,.5,2,1.82,1.82,0,0,0,1.48,1.24,1.32,1.32,0,0,0,1-.41l0-.08c0-.63.13-1.15.14-1.79,0-.13,0-.3,0-.43,0-.41,0-.8,0-1.21s-.08-.9-.11-1.31-.07-.58-.11-.9-.11-.69-.17-1c-.15-1-.58-2.82-.84-3.8"></path></g><g style="opacity:0.30000000000000004"><path d="M201.84,79.9c-.46.06-1-.17-1.34.13a1.53,1.53,0,0,0-.33.73,1.53,1.53,0,0,1-.65.88,1,1,0,0,1-1.05,0,.74.74,0,0,1-.13-1,4.31,4.31,0,0,1,.4-.32c.6-.57.2-1.65.67-2.33.27-.4.7-.81,1-1.22s.32-.56.74-.64C203,75.76,203.76,79.65,201.84,79.9Z"></path></g><g style="opacity:0.30000000000000004"><path d="M178.06,43.23a6.3,6.3,0,0,0-1.3,1.46c-.44.49-1.21.83-1.71.41a1.17,1.17,0,0,1-.37-.84A2.22,2.22,0,0,1,175,43c.25-.4.62-.71.83-1.13s.18-1-.24-1.24c-.22-.11-.51-.07-.71-.22-.36-.28-.09-.92.33-1.08a3.36,3.36,0,0,1,1.34,0c1.62.13,2.83-.95,4.06-1.83,1-.69,3-1.5,4.09-.77a.88.88,0,0,1,.18,1.35c-.18.14-.44.17-.61.33s-.24.5-.37.76c-.31.66-1.2.9-1.5,1.58-.17.4-.1.91-.37,1.27a1.58,1.58,0,0,1-.92.45l-2.13.49A3,3,0,0,0,178.06,43.23Z"></path></g><g style="opacity:0.30000000000000004"><path d="M158.31,55.79a1.27,1.27,0,0,1,1.83.08,2,2,0,0,1,.13,1.46l-.33,2a1,1,0,0,0,0,.6c.19.43.87.36,1.14,0a1.87,1.87,0,0,0,.18-1.36,2.62,2.62,0,0,1,0-1.39c.46-1.07,2-.89,2.95-1.58a5,5,0,0,0,1.18-1.79c.35-.64.92-1.27,1.63-1.23.24,0,.48.11.72.1a1,1,0,0,0,.63-1.57c-.1-.11-.24-.19-.31-.33a.6.6,0,0,1,.23-.71,1.78,1.78,0,0,1,.75-.23l1.8-.27c.67-.1,1.52-.44,1.43-1.11s-.85-.86-.95-1.44a1.94,1.94,0,0,0-.07-.42c-.18-.38-.73-.23-1.08,0a.86.86,0,0,0-1.32-.44c-.36.29-.41.81-.54,1.26a6.05,6.05,0,0,1-2,2.65,1.64,1.64,0,0,1-.95.54c-.37,0-.75-.4-.58-.73s.44-.35.41-.6-.58-.3-.68-.61c.22-.89,1.23-1.25,2-1.72a5,5,0,0,0,2.07-2.53.7.7,0,0,0,0-.53c-.11-.22-.41-.26-.66-.27-.6,0-1.34.06-1.56.62a7.79,7.79,0,0,0-.12,1c-.22.94-1.48,1-2.26,1.58a9.4,9.4,0,0,1-.88.68,3.37,3.37,0,0,1-1.19.18l-.21,0q-.37.51-.72,1.05c-.23.35-.45.72-.67,1.08a29.22,29.22,0,0,0-2.5,5.51c-.22.67-.42,1.36-.6,2.05s-.32,1.4-.44,2.12a8.14,8.14,0,0,0,.52-1.8A3.32,3.32,0,0,1,158.31,55.79Z"></path></g><g style="opacity:0.4"><path d="M212.5,64.54c0-.19,0-.39,0-.58v-.14l0-.61c0-.19,0-.39,0-.57s0-.57-.08-.85c-.08-.71-.18-1.4-.32-2.09a2.93,2.93,0,0,0-.05-.29l-.06-.27c0-.24-.1-.49-.16-.73a26.18,26.18,0,0,0-1.29-4l-.39-.92c-.2-.44-.4-.87-.62-1.29s-.35-.66-.53-1-.44-.76-.68-1.13c-.09-.15-.18-.29-.28-.43h0l-.21-.32-.11-.15c-.14-.21-.29-.41-.44-.62a2.12,2.12,0,0,0-.15-.21.76.76,0,0,0-.11-.14,3,3,0,0,0-.22-.28c-.29-.39-.6-.77-.91-1.13l-.05-.06c-.26-.31-.54-.61-.81-.9l-.26-.27-.19-.2h0c-.51-.51-1-1-1.58-1.48l-.25-.21-.35-.3c-.22-.19-.45-.36-.67-.54a2.31,2.31,0,0,1-.19-.14h0l-.33-.25h0a27.68,27.68,0,0,0-2.82-1.82l.54.36,0,0,.56.4h0l.33.24h0l.18.15c.23.17.45.35.67.53l.36.3.24.21c.55.47,1.08,1,1.58,1.48h0l.2.2c.36.38.72.77,1.07,1.17l0,.06a.81.81,0,0,1,.12.14c.35.41.69.84,1,1.27l.11.15.15.21c.1.14.21.28.31.43l.23.33.22.32h0l.42.66c.18.29.35.58.52.88s.43.78.64,1.19.35.72.52,1.1.27.61.4.93l.18.47a26.37,26.37,0,0,1,1.27,4.31,2.56,2.56,0,0,1,.05.27c0,.08,0,.16.05.23.09.46.17.91.22,1.37,0,.26.08.52.1.78.06.47.1.94.12,1.42,0,.2,0,.39,0,.59v0c0,.24,0,.48,0,.73v.56c0,.15,0,.31,0,.47,0,.57,0,1.14-.09,1.7,0,.33-.06.65-.1,1l0,.19c-.07.54-.15,1.07-.25,1.6l-.09.46a27.69,27.69,0,0,1-2.53,7.14l0,0c-.17.33-.35.65-.53,1a27.68,27.68,0,0,1-1.62,2.52,28.41,28.41,0,0,1-1.89,2.34c-.41.45-.83.89-1.26,1.31h0a27.51,27.51,0,0,1-2.91,2.47h0a28.14,28.14,0,0,1-5,2.94h0c-.54.25-1.1.48-1.67.7-.3.11-.59.22-.89.31-.46.16-.92.31-1.39.44a27.51,27.51,0,0,1-3.05.66,26.71,26.71,0,0,1-4.5.37,27.9,27.9,0,0,1-8.76-1.4c-.59-.2-1.17-.41-1.75-.65s-.92-.39-1.37-.6-.89-.44-1.32-.67L169.2,88c.3.2.6.39.91.57l.38.24.08,0,.13.08.75.42a25.6,25.6,0,0,0,2.7,1.27c.57.24,1.16.45,1.75.65a28,28,0,0,0,16.3.36l.46-.13q.47-.14.93-.3c.3-.1.6-.2.89-.32a28.07,28.07,0,0,0,4.42-2.12,28.92,28.92,0,0,0,3.29-2.3,27.48,27.48,0,0,0,3.13-3c.38-.43.76-.86,1.11-1.31a26.9,26.9,0,0,0,2-2.79c.16-.26.32-.52.47-.78s.35-.64.52-1c.28-.53.54-1.07.77-1.62h0a27.94,27.94,0,0,0,2.06-7.19c0-.09,0-.19,0-.29s0-.23,0-.34l.06-.5c0-.16,0-.32,0-.49l0-.34c0-.24,0-.49,0-.73s0-.41,0-.61,0-.48,0-.73C212.51,64.75,212.51,64.65,212.5,64.54Z"></path></g><circle cx="647.02" cy="414.09" r="21.94" transform="translate(-117.84 342.73) rotate(-27.29)" style="fill:#455a64"></circle><g style="opacity:0.30000000000000004"><path d="M645.14,392.17c.1.43.17.81.25,1.09a4.39,4.39,0,0,0-3,1.33c-.67.9-.55,2.15-.83,3.23a1.15,1.15,0,0,1-.53.82,1.32,1.32,0,0,1-.81,0c-1.59-.35-3.42-.87-4.71.13-.74.58-1.22,1.63-2.16,1.75s-1.7-.9-2-1.87A22,22,0,0,1,645.14,392.17Z"></path></g><g style="opacity:0.30000000000000004"><path d="M636.27,403.22a.28.28,0,0,1-.15,0c-2-1,.8-4.41,2.44-4.11a1.29,1.29,0,0,1,.73,2.08c-.66,1-2.06,1.1-2.86,2A.28.28,0,0,1,636.27,403.22Z"></path></g><g style="opacity:0.30000000000000004"><path d="M630.81,406.25c-.28.09-.56-.13-.74-.36a2.52,2.52,0,0,1-.09-2.84c1-1.45,3.7-1.6,4.06.43a1.62,1.62,0,0,1-1,1.78c-.38.13-.81.09-1.19.24a3.2,3.2,0,0,0-.8.58A.9.9,0,0,1,630.81,406.25Z"></path></g><g style="opacity:0.30000000000000004"><path d="M630.81,412.57c-.3,0-.59-.26-.87-.14s-.33.45-.58.48-.39-.24-.44-.46a2.88,2.88,0,0,1,.27-2.17.81.81,0,0,1,.25-.3,2,2,0,0,1,.89-.24,1.11,1.11,0,0,1,.92.69,2.54,2.54,0,0,1,.16,1.19C631.39,412,631.22,412.55,630.81,412.57Z"></path></g><g style="opacity:0.30000000000000004"><path d="M633.44,409.36c1.17-.92,3,.12,3.7,1.12.57.79,1,3.15-.72,2.93a2,2,0,0,1-1.41-.89,4,4,0,0,0-.64-1l-.08-.06c-.33-.24-.79-.3-1.07-.61A1,1,0,0,1,633.44,409.36Z"></path></g><g style="opacity:0.30000000000000004"><path d="M633.69,413a.63.63,0,0,1-.19.53.55.55,0,0,1-.43.1.86.86,0,0,1-.67-1,.87.87,0,0,1,.87-.58A1.41,1.41,0,0,1,633.69,413Z"></path></g><g style="opacity:0.30000000000000004"><path d="M633.5,412.1a.59.59,0,0,0-.23,0l-.08-.09Z"></path></g><g style="opacity:0.30000000000000004"><path d="M627.43,406.9a2,2,0,0,1,.18,1.48,8.32,8.32,0,0,1-.63,1.07c-.61,1.23.21,2.94-.7,4a2.2,2.2,0,0,1-1.17.63,21.92,21.92,0,0,1,1.58-8.19A3.19,3.19,0,0,1,627.43,406.9Z"></path></g><g style="opacity:0.30000000000000004"><path d="M626.64,422.07a22.64,22.64,0,0,1-1.42-5.85c1.13-1,2.14-1.86,3.87-1.58a2.32,2.32,0,0,1,2,1.75,3.47,3.47,0,0,1-.19,1.39c-.13.48-.27,1-.41,1.46a1.17,1.17,0,0,1-.25.54c-.43.45-1.18.05-1.8.12a1.62,1.62,0,0,0-1.12.77,9.19,9.19,0,0,0-.59,1.27A1.39,1.39,0,0,1,626.64,422.07Z"></path></g><g style="opacity:0.30000000000000004"><path d="M633.44,420.2a3.36,3.36,0,0,1-.09-.9,6.56,6.56,0,0,0-.39-1.21,1.26,1.26,0,0,1,.14-1.21.49.49,0,0,1,.35-.17.58.58,0,0,1,.37.19,6.86,6.86,0,0,1,1.44,2.08l-.21-.26a1.57,1.57,0,0,1,.28.86,1.21,1.21,0,0,1-.73,1.1A.94.94,0,0,1,633.44,420.2Z"></path></g><g style="opacity:0.30000000000000004"><path d="M656.34,399.56a1,1,0,0,0-.39-.23c-.43-.09-.75.4-1.17.54a1,1,0,0,1-1.16-.5c-1.18-1.92,1.64-3.24,3.18-2.46S658.76,401.37,656.34,399.56Z"></path></g><g style="opacity:0.30000000000000004"><path d="M653.71,410.29a9.52,9.52,0,0,1-.4-2.18,3,3,0,0,1,.28-1.73,3.18,3.18,0,0,1,2.64-1.2,4.21,4.21,0,0,1,2.53.44,8.35,8.35,0,0,1,1.26,1.12c.69.63,1.52,1.11,2.21,1.73a3.92,3.92,0,0,1,1.12,1.59,7.85,7.85,0,0,1,1.2,5,2.91,2.91,0,0,1-.89,2c-1.09.88-2.82.25-4,.95-1.06.62-1.47,2.13-2.65,2.5s-2.24-.59-3-1.51c-1.07-1.29-2.05-3-1.45-4.57.4-1,1.46-1.85,1.46-3A4.12,4.12,0,0,0,653.71,410.29Z"></path></g><g style="opacity:0.30000000000000004"><path d="M664.33,407.58c-.53-.34-1.06-.68-1.58-1a1.07,1.07,0,0,1-.4-.36.73.73,0,0,1,.43-1,1.23,1.23,0,0,1,1.16.29,3.64,3.64,0,0,1,.72,1l-.38-.45A1.43,1.43,0,0,1,664.33,407.58Z"></path></g><g style="opacity:0.30000000000000004"><path d="M666.37,411.54c-.09.32-.48.59-.77.41a.84.84,0,0,1-.3-.45l-.5-1.35a.68.68,0,0,1-.06-.44.43.43,0,0,1,.49-.25.92.92,0,0,1,.49.33,3.73,3.73,0,0,1,.62,1.59l-.11-.83A1.71,1.71,0,0,1,666.37,411.54Z"></path></g><g style="opacity:0.30000000000000004"><path d="M636.54,407.05a.6.6,0,0,1,.62-1A.6.6,0,0,1,636.54,407.05Z"></path></g><g style="opacity:0.30000000000000004"><path d="M638.54,403.57a.77.77,0,0,1-.79,1.31A.77.77,0,0,1,638.54,403.57Z"></path></g><g style="opacity:0.30000000000000004"><path d="M639,409.91a3.42,3.42,0,0,1,.34-4.22c.69-.7,1.81-1.05,2.48-.13a2.78,2.78,0,0,1-.2,2.93c-.39.75-.2,1.09,0,1.86a2.62,2.62,0,0,1,0,1.36,1.25,1.25,0,0,1-1.95.72C639.07,411.91,639.05,410.82,639,409.91Z"></path></g><g style="opacity:0.30000000000000004"><path d="M634.19,414.37a3.65,3.65,0,0,1,1.71.61l.18.11a1.31,1.31,0,0,1,.6,1.63,1.07,1.07,0,0,1-1.5.37,2.44,2.44,0,0,1-.58-.62,3.46,3.46,0,0,0-.79-.74C633.26,415.37,633.42,414.26,634.19,414.37Z"></path></g><g style="opacity:0.30000000000000004"><path d="M637.49,415.13a.72.72,0,0,1-.21-.38.52.52,0,0,1,.76-.56.62.62,0,0,1,.29.73A.5.5,0,0,1,637.49,415.13Z"></path></g><g style="opacity:0.30000000000000004"><path d="M650.16,413c-1-.33-1.13-1.49-1.25-2.4s-.36-2,.46-2.65a1.71,1.71,0,0,1,2.43.55,3.57,3.57,0,0,1,.43,2.76,1.43,1.43,0,0,1-.21.45,1.14,1.14,0,0,1-.06.25A1.48,1.48,0,0,1,650.16,413Z"></path></g><g style="opacity:0.30000000000000004"><path d="M649.85,415.48a.7.7,0,0,1-.05-.25v-.05a.82.82,0,0,1,.21-.81.69.69,0,0,1,1,0,1,1,0,0,1,0,1.44A.73.73,0,0,1,649.85,415.48Z"></path></g><g style="opacity:0.30000000000000004"><path d="M647.75,415.65c-.76-.08-1-.78-1.27-1.4a12.35,12.35,0,0,1-.74-2,1.47,1.47,0,0,1,.51-1.56,1,1,0,0,1,1.4.33,4.88,4.88,0,0,1,.47,1.89c0,.09,0,.18.07.27l0,0C649,413.86,649.25,415.83,647.75,415.65Z"></path></g><g style="opacity:0.30000000000000004"><path d="M668.77,410.85a4.31,4.31,0,0,1-2.4-2,5.26,5.26,0,0,1-.24-4.37,2.09,2.09,0,0,1,.17-1A21.86,21.86,0,0,1,668.77,410.85Z"></path></g><g style="opacity:0.30000000000000004"><path d="M660.24,424.1l-.13,0a2.52,2.52,0,0,1-2,.93.59.59,0,0,1-.89,0,1.37,1.37,0,0,1-.35-.95,1.59,1.59,0,0,1,.09-1.13c.31-.68.88-.9,1.45-1.29l0,0a7.89,7.89,0,0,0,.7-.85,3.25,3.25,0,0,1,.37-.52,1.32,1.32,0,0,1,1.78.2,1.63,1.63,0,0,1,.17.2c.3.08.38.46.39.79s.15.54.21.82l-.22-.56a3.7,3.7,0,0,1-.27,1.55A1.43,1.43,0,0,1,660.24,424.1Z"></path></g><g style="opacity:0.30000000000000004"><path d="M653.39,402.94a.87.87,0,0,1,.66,1.38,2.14,2.14,0,0,1-.66.53l-.19.11a1.18,1.18,0,0,0-.06.13,1.5,1.5,0,0,1-.44.64c-.46.38-1.35.14-1.29-.56a1.82,1.82,0,0,1,.51-1.12L652,404A1.48,1.48,0,0,1,653.39,402.94Z"></path></g><g style="opacity:0.30000000000000004"><path d="M655.33,429.11c.23-1.1,1.52-1.14,2.33-1.58s1-1.81,2.12-1.87a1.15,1.15,0,0,1,1.14,1.45,3.77,3.77,0,0,1-1.26,2.15,3.08,3.08,0,0,1-3.15,1.55A1.52,1.52,0,0,1,655.33,429.11Z"></path></g><g style="opacity:0.30000000000000004"><path d="M662.46,423.62a.61.61,0,0,1,1.11.17,2.76,2.76,0,0,1-.05,1.37c-.13.42-.48.94-1,.93l-.1,0a1.08,1.08,0,0,1-1.27-1.48,1.21,1.21,0,0,1,.57-.61C662,423.87,662.29,423.87,662.46,423.62Z"></path></g><g style="opacity:0.30000000000000004"><path d="M662.73,421.47A.51.51,0,0,1,663,421a.4.4,0,0,1,.48.08.5.5,0,0,1,.14.53.45.45,0,0,1-.5.32A.46.46,0,0,1,662.73,421.47Z"></path></g><g style="opacity:0.30000000000000004"><path d="M664.88,426.16c.79-1.54.55-2.71.25-4.31a4.25,4.25,0,0,1,.15-2.59c.62-1.38,2.09-1.91,3.51-2.2a21.67,21.67,0,0,1-2.93,8.28c-.32.53-.67,1-1,1.54A.91.91,0,0,1,664.88,426.16Z"></path></g><g style="opacity:0.30000000000000004"><path d="M667,416.28a.88.88,0,0,1-1.16-.35l0,0a.69.69,0,0,1-.17-.26.82.82,0,0,1,.36-1,2.09,2.09,0,0,1,.57-.26,5.46,5.46,0,0,1,2.43-.61c0,.71,0,1.43-.08,2.14A5,5,0,0,0,667,416.28Z"></path></g><g style="opacity:0.30000000000000004"><path d="M667.18,411.7a.49.49,0,0,1,.86,0,1.07,1.07,0,0,1,.07.19l0,.05a.6.6,0,0,1,0,.47.91.91,0,0,1-.16.4.8.8,0,0,1-.13.13.27.27,0,0,0-.07.08.44.44,0,0,1-.61,0,1,1,0,0,1-.31-.84A.84.84,0,0,1,667.18,411.7Z"></path></g><g style="opacity:0.30000000000000004"><path d="M664.77,418.49a.87.87,0,0,1-.52.3c-.36.69-1.21,1.27-1.79.64a.79.79,0,0,1,.2-1.16,6,6,0,0,1,1.48-.65A.54.54,0,0,1,664.77,418.49Z"></path></g><g style="opacity:0.30000000000000004"><path d="M630.43,407.18a1.23,1.23,0,0,1,1.24-.5,2.72,2.72,0,0,0,1.41-.21.62.62,0,0,1,.82.86,2.07,2.07,0,0,1-1.44,1,1.7,1.7,0,0,1-1.48-.21,2.09,2.09,0,0,1-.36-.19A.56.56,0,0,1,630.43,407.18Z"></path></g><g style="opacity:0.30000000000000004"><path d="M629.45,402.29a2.72,2.72,0,0,1-1.42.81l.22-.38a21.74,21.74,0,0,1,2.2-3,.19.19,0,0,1,0,.07A2.89,2.89,0,0,1,629.45,402.29Z"></path></g><g style="opacity:0.30000000000000004"><path d="M635.47,425.94c-.14-.78.69-1.34,1.35-1.52,1-.26,1.85,0,2.73-.59a3.83,3.83,0,0,1,2.29-1,1.44,1.44,0,0,1,1.32,1.11,1.77,1.77,0,0,1-.52,1.54,2.88,2.88,0,0,1-1,1.41,3.53,3.53,0,0,1-3.54.4C637,427.45,635.67,427.09,635.47,425.94Z"></path></g><g style="opacity:0.30000000000000004"><path d="M638.39,423.3a.84.84,0,0,1-.06-1,1,1,0,0,1,1.11-.46.61.61,0,0,1,.5.21c.51.54-.05,1.31-.66,1.43A1,1,0,0,1,638.39,423.3Z"></path></g><g style="opacity:0.30000000000000004"><path d="M643.34,427.13a.56.56,0,0,1-.4-.4,1.36,1.36,0,0,1,.39-1.21.58.58,0,0,1,.95.27.74.74,0,0,1,.14.87A.92.92,0,0,1,643.34,427.13Z"></path></g><g style="mix-blend-mode:multiply;opacity:0.2"><path d="M640.7,393.12a21.95,21.95,0,0,0,18.43,39.33,21.94,21.94,0,1,1-18.43-39.33Z"></path></g><path d="M674.49,407.67a2.31,2.31,0,1,1-.14.07" style="fill:#455a64"></path><path d="M670.08,402.52a1.23,1.23,0,1,1-.09,0" style="fill:#455a64"></path><path d="M425.75,410.62A38.53,38.53,0,1,0,468.65,377,38.53,38.53,0,0,0,425.75,410.62Z" style="fill:#A460ED"></path><path d="M455.29,427.37a8.38,8.38,0,1,0,9.33-7.31A8.39,8.39,0,0,0,455.29,427.37Z" style="fill:#A460ED"></path><g style="opacity:0.30000000000000004"><path d="M455.29,427.37a8.38,8.38,0,1,0,9.33-7.31A8.39,8.39,0,0,0,455.29,427.37Z"></path></g><path d="M454.37,427.34a8.12,8.12,0,0,0,7,9.28c4.58.56,8.51-3.05,9.07-7.64a7.84,7.84,0,0,0-7.05-8.93A8.1,8.1,0,0,0,454.37,427.34Z" style="fill:#A460ED"></path><g style="opacity:0.30000000000000004"><path d="M455.82,377.15A38.6,38.6,0,0,0,435.53,400a4.77,4.77,0,0,1,1.28,3.56c-.23,1.61-2,2.08-2.67,2.19-.1.56-.19,1.12-.26,1.68a38.5,38.5,0,0,0-.08,8.51c.11.09,3.28,2.46,3.46,4.68a7.25,7.25,0,0,1-1.42,4.44c.24.65.48,1.3.75,1.94a38.75,38.75,0,0,0,9.59,13.56,6,6,0,0,1,4.71,0c2.23,1.13,1.49,4.39,1.49,4.39l-.28.09a38.41,38.41,0,0,0,27.77,4.83,38.52,38.52,0,1,1-24.05-72.64Z"></path></g><g style="opacity:0.30000000000000004"><path d="M435.66,408.08a.92.92,0,0,0,.81,1,.94.94,0,0,0,1-.81.92.92,0,0,0-.81-1A.94.94,0,0,0,435.66,408.08Z"></path></g><path d="M478.09,432.45a13,13,0,0,1,2.35-4.8c.67-.94,1.62-1.94,2.77-1.79l1,.16a3.74,3.74,0,0,1,4.06,1,4.55,4.55,0,0,1,.89,3.88,8.79,8.79,0,0,1-1.83,3.66,16.89,16.89,0,0,1-3.32,3.22,4.3,4.3,0,0,1-2.34,1,3.27,3.27,0,0,1-2.48-1.23A6,6,0,0,1,478.09,432.45Z" style="fill:#A460ED"></path><g style="opacity:0.30000000000000004"><path d="M478,432.43a13,13,0,0,1,2.35-4.8c.67-.94,1.62-1.94,2.77-1.79l1,.16a3.74,3.74,0,0,1,4.06,1,4.57,4.57,0,0,1,.89,3.88,8.79,8.79,0,0,1-1.83,3.66,16.61,16.61,0,0,1-3.32,3.22,4.3,4.3,0,0,1-2.34,1,3.26,3.26,0,0,1-2.48-1.23A6,6,0,0,1,478,432.43Z"></path></g><path d="M477.18,432.34a13,13,0,0,1,2.35-4.8,4.3,4.3,0,0,1,2.77-1.79l1.51-.25a4.28,4.28,0,0,1,3.53,1.39,4.55,4.55,0,0,1,.89,3.88,8.69,8.69,0,0,1-1.83,3.65,16.94,16.94,0,0,1-3.32,3.23,3.7,3.7,0,0,1-2.2.85,2.89,2.89,0,0,1-2.21-1.34A5.68,5.68,0,0,1,477.18,432.34Z" style="fill:#A460ED"></path><path d="M466.42,446.07a11.7,11.7,0,0,1-4.13-.52c-.85-.23-1.8-.63-1.91-1.39l-.07-.65a2.16,2.16,0,0,1-.06-2.78,4.09,4.09,0,0,1,2.78-1.35,7.79,7.79,0,0,1,3.15.42,12.65,12.65,0,0,1,3.11,1.45,2.71,2.71,0,0,1,1.23,1.28,2,2,0,0,1-.45,1.82A5.33,5.33,0,0,1,466.42,446.07Z" style="fill:#A460ED"></path><g style="opacity:0.30000000000000004"><path d="M466.58,446.09a11.7,11.7,0,0,1-4.13-.52c-.85-.23-1.8-.63-1.91-1.39l-.07-.65a2.16,2.16,0,0,1-.06-2.78,4.09,4.09,0,0,1,2.78-1.35,7.79,7.79,0,0,1,3.15.42,12.65,12.65,0,0,1,3.11,1.45,2.71,2.71,0,0,1,1.23,1.28,2,2,0,0,1-.45,1.82A5.33,5.33,0,0,1,466.58,446.09Z"></path></g><path d="M465.61,446.26a11.7,11.7,0,0,1-4.13-.51,3.07,3.07,0,0,1-1.91-1.39l-.49-.91a2.5,2.5,0,0,1,.36-2.52,4.06,4.06,0,0,1,2.78-1.36,8.15,8.15,0,0,1,3.15.42,13.62,13.62,0,0,1,3.11,1.45,2.38,2.38,0,0,1,1.09,1.22c.21.6-.16,1.13-.58,1.68A4.91,4.91,0,0,1,465.61,446.26Z" style="fill:#A460ED"></path><path d="M446.1,391.29a13.23,13.23,0,0,1,4.39-3.05c1.05-.49,2.36-.91,3.29-.22l.78.62a3.71,3.71,0,0,1,3.07,2.83,4.6,4.6,0,0,1-1.1,3.82,8.8,8.8,0,0,1-3.38,2.31,16.8,16.8,0,0,1-4.47,1.2,4.27,4.27,0,0,1-2.53-.26,3.26,3.26,0,0,1-1.57-2.28A6,6,0,0,1,446.1,391.29Z" style="fill:#A460ED"></path><g style="opacity:0.30000000000000004"><path d="M446.1,391.29a13.23,13.23,0,0,1,4.39-3.05c1.05-.49,2.36-.91,3.29-.22l.78.62a3.71,3.71,0,0,1,3.07,2.83,4.6,4.6,0,0,1-1.1,3.82,8.8,8.8,0,0,1-3.38,2.31,16.8,16.8,0,0,1-4.47,1.2,4.27,4.27,0,0,1-2.53-.26,3.26,3.26,0,0,1-1.57-2.28A6,6,0,0,1,446.1,391.29Z"></path></g><path d="M444.67,391.7a13.09,13.09,0,0,1,4.38-3.05,4.36,4.36,0,0,1,3.29-.22l1.44.52a4.28,4.28,0,0,1,2.41,2.93,4.6,4.6,0,0,1-1.1,3.82,8.8,8.8,0,0,1-3.38,2.31,16.8,16.8,0,0,1-4.47,1.2,3.77,3.77,0,0,1-2.34-.32,2.93,2.93,0,0,1-1.28-2.25A5.65,5.65,0,0,1,444.67,391.7Z" style="fill:#A460ED"></path><path d="M482.63,419.25a1.88,1.88,0,0,1,.72-1,2.53,2.53,0,0,1,1.74-.21,1.83,1.83,0,0,1,1.22,1,2.65,2.65,0,0,1,.44,2,2.19,2.19,0,0,1-1.29,1.57,2.21,2.21,0,0,1-2.43-.72A2.8,2.8,0,0,1,482.63,419.25Z" style="fill:#A460ED"></path><g style="opacity:0.30000000000000004"><path d="M482.5,419.23a1.94,1.94,0,0,1,.73-1A2.65,2.65,0,0,1,485,418a1.88,1.88,0,0,1,1.22,1,2.62,2.62,0,0,1,.43,2,2.14,2.14,0,0,1-1.28,1.56,2.19,2.19,0,0,1-2.43-.72A2.77,2.77,0,0,1,482.5,419.23Z"></path></g><path d="M482.23,419.27a1.8,1.8,0,0,1,.67-1,2.31,2.31,0,0,1,1.6-.19,1.68,1.68,0,0,1,1.12.89,2.41,2.41,0,0,1,.4,1.84,2,2,0,0,1-1.18,1.44,2,2,0,0,1-2.23-.66A2.58,2.58,0,0,1,482.23,419.27Z" style="fill:#A460ED"></path><g style="opacity:0.2"><path d="M482.23,419.27a1.8,1.8,0,0,1,.67-1,2.31,2.31,0,0,1,1.6-.19,1.68,1.68,0,0,1,1.12.89,2.41,2.41,0,0,1,.4,1.84,2,2,0,0,1-1.18,1.44,2,2,0,0,1-2.23-.66A2.58,2.58,0,0,1,482.23,419.27Z"></path></g><path d="M486.17,396.13a1.52,1.52,0,0,1,.58-.84,2.09,2.09,0,0,1,1.4-.17,1.49,1.49,0,0,1,1,.78,2.15,2.15,0,0,1,.35,1.61,1.74,1.74,0,0,1-1,1.26,1.78,1.78,0,0,1-2-.58A2.23,2.23,0,0,1,486.17,396.13Z" style="fill:#A460ED"></path><g style="opacity:0.30000000000000004"><path d="M486.07,396.11a1.49,1.49,0,0,1,.58-.83,2,2,0,0,1,1.4-.17,1.49,1.49,0,0,1,1,.78,2.15,2.15,0,0,1,.35,1.61,1.66,1.66,0,0,1-3,.68A2.25,2.25,0,0,1,486.07,396.11Z"></path></g><path d="M485.85,396.14a1.42,1.42,0,0,1,.54-.77,1.89,1.89,0,0,1,1.29-.15,1.36,1.36,0,0,1,.9.71,2,2,0,0,1,.32,1.49,1.53,1.53,0,0,1-2.75.62A2,2,0,0,1,485.85,396.14Z" style="fill:#A460ED"></path><g style="opacity:0.2"><path d="M485.85,396.14a1.42,1.42,0,0,1,.54-.77,1.89,1.89,0,0,1,1.29-.15,1.36,1.36,0,0,1,.9.71,2,2,0,0,1,.32,1.49,1.53,1.53,0,0,1-2.75.62A2,2,0,0,1,485.85,396.14Z"></path></g><path d="M465.67,384.51a2,2,0,0,1,.77-1.09,2.66,2.66,0,0,1,1.83-.22,2,2,0,0,1,1.29,1,2.83,2.83,0,0,1,.45,2.11,2.27,2.27,0,0,1-1.35,1.65,2.31,2.31,0,0,1-2.56-.76A2.94,2.94,0,0,1,465.67,384.51Z" style="fill:#A460ED"></path><g style="opacity:0.30000000000000004"><path d="M465.54,384.5a2,2,0,0,1,.77-1.1,2.72,2.72,0,0,1,1.83-.22,2,2,0,0,1,1.29,1,2.85,2.85,0,0,1,.45,2.12,2.25,2.25,0,0,1-1.35,1.64,2.31,2.31,0,0,1-2.56-.75A3,3,0,0,1,465.54,384.5Z"></path></g><path d="M465.26,384.53a1.86,1.86,0,0,1,.7-1,2.57,2.57,0,0,1,1.69-.2,1.8,1.8,0,0,1,1.18.94,2.58,2.58,0,0,1,.42,1.94,2.11,2.11,0,0,1-1.24,1.52,2.14,2.14,0,0,1-2.36-.7A2.7,2.7,0,0,1,465.26,384.53Z" style="fill:#A460ED"></path><g style="opacity:0.2"><path d="M465.26,384.53a1.86,1.86,0,0,1,.7-1,2.57,2.57,0,0,1,1.69-.2,1.8,1.8,0,0,1,1.18.94,2.58,2.58,0,0,1,.42,1.94,2.11,2.11,0,0,1-1.24,1.52,2.14,2.14,0,0,1-2.36-.7A2.7,2.7,0,0,1,465.26,384.53Z"></path></g><path d="M473.21,385.86a1,1,0,0,1,.39-.55,1.35,1.35,0,0,1,.91-.11,1,1,0,0,1,.65.51,1.43,1.43,0,0,1,.22,1.06,1.12,1.12,0,0,1-.67.82,1.16,1.16,0,0,1-1.28-.38A1.48,1.48,0,0,1,473.21,385.86Z" style="fill:#A460ED"></path><g style="opacity:0.30000000000000004"><path d="M473.15,385.85a1,1,0,0,1,.38-.55,1.37,1.37,0,0,1,.92-.11,1,1,0,0,1,.64.51,1.43,1.43,0,0,1,.23,1.06,1.13,1.13,0,0,1-.68.82,1.15,1.15,0,0,1-1.28-.38A1.45,1.45,0,0,1,473.15,385.85Z"></path></g><path d="M473,385.87a.91.91,0,0,1,.35-.51,1.26,1.26,0,0,1,.84-.1.91.91,0,0,1,.59.47,1.29,1.29,0,0,1,.21,1,1,1,0,0,1-.62.76,1.07,1.07,0,0,1-1.18-.35A1.34,1.34,0,0,1,473,385.87Z" style="fill:#A460ED"></path><g style="opacity:0.2"><path d="M473,385.87a.91.91,0,0,1,.35-.51,1.26,1.26,0,0,1,.84-.1.91.91,0,0,1,.59.47,1.29,1.29,0,0,1,.21,1,1,1,0,0,1-.62.76,1.07,1.07,0,0,1-1.18-.35A1.34,1.34,0,0,1,473,385.87Z"></path></g><g style="opacity:0.2"><path d="M454.37,427.34a8.12,8.12,0,0,0,7,9.28c4.58.56,8.51-3.05,9.07-7.64a7.84,7.84,0,0,0-7.05-8.93A8.1,8.1,0,0,0,454.37,427.34Z"></path></g><g style="opacity:0.2"><path d="M477.18,432.34a13,13,0,0,1,2.35-4.8,4.3,4.3,0,0,1,2.77-1.79l1.51-.25a4.28,4.28,0,0,1,3.53,1.39,4.55,4.55,0,0,1,.89,3.88,8.69,8.69,0,0,1-1.83,3.65,16.94,16.94,0,0,1-3.32,3.23,3.7,3.7,0,0,1-2.2.85,2.89,2.89,0,0,1-2.21-1.34A5.68,5.68,0,0,1,477.18,432.34Z"></path></g><g style="opacity:0.2"><path d="M465.61,446.26a11.7,11.7,0,0,1-4.13-.51,3.07,3.07,0,0,1-1.91-1.39l-.49-.91a2.5,2.5,0,0,1,.36-2.52,4.06,4.06,0,0,1,2.78-1.36,8.15,8.15,0,0,1,3.15.42,13.62,13.62,0,0,1,3.11,1.45,2.38,2.38,0,0,1,1.09,1.22c.21.6-.16,1.13-.58,1.68A4.91,4.91,0,0,1,465.61,446.26Z"></path></g><g style="opacity:0.2"><path d="M444.67,391.7a13.09,13.09,0,0,1,4.38-3.05,4.36,4.36,0,0,1,3.29-.22l1.44.52a4.28,4.28,0,0,1,2.41,2.93,4.6,4.6,0,0,1-1.1,3.82,8.8,8.8,0,0,1-3.38,2.31,16.8,16.8,0,0,1-4.47,1.2,3.77,3.77,0,0,1-2.34-.32,2.93,2.93,0,0,1-1.28-2.25A5.65,5.65,0,0,1,444.67,391.7Z"></path></g><ellipse cx="81.83" cy="391.25" rx="29.85" ry="28.35" style="fill:#A460ED"></ellipse><g style="opacity:0.2"><path d="M72.86,366.69a19.2,19.2,0,0,0,6,5c.55.33,1-.42.75-.85-1.28-1.89-2.43-3.73-3.88-5.51-.4-.49-.78-1-1.19-1.56a30.72,30.72,0,0,0-3.11.91A24.67,24.67,0,0,0,72.86,366.69Z"></path><path d="M70.94,371.65a44,44,0,0,0,14.13,11.67,51.15,51.15,0,0,0,18.09,5.61,43.47,43.47,0,0,0,8.43.24,26.23,26.23,0,0,0-.39-2.92,32,32,0,0,1-7.06,0,49.78,49.78,0,0,1-15.27-4A45.12,45.12,0,0,1,76.18,374c-2.34-2.19-5.41-5.23-6.8-8.51-.6.27-1.19.55-1.78.85A26.57,26.57,0,0,0,70.94,371.65Z" style="fill:#fff"></path><path d="M92.93,370.52c2.58,1.58,8,3.58,11.58,2.31q-1-1.12-2.13-2.13a6,6,0,0,1-.63.08,13.67,13.67,0,0,1-6.38-1.46c-2.3-1-5.88-3.21-7.6-5.84q-.93-.18-1.86-.3C87,366.25,90.42,369,92.93,370.52Z" style="fill:#fff"></path><path d="M65.93,380.92c5,5.48,11.35,9.4,18.12,12.62A53,53,0,0,0,103.77,399a41.83,41.83,0,0,0,6.8-.11,26.86,26.86,0,0,0,1.08-6.53,43.61,43.61,0,0,1-9.14-.27,54.58,54.58,0,0,1-16.39-5.26,54.84,54.84,0,0,1-14.87-10,42.46,42.46,0,0,1-5.5-6.79c-.42-.63-.8-1.28-1.17-1.92a30,30,0,0,0-4.74,4A38,38,0,0,0,65.93,380.92Z"></path><path d="M61.92,400.78A97.82,97.82,0,0,1,52,392.85c0,.75.12,1.5.23,2.25,6.82,6.78,15.65,12.1,24.17,16.14a97.55,97.55,0,0,0,16.84,6.19c.56-.22,1.12-.46,1.67-.71a95.62,95.62,0,0,1-17.43-6.6A110.3,110.3,0,0,1,61.92,400.78Z"></path><path d="M91,374.63a26.76,26.76,0,0,0,12.11,4,22.61,22.61,0,0,0,5.27-.3,25.76,25.76,0,0,0-1.38-2.29,16.15,16.15,0,0,1-4.39.27,24.8,24.8,0,0,1-10.29-3.28c-4.48-2.5-8.94-5.88-11.7-10.13-.7,0-1.39.08-2.09.15C81.26,368,86.81,372.12,91,374.63Z" style="fill:#fff"></path><path d="M101.27,412.76a74.5,74.5,0,0,1-7.94-1.07A64.88,64.88,0,0,1,63.91,398c-4.06-3.21-8.64-6.78-11.58-11.09-.1.67-.19,1.33-.25,2,2.34,3.25,6,6,8.84,8.46a75.15,75.15,0,0,0,15.18,10.3,71.89,71.89,0,0,0,22.67,6.87l.22-.14C99.79,413.91,100.54,413.35,101.27,412.76Z" style="fill:#fff"></path><path d="M78.51,404.43a73.81,73.81,0,0,0,22.07,6.46c.84.1,1.67.18,2.51.25a28.11,28.11,0,0,0,6.27-8.95,46.71,46.71,0,0,1-8.6-.44A66.59,66.59,0,0,1,82,396a57.83,57.83,0,0,1-16.68-11.37,47.26,47.26,0,0,1-6.64-8.45c-.32-.52-.63-1.08-.94-1.63A27.57,27.57,0,0,0,53,384.08a46.37,46.37,0,0,0,5,6.16A67.39,67.39,0,0,0,78.51,404.43Z" style="fill:#fff"></path><path d="M99.77,380.36c-2.36-.75-4.76-.85-7.07-1.92s-4.47-2.83-7-3.46a1.16,1.16,0,0,0-1,2c2.06,1.84,5.34,3.09,7.92,4.21,2.09.9,4.93,1.58,7.09.57C100.26,381.53,100.52,380.6,99.77,380.36Z"></path><path d="M68.72,411.79a7.61,7.61,0,0,0-1.63-.4c-.6-.07-.93.77-.33,1A5.71,5.71,0,0,1,68,413a5.64,5.64,0,0,0,1.32.54.46.46,0,0,0,.58-.65A2.36,2.36,0,0,0,68.72,411.79Z" style="fill:#fff"></path><path d="M85.1,416.44c-3.1-1.14-6.15-3.17-9.43-3.71-.74-.12-1.45.77-.91,1.37,2.31,2.61,6.34,3.88,9.61,5l.82.28a30.49,30.49,0,0,0,5.64-1.14C88.89,417.73,87,417.13,85.1,416.44Z"></path><path d="M63.35,408.45c1,.24,1.27-.95.73-1.49-1.89-1.88-4.63-3-6.79-4.68-1.42-1.08-2.82-2.18-4.19-3.33a26.78,26.78,0,0,0,1.52,3.95C57.18,405.44,60.17,407.68,63.35,408.45Z" style="fill:#fff"></path></g><path d="M68.6,414.7a4.62,4.62,0,0,1-.87-.35,19.67,19.67,0,0,1-2.24-1.2,26,26,0,0,1-6.35-5.51,27.38,27.38,0,0,1-2.64-3.82,23.36,23.36,0,0,1-1.58-3.44c-.2-.5-.33-1-.46-1.38a10.36,10.36,0,0,1-.27-1.06A3.89,3.89,0,0,1,54,397c.08,0,.37,1.28,1.17,3.26a28.46,28.46,0,0,0,1.65,3.36,30.87,30.87,0,0,0,2.62,3.74,28.76,28.76,0,0,0,6.18,5.52C67.43,414.06,68.64,414.62,68.6,414.7Z" style="fill:#fff"></path><path d="M110,395.52c0,.15-.77.31-2.2.45l-1.19.11c-.44,0-.91,0-1.42,0a28.61,28.61,0,0,1-3.47-.13l-2-.19c-.7-.08-1.42-.23-2.16-.36a45.64,45.64,0,0,1-4.73-1.07,53.8,53.8,0,0,1-10.27-4.19,54.61,54.61,0,0,1-9.12-6.33A46.75,46.75,0,0,1,70,380.44c-.51-.56-1-1.07-1.47-1.62l-1.26-1.58a32,32,0,0,1-2-2.83c-.27-.43-.54-.82-.76-1.2l-.56-1.06c-.65-1.28-.95-2-.82-2.09s.67.52,1.53,1.64l.7.93c.26.34.57.68.89,1.07.65.76,1.32,1.67,2.19,2.56l1.33,1.45c.46.5,1,1,1.51,1.48,1,1.05,2.24,2,3.49,3.11a56.35,56.35,0,0,0,18.68,10.14c1.57.46,3.07.94,4.5,1.22.72.16,1.4.35,2.07.46l1.93.33c1.23.25,2.36.31,3.35.44.5.06,1,.13,1.38.16l1.17.08C109.24,395.24,110,395.38,110,395.52Z" style="fill:#A460ED"></path><path d="M93.53,417.2s.06-.05.18-.12l.57-.31,2.21-1.17h.05s-.09,0-.08.07l0-.06.35-.22h0a28.79,28.79,0,0,0,7.16-6.3l.13-.06s-.18.07-.16.13l0-.07A28,28,0,0,0,108.9,383l.18.15h-.14l0-.14a24.28,24.28,0,0,0-1.46-3.76A27.26,27.26,0,0,0,95.3,367a31.14,31.14,0,0,0-13.77-3.46A29.48,29.48,0,0,0,72,365c-1.09.37-1.92.68-2.47.93l-.63.26-.23.08a21.17,21.17,0,0,1,3.27-1.42,28.32,28.32,0,0,1,9.59-1.57,31,31,0,0,1,14,3.41,29,29,0,0,1,7,5,25.77,25.77,0,0,1,5.38,7.42,24.51,24.51,0,0,1,1.48,3.83l-.18-.16h0l.14,0,0,.13a28.19,28.19,0,0,1-5,26.41l0-.08c0,.07-.12.17-.17.14l.13-.06a28,28,0,0,1-7.3,6.26l0,0h0l-.36.21,0-.06s-.07.09-.09.07h0l-2.26,1.1-.59.28Z" style="fill:#fff"></path><path d="M56,377c.17-.3.36-.58.53-.87C43.21,370.78,36.13,369.27,34,370a.71.71,0,0,0-.34.19l0,.08c0,.09,0,.28,0,.36.48,1.49,5,7.78,42.93,26.28C99.41,408,117.7,413.8,124,414.49a.79.79,0,0,0,.69-1.33c-2.21-2.14-7.29-5.89-15.4-10.8-.12.23-.22.47-.34.69,6.66,4.07,10.5,7.09,10,8.09-1.08,2-19.41-4.86-40.94-15.34s-38.09-20.6-37-22.61C41.53,372.09,47.32,373.66,56,377Z" style="fill:#A460ED"></path><path d="M110.47,399.56c-.07.21-.16.4-.24.6,10.38,6.22,17.25,11.39,18.06,13.91a1.85,1.85,0,0,1-.61,2.13c-.66.53-2.69,2.14-18.43-3.15A291.39,291.39,0,0,1,75.44,399c-4.91-2.39-10.09-5-15.11-7.63-14.48-7.61-27.62-15.57-29-20.05a2.61,2.61,0,0,1,.16-2.14,2.84,2.84,0,0,1,1.75-1.39c3.82-1.25,14,2.09,24.64,6.41.09-.12.16-.24.25-.35-18-7.14-30.75-10.07-32.77-7.35-4.35,5.87,19,20.62,48.82,35.16s57,21.73,59.33,17.48C135,416.29,125.64,408.64,110.47,399.56Z" style="fill:#A460ED"></path><path d="M112.47,407.24c.17.17-1.81,0-1.86,0a20,20,0,0,1-2.17-.63c-1.93-.59-3.83-1.28-5.7-2-2.64-1.05-5.19-2.44-8-3.14a.26.26,0,0,0-.19.47c4.43,3.05,11,5.37,16.32,6.42.76.15,1.94.48,2.42-.35a.84.84,0,0,0-.44-1.27.35.35,0,0,0-.42.54Z" style="fill:#A460ED"></path><g style="opacity:0.30000000000000004"><path d="M56,377c.17-.3.36-.58.53-.87C43.21,370.78,36.13,369.27,34,370a.71.71,0,0,0-.34.19l0,.08c0,.09,0,.28,0,.36.48,1.49,5,7.78,42.93,26.28C99.41,408,117.7,413.8,124,414.49a.79.79,0,0,0,.69-1.33c-2.21-2.14-7.29-5.89-15.4-10.8-.12.23-.22.47-.34.69,6.66,4.07,10.5,7.09,10,8.09-1.08,2-19.41-4.86-40.94-15.34s-38.09-20.6-37-22.61C41.53,372.09,47.32,373.66,56,377Z"></path><path d="M112.47,407.24c.17.17-1.81,0-1.86,0a20,20,0,0,1-2.17-.63c-1.93-.59-3.83-1.28-5.7-2-2.64-1.05-5.19-2.44-8-3.14a.26.26,0,0,0-.19.47c4.43,3.05,11,5.37,16.32,6.42.76.15,1.94.48,2.42-.35a.84.84,0,0,0-.44-1.27.35.35,0,0,0-.42.54Z"></path></g><g style="opacity:0.30000000000000004"><path d="M110.47,399.56c-.07.21-.16.4-.24.6,10.38,6.22,17.25,11.39,18.06,13.91a1.85,1.85,0,0,1-.61,2.13c-.66.53-2.69,2.14-18.43-3.15A291.39,291.39,0,0,1,75.44,399c-4.91-2.39-10.09-5-15.11-7.63-14.48-7.61-27.62-15.57-29-20.05a2.61,2.61,0,0,1,.16-2.14,2.84,2.84,0,0,1,1.75-1.39c3.82-1.25,14,2.09,24.64,6.41.09-.12.16-.24.25-.35-18-7.14-30.75-10.07-32.77-7.35-4.35,5.87,19,20.62,48.82,35.16s57,21.73,59.33,17.48C135,416.29,125.64,408.64,110.47,399.56Z"></path></g></g><g id="freepik--Satellite--inject-59"><path d="M352.75,456l-12.48-2.74a.51.51,0,0,0-.21,1L352.54,457a.51.51,0,0,0,.21-1Z" style="fill:#455a64"></path><path d="M353.34,453.33l-12.48-2.75a.51.51,0,0,0-.21,1l12.48,2.75a.51.51,0,0,0,.21-1Z" style="fill:#455a64"></path><polygon points="369.28 465.42 372.23 452.01 352.26 447.62 349.38 460.69 349.33 461.03 369.28 465.42" style="fill:#455a64"></polygon><rect x="354.9" y="447.3" width="11.77" height="18.44" transform="translate(-162.67 710.63) rotate(-77.57)" style="fill:#fff"></rect><rect x="363.77" y="450.82" width="0.86" height="12.84" transform="translate(626.34 979.74) rotate(-168.1)" style="fill:#455a64"></rect><rect x="360.36" y="446.87" width="0.86" height="19.29" transform="translate(881.89 197.62) rotate(101.9)" style="fill:#455a64"></rect><rect x="357.39" y="449.48" width="0.86" height="12.84" transform="translate(613.98 975.76) rotate(-168.1)" style="fill:#455a64"></rect><path d="M324.34,448.21,336.82,451a.51.51,0,0,0,.21-1l-12.48-2.74a.5.5,0,0,0-.21,1Z" style="fill:#455a64"></path><path d="M323.75,450.91l12.48,2.74a.51.51,0,0,0,.21-1L324,449.92a.51.51,0,0,0-.2,1Z" style="fill:#455a64"></path><polygon points="331.93 427.79 336.99 437.47 348.14 440.13 356.59 433.32 331.93 427.79" style="fill:#455a64"></polygon><rect x="339.76" y="429.26" width="9.1" height="0.94" transform="translate(-143.67 684.86) rotate(-78.9)" style="fill:#455a64"></rect><path d="M346.45,426.44a2.06,2.06,0,1,1,.62-2.84A2.06,2.06,0,0,1,346.45,426.44Z" style="fill:#455a64"></path><polygon points="336.99 437.47 336.62 439.16 333.53 441.14 329.46 459.65 331.08 462.18 330.78 463.52 342.85 466.16 343.19 464.63 345.65 463.05 349.56 444.49 347.76 441.62 348.11 440.12 336.99 437.47" style="fill:#455a64"></polygon><polygon points="307.81 438.82 304.86 452.23 324.83 456.62 327.7 443.55 327.75 443.2 307.81 438.82" style="fill:#455a64"></polygon><rect x="310.42" y="438.5" width="11.77" height="18.44" transform="translate(-188.99 660.27) rotate(-77.57)" style="fill:#fff"></rect><rect x="312.45" y="440.57" width="0.86" height="12.84" transform="translate(98.91 -54.92) rotate(11.9)" style="fill:#455a64"></rect><rect x="315.87" y="438.08" width="0.86" height="19.29" transform="translate(-187.01 664.94) rotate(-78.1)" style="fill:#455a64"></rect><rect x="318.84" y="441.92" width="0.86" height="12.84" transform="translate(99.26 -56.18) rotate(11.89)" style="fill:#455a64"></rect><path d="M349.49,444.7a79,79,0,0,1-8.07-1.48c-4.43-.94-8-1.79-8-1.9a80.31,80.31,0,0,1,8.07,1.49A80.82,80.82,0,0,1,349.49,444.7Z" style="fill:#263238"></path><path d="M333.53,441.14a10.43,10.43,0,0,1-.21,1.37c-.19.95-.43,2.2-.73,3.71-.63,3.13-1.52,7.45-2.54,12.21-.09.41-.17.82-.25,1.2l-.17-.25c4.49.95,8.5,1.82,11.39,2.46l3.4.79a7.51,7.51,0,0,1,1.23.34,8.55,8.55,0,0,1-1.27-.19l-3.42-.66c-2.9-.57-6.92-1.39-11.41-2.33l-.21-.05.05-.2c.08-.38.16-.79.25-1.2,1-4.76,2-9.07,2.66-12.18l.86-3.68A8.58,8.58,0,0,1,333.53,441.14Z" style="fill:#263238"></path><path d="M343.16,464.76a43.27,43.27,0,0,1-6.09-1.07,46.63,46.63,0,0,1-6-1.47,44.31,44.31,0,0,1,6.09,1.06A48.15,48.15,0,0,1,343.16,464.76Z" style="fill:#263238"></path><path d="M347.76,441.62a40.12,40.12,0,0,1-5.68-1,37.74,37.74,0,0,1-5.59-1.39,41.41,41.41,0,0,1,5.68,1A38.9,38.9,0,0,1,347.76,441.62Z" style="fill:#263238"></path><path d="M348.25,440.05a40.63,40.63,0,0,1-5.67-1,41.06,41.06,0,0,1-5.58-1.39,37.79,37.79,0,0,1,5.67,1A38.23,38.23,0,0,1,348.25,440.05Z" style="fill:#263238"></path><path d="M358.38,459.3a31.51,31.51,0,0,1,4.23-3,34.53,34.53,0,0,1,4.45-2.61,31,31,0,0,1-4.22,3A31.66,31.66,0,0,1,358.38,459.3Z" style="fill:#263238"></path><path d="M355.42,458.29a9.41,9.41,0,0,1,2.25-1.78,9.56,9.56,0,0,1,2.49-1.43,10.31,10.31,0,0,1-2.25,1.78A10.52,10.52,0,0,1,355.42,458.29Z" style="fill:#263238"></path><path d="M311.63,451.08a102,102,0,0,1,11.68-5.59,49.31,49.31,0,0,1-5.75,3A49.5,49.5,0,0,1,311.63,451.08Z" style="fill:#263238"></path><path d="M309.38,450.31a21.21,21.21,0,0,1,3-1.61,21.9,21.9,0,0,1,3-1.53,10.18,10.18,0,0,1-2.81,1.9A10.33,10.33,0,0,1,309.38,450.31Z" style="fill:#263238"></path></g><g id="freepik--Rocks--inject-59"><path d="M370,368.73s3.05,8.34-1.59,19.46-6.85,18.17-14,19-19.46.42-19.46.42l-.61-20.24Z" style="fill:#ae7461"></path><g style="opacity:0.30000000000000004"><path d="M370,368.73s3.05,8.34-1.59,19.46-6.85,18.17-14,19-19.46.42-19.46.42l-.61-20.24Z"></path></g><path d="M321.53,372.37s9.54,13.66,12.17,15.7l1.5,2c2.1-.81,24.12-7.51,25.23-9.35a4.39,4.39,0,0,0,.4-3.64l3.36,1.15,5.8-9.53-25,3s2.65-2.31,1.05-3.16S321.53,372.37,321.53,372.37Z" style="fill:#ae7461"></path><path d="M335,407.61a59,59,0,0,1-7.21-14.83c-3.22-9.45-6.24-20.41-6.24-20.41L335.2,390.1Z" style="fill:#6f4439"></path><g style="opacity:0.30000000000000004"><path d="M360.43,380.75l1.1,11.46,2.66-13.95-3.36-1.15S361.37,379.4,360.43,380.75Z"></path></g><path d="M609.18,151.92s1.75,4.79-.92,11.18-3.93,10.43-8,10.91a98.36,98.36,0,0,1-11.18.24l-.35-11.63Z" style="fill:#ae7461"></path><g style="opacity:0.30000000000000004"><path d="M609.18,151.92s1.75,4.79-.92,11.18-3.93,10.43-8,10.91a98.36,98.36,0,0,1-11.18.24l-.35-11.63Z"></path></g><path d="M581.35,154s5.47,7.85,7,9l.86,1.16c1.2-.46,13.85-4.31,14.49-5.37a2.51,2.51,0,0,0,.23-2.09l1.93.66,3.33-5.47-14.38,1.73-9.89-2Z" style="fill:#ae7461"></path><path d="M589.07,174.25a33.81,33.81,0,0,1-4.14-8.52c-1.85-5.42-3.58-11.72-3.58-11.72l7.85,10.18Z" style="fill:#6f4439"></path><g style="opacity:0.30000000000000004"><path d="M603.69,158.82l.63,6.59,1.53-8-1.93-.66A3.08,3.08,0,0,1,603.69,158.82Z"></path></g><polygon points="250.58 177.89 255.9 169.63 268.13 177.87 279.57 173.09 267.43 181.36 258.29 183.19 250.58 177.89" style="fill:#6f4439"></polygon><polygon points="255.9 156.86 250.58 164.31 250.58 177.89 255.9 169.63 255.9 156.86" style="fill:#ae7461"></polygon><g style="opacity:0.30000000000000004"><polygon points="255.9 156.86 250.58 164.31 250.58 177.89 255.9 169.63 255.9 156.86"></polygon></g><path d="M262.55,154.2a69,69,0,0,0-6.65,2.66v12.77l12.23,8.24,11.44-4.79c.48-1.17,1.06-7,1.06-7Z" style="fill:#ae7461"></path><polygon points="580.03 454.89 577.61 443.68 594.51 440.4 600 427.02 596.81 443.87 590.77 452.91 580.03 454.89" style="fill:#6f4439"></polygon><polygon points="567.09 433.14 568.84 443.68 580.03 454.89 577.61 443.68 567.09 433.14" style="fill:#ae7461"></polygon><g style="opacity:0.30000000000000004"><polygon points="567.09 433.14 568.84 443.68 580.03 454.89 577.61 443.68 567.09 433.14"></polygon></g><path d="M570.38,425.47a80.47,80.47,0,0,0-3.29,7.67l10.52,10.54,16.9-3.28L600,427c-.57-1.36-4.93-6.69-4.93-6.69Z" style="fill:#ae7461"></path><polygon points="147.77 464.27 157.64 461.54 155.51 455.31 147.06 442.26 136.79 449.43 138.85 457.45 147.77 464.27" style="fill:#6f4439"></polygon><polygon points="136.79 449.43 149.55 456.75 155.51 455.31 147.06 442.26 136.79 449.43" style="fill:#ae7461"></polygon><g style="opacity:0.30000000000000004"><polygon points="147.77 464.27 149.55 456.75 155.51 455.31 157.64 461.54 147.77 464.27" style="fill-rule:evenodd"></polygon></g><path d="M565,130.45l6.65-1.84a1,1,0,0,0,.71-1.33l-1.38-4a.91.91,0,0,0-.11-.22l-6.37-9.85a1,1,0,0,0-1.47-.28l-7.06,4.93a1,1,0,0,0-.41,1.11l1.44,5.62a1,1,0,0,0,.38.57l6.72,5.14A1,1,0,0,0,565,130.45Z" style="fill:#6f4439"></path><path d="M556.76,119.07l8.83,5.06a1.06,1.06,0,0,0,.76.11l3.12-.75a1,1,0,0,0,.63-1.58l-5.64-8.72a1,1,0,0,0-1.47-.28l-6.3,4.4A1,1,0,0,0,556.76,119.07Z" style="fill:#ae7461"></path><g style="opacity:0.30000000000000004"><path d="M564.87,128.88l.93-3.93a1.06,1.06,0,0,1,.77-.77l3.41-.82a1.05,1.05,0,0,1,1.23.68l1.11,3.24a1,1,0,0,1-.71,1.33l-5.45,1.51A1,1,0,0,1,564.87,128.88Z" style="fill-rule:evenodd"></path></g><polygon points="247.15 127.22 251.56 133.27 255.79 130.17 263.73 120.97 255.85 115.83 250.24 119.33 247.15 127.22" style="fill:#6f4439"></polygon><polygon points="255.85 115.83 253.3 126.47 255.79 130.17 263.73 120.97 255.85 115.83" style="fill:#ae7461"></polygon><g style="opacity:0.30000000000000004"><polygon points="247.15 127.22 253.3 126.47 255.79 130.17 251.56 133.27 247.15 127.22" style="fill-rule:evenodd"></polygon></g><polygon points="199.74 434.57 199.79 430.53 194.27 426.54 191.34 432.43 192.93 437.1 196.19 437.19 199.74 434.57" style="fill:#6f4439"></polygon><polygon points="192.93 437.1 197.09 433.07 194.27 426.54 191.34 432.43 192.93 437.1" style="fill:#ae7461"></polygon><g style="opacity:0.30000000000000004"><polygon points="199.74 434.57 197.09 433.07 194.27 426.54 199.79 430.53 199.74 434.57" style="fill-rule:evenodd"></polygon></g><polygon points="700.06 107.33 700.1 103.3 694.58 99.31 691.65 105.2 693.25 109.86 696.51 109.96 700.06 107.33" style="fill:#6f4439"></polygon><polygon points="693.25 109.86 697.41 105.83 694.58 99.31 691.65 105.2 693.25 109.86" style="fill:#ae7461"></polygon><g style="opacity:0.30000000000000004"><polygon points="700.06 107.33 697.41 105.83 694.58 99.31 700.1 103.3 700.06 107.33" style="fill-rule:evenodd"></polygon></g><polygon points="113.21 59.78 113.26 55.74 107.74 51.75 104.81 57.64 106.4 62.31 109.66 62.41 113.21 59.78" style="fill:#6f4439"></polygon><polygon points="106.4 62.31 110.56 58.28 107.74 51.75 104.81 57.64 106.4 62.31" style="fill:#ae7461"></polygon><g style="opacity:0.30000000000000004"><polygon points="113.21 59.78 110.56 58.28 107.74 51.75 113.26 55.74 113.21 59.78" style="fill-rule:evenodd"></polygon></g><path d="M361.91,327l-12.38,1.73-.75,1.33s-4.89.76-5.32.91L342.05,338l8,1.05,7.9-6.57Z" style="fill:#6f4439"></path><path d="M342.05,338c.22.15,3.06,4.92,7.6,7.16a43.87,43.87,0,0,0,7.7,3l-10.26-10.67Z" style="fill:#6f4439"></path><polygon points="358.18 327.71 356.83 330.4 350.3 330.92 349.47 334.45 347.09 337.56 357.35 348.23 361.91 341.29 361.91 326.98 358.18 327.71" style="fill:#ae7461"></polygon><g style="opacity:0.30000000000000004"><polygon points="350.3 330.92 343.46 330.95 342.05 338.03 347.09 337.56 349.47 334.45 350.3 330.92"></polygon></g></g></svg>