<svg xmlns="http://www.w3.org/2000/svg" viewBox="0 0 750 500"><g id="freepik--Text--inject-99"><g style="isolation:isolate"><path d="M512.67,99.13a6.51,6.51,0,0,1,6.59,6.37v68.34a6.51,6.51,0,0,1-6.59,6.37,6.33,6.33,0,0,1-6.47-6.37V105.5A6.33,6.33,0,0,1,512.67,99.13Z" style="fill:#FFFFFF"></path><path d="M519.26,173.84v8.84a6.51,6.51,0,0,1-6.59,6.38,6.34,6.34,0,0,1-6.47-6.38v-8.84a6.33,6.33,0,0,0,6.47,6.37A6.51,6.51,0,0,0,519.26,173.84Z" style="fill:#FFFFFF"></path><g style="opacity:0.1"><path d="M519.26,173.84v8.84a6.51,6.51,0,0,1-6.59,6.38,6.34,6.34,0,0,1-6.47-6.38v-8.84a6.33,6.33,0,0,0,6.47,6.37A6.51,6.51,0,0,0,519.26,173.84Z"></path></g></g><g style="isolation:isolate"><path d="M604.66,138.52v8.84a29.8,29.8,0,0,0-8-20.28,25.57,25.57,0,0,0-18.59-8.22A25.82,25.82,0,0,0,559,127.08a29.25,29.25,0,0,0-8,20.28v-8.84a29.23,29.23,0,0,1,8-20.28,25.64,25.64,0,0,1,37.65,0A29.78,29.78,0,0,1,604.66,138.52Z" style="fill:#FFFFFF"></path><g style="opacity:0.1"><path d="M604.66,138.52v8.84a29.8,29.8,0,0,0-8-20.28,25.57,25.57,0,0,0-18.59-8.22A25.82,25.82,0,0,0,559,127.08a29.25,29.25,0,0,0-8,20.28v-8.84a29.23,29.23,0,0,1,8-20.28,25.64,25.64,0,0,1,37.65,0A29.78,29.78,0,0,1,604.66,138.52Z"></path></g><path d="M606.18,109.2a42.1,42.1,0,0,1,0,58.62,38.78,38.78,0,0,1-28.11,12.39,40,40,0,0,1-28.82-12.39,42.72,42.72,0,0,1,0-58.62,39.53,39.53,0,0,1,28.82-12.39A38.33,38.33,0,0,1,606.18,109.2Zm-9.52,49.47a29.26,29.26,0,0,0,8-20.15,29.78,29.78,0,0,0-8-20.28,25.64,25.64,0,0,0-37.65,0,29.23,29.23,0,0,0-8,20.28,28.73,28.73,0,0,0,8,20.15,25.41,25.41,0,0,0,37.65,0" style="fill:#FFFFFF"></path><path d="M618.06,138.52v8.84a41.94,41.94,0,0,1-11.88,29.3,38.79,38.79,0,0,1-28.11,12.4,40,40,0,0,1-28.82-12.4,41.74,41.74,0,0,1-11.64-29.3v-8.84a41.74,41.74,0,0,0,11.64,29.3,40,40,0,0,0,28.82,12.4,38.79,38.79,0,0,0,28.11-12.4A41.94,41.94,0,0,0,618.06,138.52Z" style="fill:#FFFFFF"></path><g style="opacity:0.1"><path d="M618.06,138.52v8.84a41.94,41.94,0,0,1-11.88,29.3,38.79,38.79,0,0,1-28.11,12.4,40,40,0,0,1-28.82-12.4,41.74,41.74,0,0,1-11.64-29.3v-8.84a41.74,41.74,0,0,0,11.64,29.3,40,40,0,0,0,28.82,12.4,38.79,38.79,0,0,0,28.11-12.4A41.94,41.94,0,0,0,618.06,138.52Z"></path></g></g><g style="isolation:isolate"><path d="M635.09,115v-8.84c0,.11,0,.23,0,.35v8.84C635.1,115.26,635.09,115.15,635.09,115Z" style="fill:#FFFFFF"></path><path d="M697.45,173.84v8.84a6.38,6.38,0,0,1-11.3,4.06,3.09,3.09,0,0,1-.59-.7l-37.63-51.42v-8.86l37.63,51.44a2.86,2.86,0,0,0,.59.69,6.41,6.41,0,0,0,4.82,2.33A6.49,6.49,0,0,0,697.45,173.84Z" style="fill:#FFFFFF"></path><g style="opacity:0.1"><path d="M697.45,173.84v8.84a6.38,6.38,0,0,1-11.3,4.06,3.09,3.09,0,0,1-.59-.7l-37.63-51.42v-8.86l37.63,51.44a2.86,2.86,0,0,0,.59.69,6.41,6.41,0,0,0,4.82,2.33A6.49,6.49,0,0,0,697.45,173.84Z"></path></g><path d="M641.5,99.93a6.28,6.28,0,0,1,5.13,2.55l38,51.79V106.54a6.36,6.36,0,0,1,6.36-6.26,6.46,6.46,0,0,1,6.47,6.26v67.3a6.38,6.38,0,0,1-11.3,4,2.76,2.76,0,0,1-.58-.69l-37.64-51.43v48.07a6.42,6.42,0,0,1-12.83,0v-67.3a6.32,6.32,0,0,1,2.59-5.45A6.86,6.86,0,0,1,641.5,99.93Z" style="fill:#FFFFFF"></path><path d="M647.93,173.84v8.84a6.42,6.42,0,0,1-12.83,0v-8.84a6.42,6.42,0,0,0,12.83,0Z" style="fill:#FFFFFF"></path><g style="opacity:0.1"><path d="M647.93,173.84v8.84a6.42,6.42,0,0,1-12.83,0v-8.84a6.42,6.42,0,0,0,12.83,0Z"></path></g></g><path d="M481.63,99.13a6.41,6.41,0,0,1,6.47,6.37,6.57,6.57,0,0,1-6.47,6.48H462.92v61.86a6.33,6.33,0,0,1-6.47,6.37,6.39,6.39,0,0,1-6.46-6.37V112H431.4a6.49,6.49,0,0,1-6.47-6.48,6.33,6.33,0,0,1,6.47-6.37Z" style="fill:#FFFFFF"></path><path d="M462.92,173.84v8.84a6.33,6.33,0,0,1-6.47,6.38,6.4,6.4,0,0,1-6.46-6.38v-8.84a6.39,6.39,0,0,0,6.46,6.37A6.33,6.33,0,0,0,462.92,173.84Z" style="fill:#FFFFFF"></path><g style="opacity:0.1"><path d="M462.92,173.84v8.84a6.33,6.33,0,0,1-6.47,6.38,6.4,6.4,0,0,1-6.46-6.38v-8.84a6.39,6.39,0,0,0,6.46,6.37A6.33,6.33,0,0,0,462.92,173.84Z"></path></g><path d="M450,112v8.84H431.4a6.49,6.49,0,0,1-6.47-6.47V105.5A6.49,6.49,0,0,0,431.4,112Z" style="fill:#FFFFFF"></path><g style="opacity:0.1"><path d="M450,112v8.84H431.4a6.49,6.49,0,0,1-6.47-6.47V105.5A6.49,6.49,0,0,0,431.4,112Z"></path></g><path d="M488.1,105.5v8.85a6.57,6.57,0,0,1-6.48,6.47h-18.7V112h18.7A6.57,6.57,0,0,0,488.1,105.5Z" style="fill:#FFFFFF"></path><g style="opacity:0.1"><path d="M488.1,105.5v8.85a6.57,6.57,0,0,1-6.48,6.47h-18.7V112h18.7A6.57,6.57,0,0,0,488.1,105.5Z"></path></g><path d="M290.09,88.55c-.08-.11-7.63-11.73-14.61-11.88-3.6-.11-6.79,2.12-9.9,4.23-2.82,1.93-5.48,3.74-8.2,3.67a8,8,0,0,1-6.32-3.89c-1.77-2.68-2.35-6.07-1.43-8.44l.7.27c-.84,2.16-.29,5.27,1.36,7.75a7.28,7.28,0,0,0,5.71,3.56c2.47.06,5-1.68,7.76-3.53,3.2-2.19,6.5-4.44,10.33-4.37,7.38.16,14.91,11.74,15.23,12.23Z" style="fill:#263238"></path><path d="M250.21,73.07l-.18-.73a7.65,7.65,0,0,0,3.19-1.86c1.46-1.44,3.49-5.71,3.51-5.75l.68.32c-.09.18-2.11,4.43-3.66,6A8.49,8.49,0,0,1,250.21,73.07Z" style="fill:#FFFFFF"></path><path d="M249.27,72.43A19.75,19.75,0,0,1,248,68.51c-.26-1.65,1.68-6.34,1.9-6.87l.7.29c-.59,1.38-2.05,5.25-1.86,6.47A19.63,19.63,0,0,0,250,72.12Z" style="fill:#FFFFFF"></path><path d="M250.16,72.81l-.54-.52a32.62,32.62,0,0,0,3.48-4.24c.6-1.23,2.71-5.68,2.71-5.68l.68.32s-2.12,4.46-2.72,5.69A31.16,31.16,0,0,1,250.16,72.81Z" style="fill:#FFFFFF"></path><path d="M250.09,72.48l-.75-.09c.07-.54.66-5.22,1.24-6.38s1.69-4.58,1.71-4.62l.71.24c-.05.14-1.18,3.56-1.75,4.71A35.74,35.74,0,0,0,250.09,72.48Z" style="fill:#FFFFFF"></path><polygon points="315.58 99.32 358.93 83.2 312.62 70.31 271 91.98 315.58 99.32" style="fill:#37474f"></polygon><path d="M338.87,101l.18-13.56s-14.25-4.88-24.81-3.8-22.91,7.61-22.91,7.61l2.34,14.36s15-4.52,23.57-5.22S338.87,101,338.87,101Z" style="fill:#455a64"></path><path d="M104,105.5v8.85a6.57,6.57,0,0,1-6.47,6.47H65.61V112H97.49A6.58,6.58,0,0,0,104,105.5Z" style="fill:#FFFFFF"></path><g style="opacity:0.1"><path d="M104,105.5v8.85a6.57,6.57,0,0,1-6.47,6.47H65.61V112H97.49A6.58,6.58,0,0,0,104,105.5Z"></path></g><path d="M99.5,139.56v8.84A6.5,6.5,0,0,1,93,154.88H65.61V146H93A6.5,6.5,0,0,0,99.5,139.56Z" style="fill:#FFFFFF"></path><g style="opacity:0.1"><path d="M99.5,139.56v8.84A6.5,6.5,0,0,1,93,154.88H65.61V146H93A6.5,6.5,0,0,0,99.5,139.56Z"></path></g><path d="M97.49,99.13A6.48,6.48,0,0,1,104,105.5,6.58,6.58,0,0,1,97.49,112H65.61v21.2H93A6.43,6.43,0,1,1,93,146H65.61v21.32H97.49a6.43,6.43,0,1,1,0,12.85H59.38c-.23,0-.23-.11-.23-.11a6.27,6.27,0,0,1-6.59-6.26V105.5A6.33,6.33,0,0,1,59,99.13H97.49Z" style="fill:#FFFFFF"></path><path d="M104,173.84v8.84a6.56,6.56,0,0,1-6.47,6.38H59.37c-.22,0-.22-.11-.22-.11a6.27,6.27,0,0,1-6.59-6.27v-8.84a6.26,6.26,0,0,0,6.59,6.25s0,.13.22.13H97.49A6.57,6.57,0,0,0,104,173.84Z" style="fill:#FFFFFF"></path><g style="opacity:0.1"><path d="M104,173.84v8.84a6.56,6.56,0,0,1-6.47,6.38H59.37c-.22,0-.22-.11-.22-.11a6.27,6.27,0,0,1-6.59-6.27v-8.84a6.26,6.26,0,0,0,6.59,6.25s0,.13.22.13H97.49A6.57,6.57,0,0,0,104,173.84Z"></path></g><path d="M170.65,139.56v8.84a27.77,27.77,0,0,0-28-27.58h-7.3V112h7.3A27.77,27.77,0,0,1,170.65,139.56Z" style="fill:#FFFFFF"></path><g style="opacity:0.1"><path d="M170.65,139.56v8.84a27.77,27.77,0,0,0-28-27.58h-7.3V112h7.3A27.77,27.77,0,0,1,170.65,139.56Z"></path></g><path d="M142.66,99.13c22.7,0,41.05,18.18,41.05,40.42a40.83,40.83,0,0,1-41.05,40.66H128.78a6.4,6.4,0,0,1-6.47-6.37V105.5a6.33,6.33,0,0,1,6.47-6.37Zm0,68.23a27.69,27.69,0,1,0,0-55.38h-7.3v55.38h7.3" style="fill:#FFFFFF"></path><path d="M183.71,139.56v8.84a40.83,40.83,0,0,1-41.05,40.66H128.78a6.4,6.4,0,0,1-6.47-6.38v-8.84a6.41,6.41,0,0,0,6.47,6.38h13.88A40.84,40.84,0,0,0,183.71,139.56Z" style="fill:#FFFFFF"></path><g style="opacity:0.1"><path d="M183.71,139.56v8.84a40.83,40.83,0,0,1-41.05,40.66H128.78a6.4,6.4,0,0,1-6.47-6.38v-8.84a6.41,6.41,0,0,0,6.47,6.38h13.88A40.84,40.84,0,0,0,183.71,139.56Z"></path></g><path d="M257.86,99.13a6.34,6.34,0,0,1,6.48,6.37v41.24c0,18.42-15.18,33.47-34,33.47a33.68,33.68,0,0,1-34-33.47V105.5a6.33,6.33,0,0,1,6.47-6.37,6.51,6.51,0,0,1,6.6,6.37v41.24a20.94,20.94,0,0,0,41.87,0V105.5A6.43,6.43,0,0,1,257.86,99.13Z" style="fill:#FFFFFF"></path><path d="M264.34,146.74v8.84c0,18.42-15.18,33.48-34,33.48a33.68,33.68,0,0,1-34-33.48v-8.84a33.68,33.68,0,0,0,34,33.47C249.16,180.21,264.34,165.16,264.34,146.74Z" style="fill:#FFFFFF"></path><g style="opacity:0.1"><path d="M264.34,146.74v8.84c0,18.42-15.18,33.48-34,33.48a33.68,33.68,0,0,1-34-33.48v-8.84a33.68,33.68,0,0,0,34,33.47C249.16,180.21,264.34,165.16,264.34,146.74Z"></path></g><path d="M349.44,111.1v8.84a6.76,6.76,0,0,1-1.32,4,7.07,7.07,0,0,1-5.47,2.56,6.43,6.43,0,0,1-3.93-1.29,29.63,29.63,0,0,0-18.94-6.37,31.36,31.36,0,0,0-21.17,8.34A28.33,28.33,0,0,0,290,147.36v-8.84a28.33,28.33,0,0,1,8.59-20.16A31.36,31.36,0,0,1,319.78,110a29.68,29.68,0,0,1,18.94,6.36,6.38,6.38,0,0,0,3.93,1.3,7.07,7.07,0,0,0,5.47-2.56A6.78,6.78,0,0,0,349.44,111.1Z" style="fill:#FFFFFF"></path><g style="opacity:0.1"><path d="M349.44,111.1v8.84a6.76,6.76,0,0,1-1.32,4,7.07,7.07,0,0,1-5.47,2.56,6.43,6.43,0,0,1-3.93-1.29,29.63,29.63,0,0,0-18.94-6.37,31.36,31.36,0,0,0-21.17,8.34A28.33,28.33,0,0,0,290,147.36v-8.84a28.33,28.33,0,0,1,8.59-20.16A31.36,31.36,0,0,1,319.78,110a29.68,29.68,0,0,1,18.94,6.36,6.38,6.38,0,0,0,3.93,1.3,7.07,7.07,0,0,0,5.47-2.56A6.78,6.78,0,0,0,349.44,111.1Z"></path></g><path d="M349.44,166v8.84A6.54,6.54,0,0,1,347,180a44.42,44.42,0,0,1-27.17,9c-23.52,0-43-18.65-43.17-41.7v-8.84c.12,23,19.65,41.69,43.17,41.69a44.41,44.41,0,0,0,27.17-9A6.57,6.57,0,0,0,349.44,166Z" style="fill:#FFFFFF"></path><g style="opacity:0.1"><path d="M349.44,166v8.84A6.54,6.54,0,0,1,347,180a44.42,44.42,0,0,1-27.17,9c-23.52,0-43-18.65-43.17-41.7v-8.84c.12,23,19.65,41.69,43.17,41.69a44.41,44.41,0,0,0,27.17-9A6.57,6.57,0,0,0,349.44,166Z"></path></g><path d="M319.78,96.81a44.41,44.41,0,0,1,27.17,9,6.78,6.78,0,0,1,1.17,9.27,7,7,0,0,1-5.47,2.56,6.4,6.4,0,0,1-3.93-1.28A29.62,29.62,0,0,0,319.78,110a31.39,31.39,0,0,0-21.17,8.35A28.31,28.31,0,0,0,290,138.52a27.94,27.94,0,0,0,8.59,20.15A31.38,31.38,0,0,0,319.78,167a29.83,29.83,0,0,0,18.94-6.38,6.61,6.61,0,0,1,3.88-1.2,7.23,7.23,0,0,1,5.52,2.49,6.76,6.76,0,0,1-1.17,9.26,44.41,44.41,0,0,1-27.17,9c-23.52,0-43-18.65-43.17-41.69C276.73,115.58,296.26,96.92,319.78,96.81Z" style="fill:#FFFFFF"></path><polygon points="404.22 148.36 404.22 157.2 394.7 132.3 385.17 157.2 385.17 148.36 394.7 123.45 404.22 148.36" style="fill:#FFFFFF"></polygon><g style="opacity:0.1"><polygon points="404.22 148.36 404.22 157.2 394.7 132.3 385.17 157.2 385.17 148.36 394.7 123.45 404.22 148.36"></polygon></g><path d="M427.3,173.74v8.85a6.49,6.49,0,0,1-4.25,6.11,6,6,0,0,1-2.23.36,6.32,6.32,0,0,1-6-4.06L409.05,170H380.47L374.69,185a6.57,6.57,0,0,1-6.11,4.06,6.38,6.38,0,0,1-6.49-6.47v-8.85a6.5,6.5,0,0,0,4.26,6.12,7,7,0,0,0,2.23.36,6.57,6.57,0,0,0,6.11-4.06l5.78-15.06h28.58l5.77,15.06a6.32,6.32,0,0,0,6,4.06,6.43,6.43,0,0,0,2.23-.36A6.5,6.5,0,0,0,427.3,173.74Z" style="fill:#FFFFFF"></path><g style="opacity:0.1"><path d="M427.3,173.74v8.85a6.49,6.49,0,0,1-4.25,6.11,6,6,0,0,1-2.23.36,6.32,6.32,0,0,1-6-4.06L409.05,170H380.47L374.69,185a6.57,6.57,0,0,1-6.11,4.06,6.38,6.38,0,0,1-6.49-6.47v-8.85a6.5,6.5,0,0,0,4.26,6.12,7,7,0,0,0,2.23.36,6.57,6.57,0,0,0,6.11-4.06l5.78-15.06h28.58l5.77,15.06a6.32,6.32,0,0,0,6,4.06,6.43,6.43,0,0,0,2.23-.36A6.5,6.5,0,0,0,427.3,173.74Z"></path></g><path d="M426.92,171.53a6.51,6.51,0,0,1-3.87,8.33,6.62,6.62,0,0,1-8.23-3.7l-5.77-15.06H380.47l-5.77,15.06a6.59,6.59,0,0,1-6.12,4.05,6.69,6.69,0,0,1-2.23-.35,6.53,6.53,0,0,1-3.88-8.33l26-68.23a6.61,6.61,0,0,1,6-4.06H395a6.5,6.5,0,0,1,6,4.06Zm-41.75-23.17h19.06l-9.53-24.9-9.53,24.9" style="fill:#FFFFFF"></path></g><g id="freepik--light-bulb--inject-99"><path d="M622.22,145.63c-3.4,29.15-22.13,34.51-25.26,42.29-1.68,4.2-3.9,14.9-3.9,14.9H562.61s-2.2-10.7-3.9-14.91c-3.12-7.77-21.86-13.13-25.26-42.28-2.24-19.15,12.15-49.39,44.38-49.4S624.44,126.48,622.22,145.63Z" style="fill:#FFFFFF"></path><rect x="565.34" y="155.95" width="1" height="49.28" transform="translate(-23.53 106.91) rotate(-10.57)" style="fill:#fff"></rect><rect x="565.21" y="180.09" width="49.28" height="1" transform="translate(303.98 727.22) rotate(-79.41)" style="fill:#fff"></rect><path d="M577.84,172.34c-2.34,0-4.7-1.87-6.67-5.27-.12-.21-.24-.43-.35-.65a3.67,3.67,0,0,1-2.65,1.54c-4.45,0-6.25-9.3-6.33-9.69l.49-.1c0,.1,1.8,9.29,5.84,9.29a3.36,3.36,0,0,0,2.4-1.52c-2.15-4.28-2.94-9.32-1.7-11.46a2.2,2.2,0,0,1,2-1.16h0c1.92,0,3,1.55,3,4.26a15.85,15.85,0,0,1-2.73,8.41c.15.28.3.56.46.83,1.08,1.87,3.33,5,6.23,5,1.94,0,3.88-1.51,5.47-4.26q.23-.39.42-.78a8.85,8.85,0,0,1-1.12-1.54c-1.87-3.24-2.26-8-.85-10.47a2.67,2.67,0,0,1,2.34-1.48,2,2,0,0,1,1.8,1.12c1.34,2.32.58,7.9-1.56,12.27a4.57,4.57,0,0,0,3.22,1.38h0c3.46,0,6.07-9.24,6.09-9.33l.48.13c-.11.4-2.73,9.7-6.57,9.7h0a5,5,0,0,1-3.46-1.41q-.17.33-.36.66c-1.19,2-3.17,4.51-5.9,4.51Zm6.26-18.53a2.16,2.16,0,0,0-1.91,1.23c-1.3,2.27-.91,6.92.85,10a8.8,8.8,0,0,0,.93,1.31c2-4.17,2.73-9.51,1.5-11.64A1.52,1.52,0,0,0,584.1,153.81Zm-13.24,0h0a1.7,1.7,0,0,0-1.56.91c-1.12,1.94-.36,6.71,1.61,10.76a15.29,15.29,0,0,0,2.47-7.91C573.38,156.18,573.05,153.82,570.86,153.82Z" style="fill:#fff"></path><rect x="559.06" y="201.52" width="37.58" height="7.34" style="fill:#263238"></rect><rect x="559.06" y="210.05" width="37.58" height="7.34" style="fill:#263238"></rect><rect x="559.06" y="218.58" width="37.58" height="7.34" style="fill:#263238"></rect><path d="M540.85,136.32c.62-14.92,11.21-31.3,27-32.74-14.09,5.64-22.11,19-27,32.74Z" style="fill:#fff"></path><path d="M578.47,86.82a31.76,31.76,0,0,1,0-11.42,32,32,0,0,1,0,11.42Z" style="fill:#263238"></path><path d="M552.25,93.5a31.74,31.74,0,0,1-5.66-9.91,31.93,31.93,0,0,1,5.66,9.91Z" style="fill:#263238"></path><path d="M532.89,112.4a31.71,31.71,0,0,1-9.86-5.75,31.83,31.83,0,0,1,9.86,5.75Z" style="fill:#263238"></path><path d="M525.57,138.44a32,32,0,0,1-11.42,0,31.76,31.76,0,0,1,11.42,0Z" style="fill:#263238"></path><path d="M532.25,164.66a31.73,31.73,0,0,1-9.91,5.67,31.88,31.88,0,0,1,9.91-5.67Z" style="fill:#263238"></path><path d="M622.78,165.76a31.91,31.91,0,0,1,9.86,5.75,31.63,31.63,0,0,1-9.86-5.75Z" style="fill:#263238"></path><path d="M630.1,139.72a31.93,31.93,0,0,1,11.41,0,31.71,31.71,0,0,1-11.41,0Z" style="fill:#263238"></path><path d="M623.42,113.5a31.8,31.8,0,0,1,9.9-5.67,31.71,31.71,0,0,1-9.9,5.67Z" style="fill:#263238"></path><path d="M604.52,94.14a31.88,31.88,0,0,1,5.75-9.87,32.07,32.07,0,0,1-5.75,9.87Z" style="fill:#263238"></path></g></svg>