<svg xmlns="http://www.w3.org/2000/svg" viewBox="0 0 500 500"><g id="freepik--background-complete--inject-27"><path d="M427,199.65l-11.39-11.39H360.76V143.18h76.55v45l-10.31,0Zm-65.24-12.39H416l10,10v-10l10.31,0V144.18H361.76Z" style="fill:#ebebeb"></path><path d="M384.75,165.72a3.58,3.58,0,1,1-3.58-3.58A3.58,3.58,0,0,1,384.75,165.72Z" style="fill:#ebebeb"></path><path d="M402.62,165.72a3.58,3.58,0,1,1-3.58-3.58A3.59,3.59,0,0,1,402.62,165.72Z" style="fill:#ebebeb"></path><path d="M420.48,165.72a3.58,3.58,0,1,1-3.58-3.58A3.58,3.58,0,0,1,420.48,165.72Z" style="fill:#ebebeb"></path><path d="M73,263.24v-11.4l-10.31,0V206.76h76.55v45.08H84.39Zm-9.31-12.42,10.31,0v10l10-10h54.26V207.76H63.69Z" style="fill:#ebebeb"></path><path d="M115.25,229.3a3.58,3.58,0,1,0,3.58-3.58A3.58,3.58,0,0,0,115.25,229.3Z" style="fill:#ebebeb"></path><path d="M97.38,229.3a3.58,3.58,0,1,0,3.58-3.58A3.58,3.58,0,0,0,97.38,229.3Z" style="fill:#ebebeb"></path><path d="M79.52,229.3a3.58,3.58,0,1,0,3.58-3.58A3.58,3.58,0,0,0,79.52,229.3Z" style="fill:#ebebeb"></path></g><g id="freepik--speech-bubbles--inject-27"><g style="opacity:0.9"><polygon points="456.11 260.25 220.44 260.25 220.44 210.66 431.19 210.66 431.19 244.33 456.11 260.25" style="fill:#fff"></polygon><path d="M456.11,260.75H219.94V210.16H431.69v33.9l26.13,16.69Zm-235.17-1H454.4l-23.71-15.14V211.16H220.94Z" style="fill:#D9ACF5"></path></g><rect x="236.41" y="222.34" width="168.94" height="2" style="fill:#D9ACF5"></rect><rect x="236.41" y="233.65" width="127.62" height="2" style="fill:#D9ACF5"></rect><rect x="236.41" y="244.95" width="157.89" height="2" style="fill:#D9ACF5"></rect><g style="opacity:0.9"><polygon points="456.11 101.3 220.44 101.3 220.44 51.71 431.19 51.71 431.19 85.38 456.11 101.3" style="fill:#fff"></polygon><path d="M457.82,101.8H219.94V51.21H431.69V85.1Zm-236.88-1H454.4L430.69,85.65V52.21H220.94Z" style="fill:#D9ACF5"></path></g><rect x="236.41" y="63.38" width="168.94" height="2" style="fill:#D9ACF5"></rect><rect x="236.41" y="74.69" width="127.62" height="2" style="fill:#D9ACF5"></rect><rect x="236.41" y="86" width="157.89" height="2" style="fill:#D9ACF5"></rect><polygon points="68.81 349.23 253.86 349.23 253.86 280.64 253.86 280.64 68.81 280.64 68.81 349.23" style="fill:#D9ACF5;opacity:0.8"></polygon><polygon points="43.89 349.23 68.81 324.31 68.81 349.23 43.89 349.23" style="fill:#D9ACF5;opacity:0.8"></polygon><rect x="80.58" y="291.33" width="161.51" height="2" style="fill:#fff"></rect><rect x="80.58" y="302.63" width="122.02" height="2" style="fill:#fff"></rect><rect x="80.58" y="313.94" width="150.95" height="2" style="fill:#fff"></rect><rect x="80.58" y="325.25" width="92.03" height="2" style="fill:#fff"></rect><rect x="80.58" y="336.55" width="161.51" height="2" style="fill:#fff"></rect><polygon points="68.81 190.28 283.61 190.28 283.61 121.69 283.61 121.69 68.81 121.69 68.81 190.28" style="fill:#D9ACF5;opacity:0.8"></polygon><polygon points="43.89 190.28 68.81 165.35 68.81 190.28 43.89 190.28" style="fill:#D9ACF5;opacity:0.8"></polygon><rect x="82.47" y="132.37" width="187.48" height="2" style="fill:#fff"></rect><rect x="82.47" y="143.68" width="141.63" height="2" style="fill:#fff"></rect><rect x="82.47" y="154.98" width="175.22" height="2" style="fill:#fff"></rect><rect x="82.47" y="166.29" width="106.83" height="2" style="fill:#fff"></rect><rect x="82.47" y="177.6" width="187.48" height="2" style="fill:#fff"></rect></g></svg>
