<svg xmlns="http://www.w3.org/2000/svg" viewBox="0 0 500 500"><g id="freepik--Labyrinth--inject-1"><g id="freepik--labyrinth--inject-1"><path d="M133.71,144.31,72.88,179.43V364.65L80,368.77l60.82-35.12v-6.21l-7.13-4.12-9.56,5.52V298.53l19.38-11.19V258.76l-7.13-4.12L104.77,272.9v-11l-7.13-4.12-5.38,3.11V328l7.14,4.12,5.37-3.11V287.34L131,272.19v7.93l-19.38,11.19v44.75L85.39,351.22V209l26.25-15.15V208l7.14,4.12,44.13-25.48V164.27l26.25-15.15V204.9l7.13,4.12,5.38-3.1V186.65L218.36,177V170.8l-7.14-4.12-9.55,5.52V141.89l16.69-9.63v-6.21l-7.14-4.12-77.51,44.75v6.21l7.13,4.12,9.56-5.52v7.93l-26.25,15.16V180.44L117,176.32,85.39,194.58v-7.93l55.45-32v-6.2Z" style="fill:#ECEFF1"></path><path d="M240.43,90.93l-7.14-4.12-60.82,35.12v6.21l7.13,4.12,48.32-27.9v30.31l-16.7,9.64v6.2l7.14,4.12,9.56-5.51V268.93l-45.63,26.34V265L199,255.33v-6.21L191.85,245l-22.07,12.74v22.38l-6.87,4v-58.9l-7.13-4.12-31.63,18.26V231.4l45.63-26.34v36.51l7.13,4.12,31.63-18.26v30.31l-16.69,9.64v6.21l7.13,4.12L221.05,265V194.73l-7.14-4.12-5.37,3.11V213l-26.25,15.15V172.35l-7.14-4.11-5.37,3.1v19.27l-65,37.53v-11L97.64,213l-5.38,3.1v25.48l7.14,4.12,12.24-7.07v14.14l7.14,4.12,31.62-18.26v52.69L133.71,301v6.2l7.13,4.12,28.94-16.7V308.7l7.13,4.12,63.52-36.67Z" style="fill:#ECEFF1"></path><g style="opacity:0.1"><polygon points="140.84 148.43 133.71 144.31 72.88 179.43 80.02 183.54 140.84 148.43"></polygon><polygon points="179.6 126.05 172.47 121.93 233.29 86.81 240.43 90.93 179.6 126.05"></polygon><polygon points="124.15 180.44 117.02 176.32 85.39 194.58 85.39 202.82 124.15 180.44"></polygon><polygon points="150.4 179.42 157.53 183.54 124.15 202.82 124.15 194.58 150.4 179.42"></polygon><polygon points="218.36 126.05 211.22 121.93 133.71 166.69 140.84 170.8 218.36 126.05"></polygon><polygon points="218.36 148.43 235.05 138.79 227.92 134.67 211.22 144.31 218.36 148.43"></polygon><polygon points="218.36 170.8 211.22 166.68 201.7 172.15 201.67 180.44 218.36 170.8"></polygon><polygon points="176.91 175.46 169.78 171.34 175.15 168.24 182.29 172.35 176.91 175.46"></polygon><polygon points="169.78 190.61 104.77 228.14 104.77 236.38 176.91 194.73 169.78 190.61"></polygon><polygon points="104.77 217.11 99.4 220.21 92.26 216.09 97.64 212.99 104.77 217.11"></polygon><polygon points="99.4 264.97 104.77 261.86 97.64 257.74 92.26 260.85 99.4 264.97"></polygon><polygon points="118.78 340.18 111.64 336.06 85.39 351.22 85.39 359.45 118.78 340.18"></polygon><polygon points="140.84 327.44 133.71 323.32 124.15 328.84 124.15 337.08 140.84 327.44"></polygon><polygon points="131.02 280.12 138.16 284.24 118.78 295.43 111.64 291.31 131.02 280.12"></polygon><polygon points="143.53 258.76 104.77 281.14 104.77 272.9 136.4 254.64 143.53 258.76"></polygon><polygon points="124.15 247.57 162.91 225.19 155.78 221.07 124.15 239.33 124.15 247.57"></polygon><polygon points="133.71 300.94 150.4 291.31 157.53 295.43 140.84 305.06 133.71 300.94"></polygon><polygon points="169.78 280.12 176.91 284.24 162.91 292.32 162.91 284.08 169.78 280.12"></polygon><polygon points="169.78 257.74 191.85 245 198.98 249.12 176.91 261.86 169.78 257.74"></polygon><polygon points="182.29 303.51 235.05 273.05 227.92 268.93 182.29 295.27 182.29 303.51"></polygon><polygon points="215.67 261.86 198.98 271.5 191.85 267.38 208.54 257.74 215.67 261.86"></polygon><polygon points="215.67 217.11 182.29 236.38 182.29 228.14 208.54 212.99 215.67 217.11"></polygon></g><g style="opacity:0.2"><polygon points="80.02 368.76 80.02 183.54 72.88 179.43 72.88 364.65 80.02 368.76"></polygon><polygon points="179.6 132.26 179.6 126.05 172.47 121.93 172.47 128.14 179.6 132.26"></polygon><polygon points="157.53 183.54 157.53 167.37 150.4 171.49 150.4 179.42 157.53 183.54"></polygon><polygon points="140.84 177.01 140.84 170.8 133.71 166.69 133.71 172.89 140.84 177.01"></polygon><polygon points="235.05 138.79 227.92 134.67 227.92 104.36 235.05 100.24 235.05 138.79"></polygon><polygon points="218.36 154.63 218.36 148.43 211.22 144.31 211.22 150.51 218.36 154.63"></polygon><polygon points="196.29 209.02 189.16 204.91 189.16 149.12 196.29 145 196.29 209.02"></polygon><polygon points="176.91 194.73 176.91 175.46 169.78 171.34 169.78 190.61 176.91 194.73"></polygon><polygon points="99.4 245.69 99.4 220.21 92.26 216.09 92.26 241.57 99.4 245.69"></polygon><polygon points="176.91 200.94 169.78 205.06 169.78 241.57 176.91 245.69 176.91 200.94"></polygon><polygon points="118.78 212.13 118.78 189.75 111.64 193.87 111.64 208.01 118.78 212.13"></polygon><polygon points="99.4 332.1 99.4 264.97 92.26 260.85 92.26 327.98 99.4 332.1"></polygon><polygon points="118.78 340.18 118.78 295.43 111.64 291.31 111.64 336.06 118.78 340.18"></polygon><polygon points="138.16 284.24 138.16 268.07 131.02 272.19 131.02 280.12 138.16 284.24"></polygon><polygon points="118.78 256.88 118.78 234.5 111.64 238.62 111.64 252.76 118.78 256.88"></polygon><polygon points="150.4 238.62 157.53 234.5 157.53 295.43 150.4 291.31 150.4 238.62"></polygon><polygon points="140.84 311.27 133.71 307.15 133.71 300.94 140.84 305.06 140.84 311.27"></polygon><polygon points="176.91 284.24 176.91 261.86 169.78 257.74 169.78 280.12 176.91 284.24"></polygon><polygon points="176.91 312.82 176.91 290.45 169.78 294.57 169.78 308.7 176.91 312.82"></polygon><polygon points="235.05 273.05 235.05 145 227.92 149.12 227.92 268.93 235.05 273.05"></polygon><polygon points="198.98 277.71 198.98 271.5 191.85 267.38 191.85 273.59 198.98 277.71"></polygon><polygon points="215.67 261.86 215.67 223.31 208.54 227.44 208.54 257.74 215.67 261.86"></polygon><polygon points="215.67 217.11 215.67 197.84 208.54 193.72 208.54 212.99 215.67 217.11"></polygon></g><polygon points="85.39 186.65 85.39 202.82 124.15 180.44 124.15 202.82 157.53 183.54 157.53 167.37 140.84 177.01 140.84 170.8 218.36 126.05 218.36 132.26 201.67 141.89 201.67 180.44 218.36 170.8 218.36 177.01 201.67 186.65 201.67 205.92 196.29 209.02 196.29 145 162.91 164.27 162.91 186.65 118.78 212.13 118.78 189.75 85.39 209.02 85.39 359.45 118.78 340.18 118.78 295.43 138.16 284.24 138.16 268.07 104.77 287.34 104.77 328.99 99.4 332.1 99.4 264.97 104.77 261.86 104.77 281.14 143.53 258.76 143.53 287.34 124.15 298.53 124.15 337.08 140.84 327.44 140.84 333.65 80.02 368.76 80.02 183.54 140.84 148.43 140.84 154.63 85.39 186.65" style="fill:#ECEFF1"></polygon><polygon points="240.43 276.15 176.91 312.82 176.91 290.45 140.84 311.27 140.84 305.06 157.53 295.43 157.53 234.5 118.78 256.88 118.78 234.5 99.4 245.69 99.4 220.21 104.77 217.11 104.77 236.38 176.91 194.73 176.91 175.46 182.29 172.35 182.29 236.38 215.67 217.11 215.67 197.84 221.05 194.73 221.05 264.96 198.98 277.71 198.98 271.5 215.67 261.86 215.67 223.31 176.91 245.69 176.91 200.94 124.15 231.4 124.15 247.57 162.91 225.19 162.91 292.32 176.91 284.24 176.91 261.86 198.98 249.12 198.98 255.33 182.29 264.97 182.29 303.51 235.05 273.05 235.05 145 218.36 154.63 218.36 148.43 235.05 138.79 235.05 100.24 179.6 132.26 179.6 126.05 240.43 90.93 240.43 276.15" style="fill:#ECEFF1"></polygon></g></g><g id="freepik--Line--inject-1"><g id="freepik--line--inject-1"><path d="M156.52,326h0a1.18,1.18,0,0,1-1.18-1.18v-5.89a1.18,1.18,0,0,1,1.18-1.18h0a1.17,1.17,0,0,1,1.17,1.18v5.89A1.17,1.17,0,0,1,156.52,326Z" style="fill:#455a64"></path><path d="M156.52,313.31h0a1.18,1.18,0,0,1-1.18-1.18v-3.85L152,310.21a1.18,1.18,0,0,1-1.61-.43,1.17,1.17,0,0,1,.43-1.61l5.1-2.95a1.18,1.18,0,0,1,1.77,1v5.89A1.17,1.17,0,0,1,156.52,313.31Z" style="fill:#455a64"></path><path d="M139,317.55a1.16,1.16,0,0,1-1-.59,1.17,1.17,0,0,1,.43-1.61l6.22-3.59a1.18,1.18,0,0,1,1.18,2l-6.23,3.59A1.1,1.1,0,0,1,139,317.55Z" style="fill:#455a64"></path><path d="M127.65,324.09a1.27,1.27,0,0,1-.59-.16,1.18,1.18,0,0,1-.58-1V317a1.18,1.18,0,1,1,2.35,0v3.85l3.34-1.93a1.17,1.17,0,0,1,1.6.44,1.16,1.16,0,0,1-.43,1.6l-5.1,2.95A1.21,1.21,0,0,1,127.65,324.09Z" style="fill:#455a64"></path><path d="M127.65,307.38a1.17,1.17,0,0,1-1.17-1.17v-5.89a1.18,1.18,0,0,1,.58-1l5.11-2.95a1.18,1.18,0,0,1,1.17,2L128.83,301v5.21A1.17,1.17,0,0,1,127.65,307.38Z" style="fill:#455a64"></path><path d="M141.05,293.76a1.18,1.18,0,0,1-.59-2.2L145,289v-5.21a1.18,1.18,0,1,1,2.35,0v5.89a1.18,1.18,0,0,1-.59,1l-5.1,2.94A1.14,1.14,0,0,1,141.05,293.76Z" style="fill:#455a64"></path><path d="M146.15,274a1.17,1.17,0,0,1-1.17-1.18V262a1.18,1.18,0,1,1,2.35,0v10.89A1.18,1.18,0,0,1,146.15,274Z" style="fill:#455a64"></path><path d="M146.15,252.26a1.17,1.17,0,0,1-1.17-1.17v-3.85l-3.34,1.92a1.18,1.18,0,1,1-1.18-2l5.1-2.94a1.18,1.18,0,0,1,1.18,0,1.17,1.17,0,0,1,.59,1v5.89A1.17,1.17,0,0,1,146.15,252.26Z" style="fill:#455a64"></path><path d="M122.47,260.05a1.18,1.18,0,0,1-.59-2.2l9.29-5.36a1.17,1.17,0,0,1,1.61.43,1.19,1.19,0,0,1-.43,1.61l-9.3,5.36A1.1,1.1,0,0,1,122.47,260.05Z" style="fill:#455a64"></path><path d="M108.07,268.36a1.14,1.14,0,0,1-.59-.16,1.18,1.18,0,0,1-.59-1v-5.89a1.18,1.18,0,0,1,2.36,0v3.85l3.33-1.92a1.18,1.18,0,1,1,1.18,2l-5.1,2.94A1.14,1.14,0,0,1,108.07,268.36Z" style="fill:#455a64"></path><path d="M108.07,251.56a1.18,1.18,0,0,1-1.18-1.18v-3.85l-3.33,1.93a1.18,1.18,0,1,1-1.18-2l5.1-2.95a1.18,1.18,0,0,1,1.77,1v5.89A1.18,1.18,0,0,1,108.07,251.56Z" style="fill:#455a64"></path><path d="M88.42,257a1.23,1.23,0,0,1-.59-.15,1.19,1.19,0,0,1-.59-1V250a1.18,1.18,0,0,1,2.36,0v3.85l3.33-1.93a1.18,1.18,0,1,1,1.18,2l-5.1,3A1.23,1.23,0,0,1,88.42,257Z" style="fill:#455a64"></path><path d="M88.42,240.13A1.17,1.17,0,0,1,87.24,239V228a1.18,1.18,0,0,1,2.36,0v11A1.17,1.17,0,0,1,88.42,240.13Z" style="fill:#455a64"></path><path d="M88.42,218.15A1.18,1.18,0,0,1,87.24,217v-5.89a1.19,1.19,0,0,1,.59-1l5.1-2.94a1.18,1.18,0,1,1,1.18,2l-4.51,2.6V217A1.18,1.18,0,0,1,88.42,218.15Z" style="fill:#455a64"></path><path d="M108.07,206.81a1.18,1.18,0,0,1-1.18-1.18v-3.85l-3.33,1.92a1.18,1.18,0,1,1-1.18-2l5.1-2.94a1.18,1.18,0,0,1,1.77,1v5.89A1.18,1.18,0,0,1,108.07,206.81Z" style="fill:#455a64"></path><path d="M108.07,223.29a1.23,1.23,0,0,1-.59-.15,1.2,1.2,0,0,1-.59-1v-5.89a1.18,1.18,0,0,1,2.36,0v3.85l3.33-1.93a1.18,1.18,0,0,1,1.18,2l-5.1,2.95A1.23,1.23,0,0,1,108.07,223.29Z" style="fill:#455a64"></path><path d="M122.7,214.85a1.2,1.2,0,0,1-1-.59,1.18,1.18,0,0,1,.43-1.61l9.54-5.51a1.17,1.17,0,0,1,1.6.44,1.16,1.16,0,0,1-.43,1.6l-9.53,5.51A1.24,1.24,0,0,1,122.7,214.85Zm19.07-11a1.16,1.16,0,0,1-1-.59,1.17,1.17,0,0,1,.43-1.61l9.53-5.5a1.18,1.18,0,0,1,1.18,2l-9.54,5.5A1.1,1.1,0,0,1,141.77,203.84Z" style="fill:#455a64"></path><path d="M160.83,192.83a1.17,1.17,0,0,1-.59-2.19l4.51-2.61v-5.21a1.18,1.18,0,0,1,2.36,0v5.89a1.19,1.19,0,0,1-.59,1l-5.1,3A1.26,1.26,0,0,1,160.83,192.83Z" style="fill:#455a64"></path><path d="M165.93,173.4a1.18,1.18,0,0,1-1.18-1.18v-5.89a1.19,1.19,0,0,1,.59-1l5.1-2.94a1.18,1.18,0,1,1,1.18,2l-4.51,2.6v5.21A1.18,1.18,0,0,1,165.93,173.4Z" style="fill:#455a64"></path><path d="M185.7,162a1.17,1.17,0,0,1-1.17-1.17V157l-3.34,1.92a1.18,1.18,0,1,1-1.17-2l5.1-2.94a1.18,1.18,0,0,1,1.76,1v5.89A1.17,1.17,0,0,1,185.7,162Z" style="fill:#455a64"></path><path d="M185.7,206.22a1.17,1.17,0,0,1-1.17-1.18V194a1.18,1.18,0,1,1,2.35,0v11A1.18,1.18,0,0,1,185.7,206.22Zm0-22.12a1.17,1.17,0,0,1-1.17-1.17V171.87a1.18,1.18,0,1,1,2.35,0v11.06A1.17,1.17,0,0,1,185.7,184.1Z" style="fill:#455a64"></path><path d="M185.7,223.17a1.1,1.1,0,0,1-.58-.16,1.17,1.17,0,0,1-.59-1V216.1a1.18,1.18,0,0,1,2.35,0V220l3.34-1.92a1.18,1.18,0,0,1,1.17,2l-5.1,2.94A1.11,1.11,0,0,1,185.7,223.17Z" style="fill:#455a64"></path><path d="M199.87,215a1.18,1.18,0,0,1-.59-2.2l4.51-2.61V205a1.18,1.18,0,0,1,2.35,0v5.89a1.17,1.17,0,0,1-.59,1l-5.1,3A1.1,1.1,0,0,1,199.87,215Z" style="fill:#455a64"></path><path d="M205,195.62a1.17,1.17,0,0,1-1.17-1.18v-5.89a1.17,1.17,0,0,1,.59-1l5.1-2.95a1.18,1.18,0,1,1,1.17,2l-4.51,2.6v5.21A1.18,1.18,0,0,1,205,195.62Z" style="fill:#455a64"></path><path d="M219.24,181.48a1.17,1.17,0,0,1-.59-2.19l4.52-2.61v-5.21a1.18,1.18,0,1,1,2.35,0v5.89a1.17,1.17,0,0,1-.59,1l-5.1,3A1.23,1.23,0,0,1,219.24,181.48Z" style="fill:#455a64"></path><path d="M224.34,162.05a1.17,1.17,0,0,1-1.17-1.18V157L219.83,159a1.18,1.18,0,0,1-1.18-2l5.11-2.95a1.18,1.18,0,0,1,1.76,1v5.89A1.18,1.18,0,0,1,224.34,162.05Z" style="fill:#455a64"></path><path d="M205,167.35a1.1,1.1,0,0,1-.58-.16,1.17,1.17,0,0,1-.59-1v-5.89a1.18,1.18,0,0,1,2.35,0v3.85l3.34-1.92a1.18,1.18,0,1,1,1.17,2l-5.1,2.94A1.11,1.11,0,0,1,205,167.35Z" style="fill:#455a64"></path><path d="M205,150.86a1.17,1.17,0,0,1-1.17-1.17V143.8a1.17,1.17,0,0,1,.59-1l5.1-2.95a1.18,1.18,0,1,1,1.17,2l-4.51,2.61v5.21A1.17,1.17,0,0,1,205,150.86Z" style="fill:#455a64"></path><path d="M219.24,136.73a1.18,1.18,0,0,1-.59-2.2l4.52-2.6v-5.21a1.18,1.18,0,1,1,2.35,0v5.89a1.17,1.17,0,0,1-.59,1l-5.1,2.94A1.14,1.14,0,0,1,219.24,136.73Z" style="fill:#455a64"></path><path d="M224.34,117.62a1.17,1.17,0,0,1-1.17-1.17V112.6l-3.34,1.92a1.18,1.18,0,0,1-1.18-2l5.11-2.94a1.18,1.18,0,0,1,1.76,1v5.89A1.17,1.17,0,0,1,224.34,117.62Z" style="fill:#455a64"></path><path d="M173.14,141.29a1.17,1.17,0,0,1-.59-2.19l11.53-6.66a1.18,1.18,0,0,1,1.18,2l-11.53,6.66A1.23,1.23,0,0,1,173.14,141.29ZM196.19,128a1.18,1.18,0,0,1-.59-2.2l11.53-6.66a1.18,1.18,0,0,1,1.18,2l-11.53,6.66A1.14,1.14,0,0,1,196.19,128Z" style="fill:#455a64"></path><path d="M156.52,150.89a1.2,1.2,0,0,1-.59-.15,1.17,1.17,0,0,1-.59-1v-5.89a1.18,1.18,0,1,1,2.35,0v3.85l3.33-1.93a1.18,1.18,0,0,1,1.18,2l-5.1,3A1.26,1.26,0,0,1,156.52,150.89Z" style="fill:#455a64"></path><path d="M156.52,134.15a1.18,1.18,0,0,1-1.18-1.18v-5.89a1.18,1.18,0,0,1,2.35,0V133A1.17,1.17,0,0,1,156.52,134.15Z" style="fill:#455a64"></path></g></g><g id="freepik--Icons--inject-1"><g id="freepik--idea-icon--inject-1"><path d="M150.82,78.84c-5.75,3.33-10.42,12.24-10.42,19.91,0,11,6.83,8.92,6.83,13.36a1.24,1.24,0,0,0,1.05,1.35c1.4.27,3.68-1,5.08-2.93a4.64,4.64,0,0,0,1-2.57h0c0-4.44,6.83-10.21,6.83-21.24C161.24,79.05,156.57,75.52,150.82,78.84Zm6,14.71a4.74,4.74,0,0,1-2.4,2.33c-.22.86-.44,1.87-.64,3a61.2,61.2,0,0,0-.86,9.86,1,1,0,0,1-.42.83h0c-.23.14-.42,0-.43-.31A62.11,62.11,0,0,1,153,99.13c.18-1.1.4-2.12.63-3a3.2,3.2,0,0,1-1.1-.08,3.71,3.71,0,0,1-1.68-.92,19,19,0,0,1-1.68,2.86,13,13,0,0,1-1.1,1.35,17.7,17.7,0,0,1,.63,2.32,47.13,47.13,0,0,1,.89,9.15,1,1,0,0,1-.44.81c-.24.13-.43,0-.42-.34a47.29,47.29,0,0,0-.86-8.86,15.38,15.38,0,0,0-.65-2.31c-1.05.81-1.9.88-2.39.45a2,2,0,0,1-.19-2.26,2.19,2.19,0,0,1,1.17-1.33c.68-.21,1.34.33,1.91,1.52a10.56,10.56,0,0,0,1-1.21,17.6,17.6,0,0,0,1.6-2.77,3.93,3.93,0,0,1-.63-2.86,2.68,2.68,0,0,1,1.16-1.81c.57-.33,1-.15,1.16.47a7.25,7.25,0,0,1-.63,3.59,3.31,3.31,0,0,0,1.6.91,2.65,2.65,0,0,0,1,.06,8.41,8.41,0,0,1,1.91-3.72c.45-.37.87-.38,1.17,0A2.53,2.53,0,0,1,156.84,93.55Z" style="fill:#e0e0e0"></path><path d="M154.53,109.36v3.53a4.75,4.75,0,0,1-1.09,2.65c-1.44,1.94-3.8,3.3-5.24,3a1.28,1.28,0,0,1-1.07-1.49V113.9A1.26,1.26,0,0,0,148.2,115c1.44.28,3.8-1.08,5.24-3A4.7,4.7,0,0,0,154.53,109.36Z" style="fill:#e0e0e0"></path><path d="M156,110.26a4.7,4.7,0,0,1-1.09,2.64,7.69,7.69,0,0,1-4.36,3l-2-1.13V118a1.37,1.37,0,0,0,.58,1.31l3.68,2.12a1.25,1.25,0,0,0,.46.16c1.44.28,3.79-1.08,5.23-3a4.75,4.75,0,0,0,1.09-2.65v-3.53Z" style="fill:#37474f"></path><path d="M149.18,119.28l3.68,2.12a1.25,1.25,0,0,0,.46.16,2.37,2.37,0,0,0,.47,0l-1.55-1.52v-3.18l-1.69-1h0l-2-1.13V118A1.37,1.37,0,0,0,149.18,119.28Z" style="fill:#455a64"></path><path d="M159.11,79.2c-1.83-1.06-4.21-1-6.82.54-5.75,3.32-10.41,12.24-10.41,19.91,0,11,6.82,8.92,6.82,13.36a1.29,1.29,0,0,0,.59,1.18l3.64,2.1a1.33,1.33,0,0,0,.46.17c1.41.27,3.68-1,5.09-2.93a4.64,4.64,0,0,0,1.05-2.57c0-4.44,6.82-10.21,6.82-21.24,0-4.19-1.39-7.15-3.6-8.42Z" style="fill:#455a64"></path><path d="M161.05,95.28a6.42,6.42,0,0,0-1.19,2.42,3.24,3.24,0,0,0,1.38-1.41c.08-.16.33-.72.12-1A.19.19,0,0,0,161.05,95.28Z" style="fill:#ECEFF1"></path><path d="M155.85,94.09a.65.65,0,0,0-.33.5,2.65,2.65,0,0,0,.33,1.69,4.64,4.64,0,0,0,.33-2.07C156.14,94.05,156.07,94,155.85,94.09Z" style="fill:#ECEFF1"></path><path d="M150.64,101.29l-.06,0a.66.66,0,0,0-.24.36.68.68,0,0,0,.12.84c.27.23.76.22,1.37-.19C151.37,101.48,150.93,101.2,150.64,101.29Z" style="fill:#ECEFF1"></path><path d="M155.93,81.84c-5.75,3.33-10.41,12.24-10.41,19.91,0,11,6.82,8.92,6.82,13.36a1.24,1.24,0,0,0,1,1.35c1.41.27,3.68-1,5.09-2.93a4.64,4.64,0,0,0,1.05-2.57h0c0-4.44,6.82-10.21,6.82-21.24C166.35,82.05,161.69,78.52,155.93,81.84Zm6,14.71a4.78,4.78,0,0,1-2.4,2.33c-.23.86-.45,1.87-.64,3a59.85,59.85,0,0,0-.86,9.86,1.07,1.07,0,0,1-.43.83h0c-.24.14-.43,0-.43-.31a61.39,61.39,0,0,1,.88-10.17c.19-1.1.4-2.13.64-3a3.17,3.17,0,0,1-1.1-.08,3.8,3.8,0,0,1-1.69-.92,18.65,18.65,0,0,1-1.68,2.86,10.82,10.82,0,0,1-1.1,1.35,17.18,17.18,0,0,1,.64,2.32,46.67,46.67,0,0,1,.88,9.14,1.07,1.07,0,0,1-.43.82c-.24.13-.43,0-.43-.34a46.33,46.33,0,0,0-.86-8.86,15.51,15.51,0,0,0-.64-2.31c-1.05.81-1.9.87-2.4.45a2,2,0,0,1-.18-2.26,2.16,2.16,0,0,1,1.17-1.33c.68-.21,1.34.33,1.9,1.52a10.39,10.39,0,0,0,1-1.21,17.37,17.37,0,0,0,1.61-2.77,3.88,3.88,0,0,1-.63-2.86,2.63,2.63,0,0,1,1.15-1.81c.58-.33,1-.15,1.16.47a7,7,0,0,1-.63,3.59,3.35,3.35,0,0,0,1.61.91,2.64,2.64,0,0,0,1,.06A8.32,8.32,0,0,1,161,94.1c.45-.37.88-.38,1.17,0A2.53,2.53,0,0,1,162,96.55Z" style="fill:#ECEFF1"></path><path d="M159.64,112.36v3.53a4.75,4.75,0,0,1-1.09,2.65c-1.44,1.94-3.79,3.3-5.23,3a1.3,1.3,0,0,1-1.08-1.49v-3.18a1.28,1.28,0,0,0,1.08,1.14c1.44.28,3.79-1.08,5.23-3A4.7,4.7,0,0,0,159.64,112.36Z" style="fill:#ECEFF1"></path><path d="M152.89,116.26c-.54-.31-3.48-2-3.6-2.07a1.29,1.29,0,0,1-.59-1.18c0-4.44-6.82-2.33-6.82-13.36A24,24,0,0,1,143.25,92c1.26.73,2.89,1.68,3.64,2.1a24,24,0,0,0-1.37,7.68c0,11,6.82,8.92,6.82,13.36A1.28,1.28,0,0,0,152.89,116.26Z" style="fill:#37474f"></path><path d="M153.39,116.46a1.33,1.33,0,0,1-.46-.17A1.57,1.57,0,0,0,153.39,116.46Z" style="fill:#37474f"></path><path d="M152.83,74c-.49.29-.89,0-.89-.67V66.5a2.14,2.14,0,0,1,.89-1.7c.49-.28.89,0,.89.67v6.82A2.12,2.12,0,0,1,152.83,74Z" style="fill:#f0f0f0"></path><path d="M144.77,81.52c-.43.57-1,.69-1.21.27L141,77.36a1.86,1.86,0,0,1,.32-1.8c.43-.57,1-.69,1.22-.27l2.55,4.43A1.86,1.86,0,0,1,144.77,81.52Z" style="fill:#f0f0f0"></path><path d="M138.86,92.8c-.24.71-.78,1.21-1.21,1.13l-4.42-.85c-.43-.08-.57-.72-.33-1.43s.79-1.21,1.21-1.13l4.43.85C139,91.45,139.11,92.09,138.86,92.8Z" style="fill:#f0f0f0"></path><path d="M136.7,104.8a2.14,2.14,0,0,1-.88,1.7l-5.12,3c-.49.28-.88,0-.88-.67a2.11,2.11,0,0,1,.88-1.7l5.12-3C136.31,103.85,136.7,104.15,136.7,104.8Z" style="fill:#f0f0f0"></path><path d="M138.86,114.31a1.86,1.86,0,0,1-.32,1.8l-4.43,6c-.42.57-1,.69-1.21.27a1.86,1.86,0,0,1,.33-1.8l4.42-6C138.08,114,138.62,113.88,138.86,114.31Z" style="fill:#f0f0f0"></path><path d="M166.8,98.18c.25-.71.79-1.22,1.21-1.14l4.43.86c.42.08.57.72.32,1.42s-.78,1.22-1.21,1.14l-4.42-.85C166.7,99.52,166.56,98.88,166.8,98.18Z" style="fill:#f0f0f0"></path><path d="M169,86.18a2.12,2.12,0,0,1,.89-1.7l5.11-3c.49-.28.89,0,.89.67a2.15,2.15,0,0,1-.89,1.7l-5.11,2.95C169.36,87.13,169,86.83,169,86.18Z" style="fill:#f0f0f0"></path><path d="M166.8,76.67a1.87,1.87,0,0,1,.33-1.8l4.42-6c.43-.58,1-.7,1.21-.27a1.86,1.86,0,0,1-.32,1.8l-4.43,6C167.59,77,167.05,77.1,166.8,76.67Z" style="fill:#f0f0f0"></path><path d="M160.9,72.21c-.43-.08-.57-.72-.33-1.43l2.56-7.38c.24-.71.78-1.21,1.21-1.13s.57.72.32,1.43l-2.55,7.38C161.86,71.78,161.32,72.29,160.9,72.21Z" style="fill:#f0f0f0"></path></g><g id="freepik--question-icon--inject-1"><path d="M154.13,361.15a2.07,2.07,0,0,1,2.36-.1,2.91,2.91,0,0,1,1,2.5,7.66,7.66,0,0,1-1,3.62,6.35,6.35,0,0,1-2.32,2.62,2,2,0,0,1-2.32.06,3,3,0,0,1-1-2.51,7.69,7.69,0,0,1,1-3.6A6.14,6.14,0,0,1,154.13,361.15Z" style="fill:#e0e0e0"></path><path d="M150.51,343.63l-5,2.86a19.27,19.27,0,0,1,2.5-9.47,17.66,17.66,0,0,1,6.68-7,7.56,7.56,0,0,1,4.55-1.31,4,4,0,0,1,3,2.05,8.53,8.53,0,0,1,1.12,4.55,14.61,14.61,0,0,1-.36,3.13,23,23,0,0,1-1.13,3.61,43,43,0,0,1-2.18,4.24,41.64,41.64,0,0,0-2.06,4,14.25,14.25,0,0,0-.7,2.59,27.1,27.1,0,0,0-.36,4l-5.13,3,0-1.13a24.53,24.53,0,0,1,.93-6.68,30.54,30.54,0,0,1,3-6.92,43.46,43.46,0,0,0,2.42-4.63,6.55,6.55,0,0,0,.42-2.31,2.21,2.21,0,0,0-1-2.16c-.67-.36-1.58-.21-2.71.45a7.67,7.67,0,0,0-2.86,3A8.67,8.67,0,0,0,150.51,343.63Z" style="fill:#e0e0e0"></path><path d="M160,364.08a2.07,2.07,0,0,1,2.36-.1,2.87,2.87,0,0,1,1,2.49,7.76,7.76,0,0,1-1,3.63,6.3,6.3,0,0,1-2.33,2.62,2,2,0,0,1-2.32.06,3,3,0,0,1-1-2.51,7.68,7.68,0,0,1,.94-3.6A6.2,6.2,0,0,1,160,364.08Z" style="fill:#ECEFF1"></path><path d="M157.9,372.91h0l-3.66-2.11-.2-.13a3,3,0,0,1-1-2.52,7.75,7.75,0,0,1,1-3.6l.13-.25,3.67,2.12-.14.25a7.68,7.68,0,0,0-.94,3.6,3,3,0,0,0,.95,2.51Z" style="fill:#455a64"></path><path d="M162.18,363.88a2.12,2.12,0,0,0-2.21.19,5.93,5.93,0,0,0-2.15,2.34l-3.67-2.12a6.15,6.15,0,0,1,2-2.24l.15-.09a3,3,0,0,1,1-.39,1.73,1.73,0,0,1,1.21.19l.24.14,3.42,2Z" style="fill:#37474f"></path><path d="M156.35,346.56l-5,2.86a19.16,19.16,0,0,1,2.5-9.47,17.66,17.66,0,0,1,6.68-7,7.53,7.53,0,0,1,4.54-1.31,4,4,0,0,1,3,2.05,8.53,8.53,0,0,1,1.13,4.55,14.61,14.61,0,0,1-.36,3.13,23.41,23.41,0,0,1-1.14,3.61,44.54,44.54,0,0,1-2.17,4.24,42.55,42.55,0,0,0-2.07,4,15.11,15.11,0,0,0-.7,2.59,27.1,27.1,0,0,0-.36,4l-5.13,3,0-1.12a24.53,24.53,0,0,1,.93-6.68,30.8,30.8,0,0,1,3-6.93,40,40,0,0,0,2.42-4.62,6.55,6.55,0,0,0,.42-2.31,2.23,2.23,0,0,0-1-2.16c-.68-.36-1.58-.21-2.72.45a7.67,7.67,0,0,0-2.86,3A8.66,8.66,0,0,0,156.35,346.56Z" style="fill:#ECEFF1"></path><path d="M166.53,332.07a3.77,3.77,0,0,0-1.42-.46,7.53,7.53,0,0,0-4.54,1.31,17.66,17.66,0,0,0-6.68,7l-.21.38L150,338.22c.06-.13.13-.26.2-.39a17.72,17.72,0,0,1,6.68-7,7.63,7.63,0,0,1,4.55-1.31,3.93,3.93,0,0,1,1.47.49Z" style="fill:#455a64"></path><path d="M163.3,344.19q-.63,1.29-2.07,3.81a30.8,30.8,0,0,0-3,6.93,25.11,25.11,0,0,0-.93,6.65v0l0,1.12-1.16-.67-2.5-1.44,0-1.13a24.53,24.53,0,0,1,.93-6.68,30.74,30.74,0,0,1,3-6.92c1-1.68,1.65-2.95,2.06-3.81Z" style="fill:#455a64"></path><path d="M153.68,340.33a19.16,19.16,0,0,0-2.29,9.09l-3.66-2.11a18.93,18.93,0,0,1,2.29-9.09Z" style="fill:#37474f"></path><path d="M164.07,341.07a6.46,6.46,0,0,1-.42,2.3,6.61,6.61,0,0,1-.35.82l-3.67-2.11c.16-.34.28-.61.36-.82a6.45,6.45,0,0,0,.4-1.93,2.81,2.81,0,0,1,2.67-.42A2.23,2.23,0,0,1,164.07,341.07Z" style="fill:#37474f"></path></g></g></svg>