<svg xmlns="http://www.w3.org/2000/svg" viewBox="0 0 500 500"><g id="freepik--Labyrinth--inject-87"><path d="M260,287.68a101.18,101.18,0,0,1-89.1-53.13l-.48-.88,1.76-.95.48.88a99.25,99.25,0,0,0,186.59-47.17c0-1.48,0-3-.11-4.62a98.24,98.24,0,0,0-22.92-58.94l-.64-.77,1.54-1.28.64.77a100.21,100.21,0,0,1,23.38,60.13c.07,1.62.11,3.2.11,4.71A101.19,101.19,0,0,1,260,287.68Z" style="fill:#FFFFFF"></path><path d="M162,212.05l-.24-1a101.26,101.26,0,0,1-2.67-16c-.24-2.83-.36-5.74-.36-8.63a101.25,101.25,0,0,1,157.31-84.31l.84.55-1.11,1.66-.83-.55a99.26,99.26,0,0,0-154.21,82.65c0,2.83.12,5.68.36,8.46a99.5,99.5,0,0,0,2.61,15.7l.24,1Z" style="fill:#FFFFFF"></path><path d="M231.62,269.58l-.94-.33a88.63,88.63,0,0,1-42.79-32.66,84.09,84.09,0,0,1-5.27-8.57,87.92,87.92,0,0,1-10.46-41.59c0-2.48.11-5,.32-7.5l.09-1,2,.17-.08,1c-.21,2.44-.32,4.91-.32,7.33a85.83,85.83,0,0,0,10.22,40.64,82,82,0,0,0,5.15,8.37,86.62,86.62,0,0,0,41.81,31.93l.95.33Z" style="fill:#FFFFFF"></path><path d="M260,274.27h-1v-2h1a85.67,85.67,0,0,0,44.65-12.52,86.55,86.55,0,0,0,27.11-26.22,82.45,82.45,0,0,0,4.43-7.53,84.85,84.85,0,0,0,9.65-39.57,86,86,0,0,0-3-22.49A84.79,84.79,0,0,0,326,131.49a85.82,85.82,0,0,0-62.72-30.83c-.5,0-1,0-1.46,0l-.1-1v1c-1.28,0-2.59,0-3.87,0l-1,0c-.53,0-1,0-1.5.06-.68,0-1.34.07-2,.13l-.51,0c-.51,0-1,.08-1.45.14h-.22l-1,.1-1,.13c-.67.09-1.25.16-1.82.25l-.56.09c-.57.08-1.07.16-1.58.26-1,.16-1.92.35-2.85.55-1.09.22-2.18.47-3.25.74a84.57,84.57,0,0,0-14.1,4.89,86.06,86.06,0,0,0-47.07,53.42l-.29,1-1.92-.58.29-.95a87.77,87.77,0,0,1,62.61-59.67c1.09-.28,2.2-.53,3.32-.76,1-.2,1.93-.4,2.91-.56.5-.1,1-.18,1.58-.26l.56-.09c.64-.1,1.23-.18,1.82-.25l1.15-.15.88-.08a1.55,1.55,0,0,1,.37,0c.49-.06,1-.1,1.45-.14l.55,0c.66-.06,1.34-.1,2-.14.51,0,1,0,1.54-.06l1,0c1.31,0,2.65,0,4,0h.12c.51,0,1,0,1.52,0a87.82,87.82,0,0,1,64.16,31.55A87.89,87.89,0,0,1,338,226.92a85.09,85.09,0,0,1-4.54,7.71,88.7,88.7,0,0,1-27.74,26.83A87.66,87.66,0,0,1,260,274.27Z" style="fill:#FFFFFF"></path><path d="M187.64,200.13l-1.13-.82a74.67,74.67,0,0,1,11.87-55,75,75,0,0,1,16-16.92l.79-.62,1.22,1.59-.79.61A72.92,72.92,0,0,0,200,145.47,72.78,72.78,0,0,0,188.31,198L200,196.29a62.73,62.73,0,0,1-.79-9.86,61.49,61.49,0,0,1,1.4-13.05l.22-1,2,.42-.21,1A59.56,59.56,0,0,0,202.1,197l-.83,1.17Zm22.06-44.25L208,154.81l.53-.85a60.91,60.91,0,0,1,14.84-16.11l.8-.6,1.2,1.59-.8.61A58.49,58.49,0,0,0,210.24,155Zm20.49-35.68-1.33-.51-5.27-12.14.51-1.32a87.6,87.6,0,0,1,26.32-7.13,89,89,0,0,1,9.58-.51c1.2,0,2.28,0,3.32.07l1,0-.09,2-1,0c-1,0-2.05-.07-3.22-.07a87.66,87.66,0,0,0-9.36.5,85.6,85.6,0,0,0-24.82,6.57L230.3,118a74.88,74.88,0,0,1,50.32-3.26l1,.27-.56,1.93-1-.28a72.9,72.9,0,0,0-49.87,3.57Z" style="fill:#FFFFFF"></path><path d="M260,261a73.73,73.73,0,0,1-33.3-7.84,75,75,0,0,1-27.34-23.31,73.44,73.44,0,0,1-12.86-30.58l.84-1.16L200,196.29a62.73,62.73,0,0,1-.79-9.86,61.49,61.49,0,0,1,1.4-13.05l.22-1,2,.42-.21,1A59.56,59.56,0,0,0,202.1,197l-.83,1.17L188.66,200A71.4,71.4,0,0,0,201,228.72a72.9,72.9,0,0,0,26.62,22.69,72.68,72.68,0,0,0,59.76,2.29l.93-.38.75,1.86-.92.37A74.14,74.14,0,0,1,260,261Zm45.88-15.77-1.25-1.56.78-.62a72.61,72.61,0,0,0,11.75-11.89,72.39,72.39,0,0,0,15.45-44.77A72.55,72.55,0,0,0,260,113.82a71.94,71.94,0,0,0-29.81,6.38l-.91.41-.82-1.82.91-.41a74.87,74.87,0,0,1,51.25-3.67,74.5,74.5,0,0,1,54,71.72,74,74,0,0,1-7,31.55,74.79,74.79,0,0,1-21,26.67ZM209.7,155.88,208,154.81l.53-.85a60.91,60.91,0,0,1,14.84-16.11l.8-.6,1.2,1.59-.8.61A58.49,58.49,0,0,0,210.24,155Z" style="fill:#FFFFFF"></path><path d="M260,247.26a61.41,61.41,0,0,1-11.48-1.09,60.88,60.88,0,0,1-48.38-48.87,61.46,61.46,0,0,1,.43-23.92l.22-1,2,.42-.21,1A59.56,59.56,0,0,0,202.1,197a58.07,58.07,0,0,0,9,22.13,58.81,58.81,0,0,0,37.84,25.13,59.88,59.88,0,0,0,11.1,1,58.84,58.84,0,0,0,58.65-54.2c.12-1.52.18-3.08.18-4.63a58.31,58.31,0,0,0-18.24-42.59,59,59,0,0,0-15-10.39A58.86,58.86,0,0,0,210.24,155l-.54.85L208,154.81l.53-.85a60.91,60.91,0,0,1,14.84-16.11,60.92,60.92,0,0,1,63.11-6.2A61.13,61.13,0,0,1,302,142.39a60.3,60.3,0,0,1,18.86,44c0,1.6-.06,3.21-.18,4.78a60.79,60.79,0,0,1-60.65,56Z" style="fill:#FFFFFF"></path><path d="M260,233.46a47,47,0,0,1-39.15-21h0a46.17,46.17,0,0,1-5.41-11,47.2,47.2,0,0,1-1.27-25.57,46.23,46.23,0,0,1,5.51-13.68,47,47,0,0,1,47.4-22.29l1,.15-.3,2-1-.15a45,45,0,0,0-45.38,21.34,44.57,44.57,0,0,0-5.29,13.1A45.28,45.28,0,0,0,215,186.43a44.76,44.76,0,0,0,2.36,14.4,44.09,44.09,0,0,0,5.17,10.54h0a45,45,0,0,0,60.95,13.5,45.31,45.31,0,0,0,12-10.61A44.64,44.64,0,0,0,305,186.43a45.23,45.23,0,0,0-26-40.82l-.91-.42.85-1.81.9.42A47.21,47.21,0,0,1,307,186.43a46.65,46.65,0,0,1-10,29.07,47,47,0,0,1-37,18Z" style="fill:#FFFFFF"></path><path d="M260,220.64a34.19,34.19,0,0,1-21.91-7.95l-.77-.64,1.28-1.53.77.64A32.26,32.26,0,0,0,260,218.64,32.3,32.3,0,0,0,276.64,214l.86-.52,1,1.72-.85.51A34.39,34.39,0,0,1,260,220.64Z" style="fill:#FFFFFF"></path><path d="M291.67,199.42l-1.87-.71.35-.93a32,32,0,0,0,2.06-11.35,32.21,32.21,0,1,0-64.42,0,32,32,0,0,0,1.71,10.38l.32.94-1.9.65-.32-1a34.26,34.26,0,0,1,24.51-44.32,34.86,34.86,0,0,1,7.89-.91,34.23,34.23,0,0,1,33.09,25.48A34.47,34.47,0,0,1,292,198.48Z" style="fill:#FFFFFF"></path><rect x="249.52" y="140.53" width="2" height="14.84" transform="translate(-31.61 76.87) rotate(-16.42)" style="fill:#FFFFFF"></rect><rect x="288.88" y="147.17" width="15.64" height="2" transform="translate(-12.38 268.39) rotate(-47.79)" style="fill:#FFFFFF"></rect><rect x="300.87" y="210.89" width="2" height="15.83" transform="translate(-49.96 342.17) rotate(-55.26)" style="fill:#FFFFFF"></rect><rect x="242.6" y="237.51" width="15.86" height="2" transform="translate(-45.29 417.79) rotate(-74.81)" style="fill:#FFFFFF"></rect><rect x="284.02" y="240.4" width="2" height="15.78" transform="translate(-74.8 132.46) rotate(-23.22)" style="fill:#FFFFFF"></rect><rect x="186.42" y="197.13" width="15.78" height="2" transform="translate(-26.85 30.49) rotate(-8.4)" style="fill:#FFFFFF"></rect><rect x="213.18" y="239.22" width="15.43" height="2" transform="translate(-105.45 242.11) rotate(-47.73)" style="fill:#FFFFFF"></rect><rect x="226.14" y="105.6" width="2" height="15.23" transform="translate(-26.3 99.81) rotate(-23.47)" style="fill:#FFFFFF"></rect><rect x="208.05" y="214.78" width="15.8" height="2" transform="translate(-83.67 157.24) rotate(-33.92)" style="fill:#FFFFFF"></rect><rect x="311.89" y="182.78" width="2" height="15.57" transform="translate(96.64 486.29) rotate(-85.17)" style="fill:#FFFFFF"></rect><rect x="266.02" y="218" width="2" height="14.85" transform="translate(-46.74 71.58) rotate(-14.05)" style="fill:#FFFFFF"></rect><rect x="192.99" y="133.39" width="2" height="15.11" transform="translate(-35.5 210.48) rotate(-52.86)" style="fill:#FFFFFF"></rect><rect x="220.14" y="170.12" width="2" height="14.22" transform="translate(6.76 362.59) rotate(-79.56)" style="fill:#FFFFFF"></rect><rect x="307.61" y="258.66" width="2" height="15.4" transform="translate(-92.91 195.87) rotate(-30.84)" style="fill:#FFFFFF"></rect><rect x="342.08" y="221.75" width="2" height="15.41" transform="translate(-15.61 433.66) rotate(-63.43)" style="fill:#FFFFFF"></rect><rect x="329.91" y="164.78" width="15.26" height="2" transform="translate(-35.24 116.26) rotate(-18.59)" style="fill:#FFFFFF"></rect><rect x="326.19" y="222.65" width="2" height="15.24" transform="translate(-49.47 365.19) rotate(-54.84)" style="fill:#FFFFFF"></rect><rect x="221.19" y="273.67" width="15.42" height="2" transform="translate(-103.82 405.58) rotate(-71.67)" style="fill:#FFFFFF"></rect><rect x="346.11" y="181.34" width="15.06" height="2" transform="translate(-14.43 31.23) rotate(-4.96)" style="fill:#FFFFFF"></rect><rect x="159.08" y="193.37" width="15.41" height="2" transform="translate(-16.87 15.86) rotate(-5.18)" style="fill:#FFFFFF"></rect><rect x="329.73" y="132.94" width="15.42" height="2" transform="translate(-20.3 195.82) rotate(-31.46)" style="fill:#FFFFFF"></rect><rect x="283.16" y="111.33" width="15.24" height="2" transform="matrix(0.37, -0.93, 0.93, 0.37, 79.58, 341.6)" style="fill:#FFFFFF"></rect><path d="M261,266.28a87.14,87.14,0,0,1-22.37-3c-35.9-9.48-55.57-42-58.66-68.27-.95-8,.27-17.77.79-21.94.12-.89.2-1.6.2-1.79-.28-.35-3.33-1.16-5.56-1.76-4.28-1.13-6-1.67-6.23-2.39-1.1-4.13,9.59-44.89,50-64.54a95.6,95.6,0,0,1,51.47-9.35c19,2,37.17,10,52.48,23.3a1.69,1.69,0,0,0,1.32.36c6.17-.44,22.23-19,22.39-19.16l.24-.29.57.49-.24.29c-.67.77-16.43,19-22.9,19.42a2.52,2.52,0,0,1-1.88-.54C307.45,103.93,289.45,95.94,270.59,94a94.39,94.39,0,0,0-91.08,46.75c-7.9,13.48-10.11,24.35-9.61,26.2.29.42,3.54,1.29,5.69,1.86,4.82,1.28,6.12,1.74,6.12,2.48,0,.24-.07.86-.2,1.89-.52,4.14-1.73,13.82-.8,21.75,3.06,26,22.55,58.24,58.12,67.64a81.51,81.51,0,0,0,42.64.2c10.51-2.86,17.3-7.15,18.85-8.43.84-.7-.94-3.34-2.37-5.46s-2.84-4.19-2.55-5.39a1.18,1.18,0,0,1,.6-.78c11.54-6.4,20.69-18,25.77-32.61,4.87-14,5.43-29.59,1.52-42.71-9.2-30.91-38.62-49.3-73.23-45.75-32.5,3.33-50.47,35.47-50.47,38.65.06.45,1.72,1.57,9.3,4.37l1.32.49a18.32,18.32,0,0,0,1.26-1.86c3.07-4.83,11.24-17.66,27.1-25,14.53-6.71,29.27-5.79,33.94-3.8.76.32,1.19.67,1.32,1.05.31.9-.14,3-.66,5.39-.63,2.94-1.5,7-.43,7.49.5.26,1.07.53,1.7.84,6.41,3.08,19.75,9.5,24.65,26.74,5.27,18.56-5.92,35.07-9.56,36.26-3.44,1.15-12.62-8.85-13.65-10l-.25-.28.55-.51.25.28c2.72,3,10.32,10.62,12.87,9.79,2.74-.9,14.44-16.41,9.07-35.34-4.81-16.92-17.46-23-24.25-26.28-.64-.3-1.22-.58-1.72-.84-1.59-.8-.8-4.45,0-8.31.45-2.11.93-4.29.68-5,0-.09-.26-.32-.9-.6-4.42-1.88-19.19-2.74-33.33,3.79-15.67,7.23-23.75,19.93-26.79,24.7-1.26,2-1.55,2.45-2,2.22-.15-.08-.71-.29-1.43-.55-7.23-2.67-9.79-4-9.79-5.07,0-3.24,18.21-36,51.15-39.39,35-3.59,64.72,15,74,46.28,3.95,13.26,3.39,29-1.53,43.17-5.15,14.8-14.42,26.53-26.11,33a.45.45,0,0,0-.24.3c-.21.88,1.2,3,2.44,4.8,1.85,2.74,3.6,5.32,2.22,6.46C300.62,255.06,285.67,266.28,261,266.28Z" style="fill:#263238"></path><path d="M254.39,193.77a13.53,13.53,0,0,1,.92-5.11,8.52,8.52,0,0,1,3.84-3.95c.57-.34,1.29-.74,2.14-1.18a18.45,18.45,0,0,0,2.5-1.6,9.27,9.27,0,0,0,2.06-2.18,5,5,0,0,0,.84-2.87,4.69,4.69,0,0,0-.47-2.14,4.85,4.85,0,0,0-1.21-1.57,5,5,0,0,0-1.78-1,6.85,6.85,0,0,0-2.05-.32,6,6,0,0,0-2.33.44,8.14,8.14,0,0,0-1.88,1.1,9,9,0,0,0-1.51,1.51,16,16,0,0,0-1.13,1.59l-5.05-3.48a11.25,11.25,0,0,1,2-3.19,12.15,12.15,0,0,1,2.85-2.35,13.2,13.2,0,0,1,3.45-1.45,14.79,14.79,0,0,1,3.83-.49,15,15,0,0,1,4.35.64,10.92,10.92,0,0,1,3.86,2,10.29,10.29,0,0,1,2.78,3.57,11.56,11.56,0,0,1,1.08,5.19,11.22,11.22,0,0,1-.44,3.28,9.21,9.21,0,0,1-1.25,2.58,11.11,11.11,0,0,1-1.91,2.09,22.05,22.05,0,0,1-2.5,1.8c-.77.46-1.54.9-2.32,1.33a14.77,14.77,0,0,0-2.12,1.42,6.84,6.84,0,0,0-1.56,1.8,4.69,4.69,0,0,0-.61,2.47Zm.11,13.52v-8h6.44v8Z" style="fill:#37474f"></path></g><g id="freepik--light-bulb--inject-87"><path d="M399.2,72.05c-1.72,14.53-11.06,17.19-12.62,21.07a67.81,67.81,0,0,0-2,7.43l-15.18,0a64.16,64.16,0,0,0-1.94-7.43C366,89.22,356.61,86.54,354.94,72c-1.11-9.55,6.08-24.62,22.15-24.6S400.31,62.5,399.2,72.05Z" style="fill:#FFFFFF"></path><rect x="370.56" y="77.16" width="0.99" height="24.57" transform="translate(-10.09 69.17) rotate(-10.51)" style="fill:#fff"></rect><rect x="370.75" y="88.96" width="24.57" height="0.99" transform="translate(224.4 449.4) rotate(-79.36)" style="fill:#fff"></rect><path d="M377.05,85.47h0c-1.42,0-2.65-1.28-3.52-2.87a1.84,1.84,0,0,1-1.29.67h0c-2.32,0-3.23-4.73-3.27-4.93l.49-.09c.24,1.26,1.2,4.53,2.79,4.53h0a1.51,1.51,0,0,0,1.05-.66,10.69,10.69,0,0,1-1.12-4.27c0-1.35.51-2.12,1.41-2.12h0a1.44,1.44,0,0,1,1.3.74c.72,1.24.19,3.7-.72,5.26-.1.16-.2.32-.3.46.81,1.55,2,2.78,3.19,2.78h0c1.12,0,2.1-1,2.81-2.37a6.31,6.31,0,0,1-1.39-4.08c0-1.72.66-2.79,1.71-2.79h0c.85,0,1.35.85,1.34,2.32a11.18,11.18,0,0,1-1.09,4.46,2.15,2.15,0,0,0,1.46.59h0c1.36,0,2.58-3.29,2.93-4.56l.48.14c-.14.5-1.43,4.92-3.41,4.92h0a2.54,2.54,0,0,1-1.68-.65C379.45,84.38,378.37,85.47,377.05,85.47Zm3.13-9.24c-.89,0-1.21,1.24-1.21,2.29a6.23,6.23,0,0,0,1.12,3.61,10.6,10.6,0,0,0,1-4.08c0-.55-.08-1.82-.86-1.82Zm-6.6,0c-.76,0-.92.88-.92,1.62a9.79,9.79,0,0,0,.95,3.83l.12-.2c.82-1.42,1.32-3.72.72-4.76a.93.93,0,0,0-.87-.49Z" style="fill:#fff"></path><rect x="367.67" y="99.89" width="18.74" height="3.66" transform="translate(0.1 -0.38) rotate(0.06)" style="fill:#455a64"></rect><rect x="367.66" y="104.15" width="18.74" height="3.66" transform="translate(0.11 -0.38) rotate(0.06)" style="fill:#455a64"></rect><rect x="367.66" y="108.4" width="18.74" height="3.66" transform="translate(0.11 -0.38) rotate(0.06)" style="fill:#455a64"></rect><path d="M377,40.94a21.59,21.59,0,0,1-.31-3.92A21.66,21.66,0,0,1,377,33.1,21.66,21.66,0,0,1,377.3,37,22.52,22.52,0,0,1,377,40.94Z" style="fill:#263238"></path><path d="M362.82,44.66a21.44,21.44,0,0,1-2.23-3.24,21.84,21.84,0,0,1-1.69-3.55,22,22,0,0,1,2.23,3.24A22.66,22.66,0,0,1,362.82,44.66Z" style="fill:#263238"></path><path d="M352.41,55a22.66,22.66,0,0,1-3.55-1.69,21.44,21.44,0,0,1-3.24-2.23,21.84,21.84,0,0,1,3.55,1.69A21.44,21.44,0,0,1,352.41,55Z" style="fill:#263238"></path><path d="M348.55,69.1a24.94,24.94,0,0,1-7.84,0,24.94,24.94,0,0,1,7.84,0Z" style="fill:#263238"></path><path d="M352.27,83.27A21.44,21.44,0,0,1,349,85.5a21.84,21.84,0,0,1-3.55,1.69A21.44,21.44,0,0,1,348.72,85,22.66,22.66,0,0,1,352.27,83.27Z" style="fill:#263238"></path><path d="M401.29,83.51a24.84,24.84,0,0,1,6.79,3.92,21,21,0,0,1-3.55-1.69A21.44,21.44,0,0,1,401.29,83.51Z" style="fill:#263238"></path><path d="M405.15,69.38a24.94,24.94,0,0,1,7.84,0,24.94,24.94,0,0,1-7.84,0Z" style="fill:#263238"></path><path d="M401.43,55.21A23,23,0,0,1,404.67,53a21.84,21.84,0,0,1,3.55-1.69A22,22,0,0,1,405,53.52,21.8,21.8,0,0,1,401.43,55.21Z" style="fill:#263238"></path><path d="M391.12,44.8a22.66,22.66,0,0,1,1.69-3.55A22,22,0,0,1,395,38a21.84,21.84,0,0,1-1.69,3.55A21.44,21.44,0,0,1,391.12,44.8Z" style="fill:#263238"></path></g></svg>